SplineFontDB: 3.0
FontName: Nobile
FullName: Nobile-bold
FamilyName: Nobile-bold
Weight: Bold
Copyright: Copyright (c) 2007-10 by vernon adams. All rights reserved.
Version: 1.000;PS 001.000
ItalicAngle: 0
UnderlinePosition: -85
UnderlineWidth: 90
Ascent: 1638
Descent: 410
sfntRevision: 0x00000000
LayerCount: 2
Layer: 0 1 "Back"  1
Layer: 1 1 "Fore"  0
XUID: [1021 759 1887733602 8033504]
FSType: 0
OS2Version: 2
OS2_WeightWidthSlopeOnly: 0
OS2_UseTypoMetrics: 1
CreationTime: 1309302975
ModificationTime: 1309348967
PfmFamily: 17
TTFWeight: 700
TTFWidth: 5
LineGap: 0
VLineGap: 0
Panose: 2 0 8 3 0 0 0 0 0 0
OS2TypoAscent: 776
OS2TypoAOffset: 1
OS2TypoDescent: -522
OS2TypoDOffset: 1
OS2TypoLinegap: 0
OS2WinAscent: -12
OS2WinAOffset: 1
OS2WinDescent: 0
OS2WinDOffset: 1
HheadAscent: -12
HheadAOffset: 1
HheadDescent: 0
HheadDOffset: 1
OS2SubXSize: 1331
OS2SubYSize: 1433
OS2SubXOff: 0
OS2SubYOff: 286
OS2SupXSize: 1331
OS2SupYSize: 1433
OS2SupXOff: 0
OS2SupYOff: 983
OS2StrikeYSize: 102
OS2StrikeYPos: 530
OS2Vendor: 'pyrs'
OS2CodePages: 20000001.00000000
OS2UnicodeRanges: 00000001.00000000.00000000.00000000
Lookup: 258 0 0 "'kern' Horizontal Kerning in Latin lookup 0"  {"'kern' Horizontal Kerning in Latin lookup 0 subtable"  } ['kern' ('latn' <'dflt' > ) ]
DEI: 91125
ShortTable: maxp 16
  1
  0
  353
  194
  7
  78
  4
  1
  0
  0
  0
  0
  0
  0
  2
  1
EndShort
LangName: 1033 "" "" "" "webfont" "" "Version 1.000;PS 001.000" 
GaspTable: 1 65535 15
Encoding: UnicodeBmp
Compacted: 1
UnicodeInterp: none
NameList: Adobe Glyph List
DisplaySize: -48
AntiAlias: 1
FitToEm: 1
WinInfo: 19 19 13
BeginChars: 65558 353

StartChar: .notdef
Encoding: 65536 -1 0
Width: 748
Flags: W
LayerCount: 2
Fore
SplineSet
68 0 m 1,0,-1
 68 1365 l 1,1,-1
 612 1365 l 1,2,-1
 612 0 l 1,3,-1
 68 0 l 1,0,-1
136 68 m 1,4,-1
 544 68 l 1,5,-1
 544 1297 l 1,6,-1
 136 1297 l 1,7,-1
 136 68 l 1,4,-1
EndSplineSet
EndChar

StartChar: exclam
Encoding: 33 33 4
Width: 840
GlyphClass: 2
Flags: W
LayerCount: 2
Fore
SplineSet
687 1530 m 1,0,-1
 579 464 l 1,1,-1
 369 464 l 1,2,-1
 258 1530 l 1,3,-1
 687 1530 l 1,0,-1
350 43 m 0,4,5
 297 99 297 99 297 182 c 128,-1,6
 297 265 297 265 350 320.5 c 128,-1,7
 403 376 403 376 485.5 376 c 128,-1,8
 568 376 568 376 621.5 320.5 c 128,-1,9
 675 265 675 265 675 182 c 128,-1,10
 675 99 675 99 621.5 43.5 c 128,-1,11
 568 -12 568 -12 485.5 -12 c 128,-1,12
 403 -12 403 -12 350 43 c 0,4,5
EndSplineSet
EndChar

StartChar: quotedbl
Encoding: 34 34 5
Width: 961
GlyphClass: 2
Flags: W
LayerCount: 2
Fore
SplineSet
176 1578 m 1,0,-1
 600 1578 l 2,1,2
 599 1578 599 1578 540 1191 c 2,3,-1
 480 804 l 1,4,-1
 260 804 l 1,5,-1
 176 1578 l 1,0,-1
698 1578 m 1,6,-1
 1122 1578 l 2,7,8
 1121 1578 1121 1578 1062 1191 c 2,9,-1
 1002 804 l 1,10,-1
 782 804 l 1,11,-1
 698 1578 l 1,6,-1
EndSplineSet
EndChar

StartChar: numbersign
Encoding: 35 35 6
Width: 1544
GlyphClass: 2
Flags: W
LayerCount: 2
Fore
SplineSet
714 429 m 1,0,-1
 513 429 l 1,1,-1
 449 0 l 1,2,-1
 221 0 l 1,3,-1
 285 429 l 1,4,-1
 125 429 l 1,5,-1
 125 582 l 1,6,-1
 302 582 l 1,7,-1
 334 829 l 1,8,-1
 125 829 l 1,9,-1
 125 982 l 1,10,-1
 355 982 l 1,11,-1
 413 1411 l 1,12,-1
 639 1411 l 1,13,-1
 581 982 l 1,14,-1
 786 982 l 1,15,-1
 840 1411 l 1,16,-1
 1069 1411 l 1,17,-1
 1012 982 l 1,18,-1
 1166 982 l 1,19,-1
 1166 829 l 1,20,-1
 993 829 l 1,21,-1
 960 582 l 1,22,-1
 1166 582 l 1,23,-1
 1166 429 l 1,24,-1
 941 429 l 1,25,-1
 879 0 l 1,26,-1
 651 0 l 1,27,-1
 714 429 l 1,0,-1
532 582 m 1,28,-1
 730 582 l 1,29,-1
 761 829 l 1,30,-1
 564 829 l 1,31,-1
 532 582 l 1,28,-1
EndSplineSet
EndChar

StartChar: dollar
Encoding: 36 36 7
Width: 1282
GlyphClass: 2
Flags: W
LayerCount: 2
Fore
SplineSet
690 1599 m 1,0,-1
 690 1712 l 1,1,-1
 800 1712 l 1,2,-1
 800 1593 l 1,3,4
 941 1581 941 1581 1056 1550 c 128,-1,5
 1171 1519 1171 1519 1242 1482 c 1,6,-1
 1157 1225 l 1,7,-1
 1145 1229 l 1,8,-1
 1113 1240 l 1,9,-1
 1065 1256 l 2,10,11
 1038 1265 1038 1265 1005 1274.5 c 128,-1,12
 972 1284 972 1284 938.5 1292 c 128,-1,13
 905 1300 905 1300 868 1307 c 128,-1,14
 831 1314 831 1314 800 1316 c 1,15,-1
 800 971 l 1,16,-1
 956 913 l 2,17,18
 1033 884 1033 884 1095.5 844 c 128,-1,19
 1158 804 1158 804 1207.5 751.5 c 128,-1,20
 1257 699 1257 699 1284 630.5 c 128,-1,21
 1311 562 1311 562 1311 485 c 0,22,23
 1311 241 1311 241 1177 112 c 128,-1,24
 1043 -17 1043 -17 800 -34 c 1,25,-1
 800 -147 l 1,26,-1
 690 -147 l 1,27,-1
 690 -36 l 1,28,29
 600 -30 600 -30 509 -10.5 c 128,-1,30
 418 9 418 9 347.5 35 c 128,-1,31
 277 61 277 61 247 74 c 2,32,-1
 194 97 l 1,33,-1
 193 98 l 1,34,-1
 258 363 l 2,35,36
 258 360 258 360 333.5 330.5 c 128,-1,37
 409 301 409 301 516.5 270.5 c 128,-1,38
 624 240 624 240 690 240 c 1,39,-1
 690 682 l 1,40,-1
 409 799 l 2,41,42
 143 909 143 909 143 1168 c 0,43,44
 143 1263 143 1263 171.5 1337.5 c 128,-1,45
 200 1412 200 1412 249.5 1460.5 c 128,-1,46
 299 1509 299 1509 369.5 1540.5 c 128,-1,47
 440 1572 440 1572 518.5 1585.5 c 128,-1,48
 597 1599 597 1599 690 1599 c 1,0,-1
690 1320 m 1,49,50
 650 1319 650 1319 620 1315 c 128,-1,51
 590 1311 590 1311 561.5 1301 c 128,-1,52
 533 1291 533 1291 514.5 1275 c 128,-1,53
 496 1259 496 1259 485.5 1233 c 128,-1,54
 475 1207 475 1207 475 1171 c 0,55,56
 475 1154 475 1154 479 1141 c 128,-1,57
 483 1128 483 1128 495 1111 c 128,-1,58
 507 1094 507 1094 533 1077.5 c 128,-1,59
 559 1061 559 1061 600 1046 c 2,60,-1
 690 1012 l 1,61,-1
 690 1320 l 1,49,50
800 251 m 1,62,63
 877 268 877 268 925 314.5 c 128,-1,64
 973 361 973 361 973 437 c 0,65,66
 973 501 973 501 942 546 c 128,-1,67
 911 591 911 591 833 623 c 1,68,-1
 800 637 l 1,69,-1
 800 251 l 1,62,63
EndSplineSet
EndChar

StartChar: percent
Encoding: 37 37 8
Width: 1845
GlyphClass: 2
Flags: W
LayerCount: 2
Fore
SplineSet
606 1150 m 0,0,1
 606 1216 606 1216 594.5 1262 c 128,-1,2
 583 1308 583 1308 561 1333 c 128,-1,3
 539 1358 539 1358 511.5 1368.5 c 128,-1,4
 484 1379 484 1379 446 1379 c 0,5,6
 370 1379 370 1379 330 1326.5 c 128,-1,7
 290 1274 290 1274 290 1150 c 0,8,9
 290 1081 290 1081 301.5 1034 c 128,-1,10
 313 987 313 987 335.5 962 c 128,-1,11
 358 937 358 937 384 927 c 128,-1,12
 410 917 410 917 446 917 c 0,13,14
 523 917 523 917 564.5 970.5 c 128,-1,15
 606 1024 606 1024 606 1150 c 0,0,1
59 1130 m 0,16,17
 59 1211 59 1211 72 1277 c 128,-1,18
 85 1343 85 1343 106.5 1388.5 c 128,-1,19
 128 1434 128 1434 159 1469 c 128,-1,20
 190 1504 190 1504 222.5 1524.5 c 128,-1,21
 255 1545 255 1545 294 1557.5 c 128,-1,22
 333 1570 333 1570 367 1574.5 c 128,-1,23
 401 1579 401 1579 438 1579 c 0,24,25
 532 1579 532 1579 605.5 1552.5 c 128,-1,26
 679 1526 679 1526 723.5 1484 c 128,-1,27
 768 1442 768 1442 797.5 1384.5 c 128,-1,28
 827 1327 827 1327 838 1270.5 c 128,-1,29
 849 1214 849 1214 849 1152 c 0,30,31
 849 1091 849 1091 838.5 1033.5 c 128,-1,32
 828 976 828 976 799.5 916 c 128,-1,33
 771 856 771 856 727.5 811.5 c 128,-1,34
 684 767 684 767 611 739 c 128,-1,35
 538 711 538 711 446 711 c 0,36,37
 381 711 381 711 326 726 c 128,-1,38
 271 741 271 741 232.5 766.5 c 128,-1,39
 194 792 194 792 163 827 c 128,-1,40
 132 862 132 862 113 899.5 c 128,-1,41
 94 937 94 937 81.5 979 c 128,-1,42
 69 1021 69 1021 64 1058 c 128,-1,43
 59 1095 59 1095 59 1130 c 0,16,17
1664 439 m 0,44,45
 1664 505 1664 505 1653 551 c 128,-1,46
 1642 597 1642 597 1620 622 c 128,-1,47
 1598 647 1598 647 1570 657.5 c 128,-1,48
 1542 668 1542 668 1504 668 c 0,49,50
 1429 668 1429 668 1388.5 615.5 c 128,-1,51
 1348 563 1348 563 1348 439 c 0,52,53
 1348 370 1348 370 1360 323 c 128,-1,54
 1372 276 1372 276 1394 251 c 128,-1,55
 1416 226 1416 226 1442.5 216 c 128,-1,56
 1469 206 1469 206 1504 206 c 0,57,58
 1581 206 1581 206 1622.5 259.5 c 128,-1,59
 1664 313 1664 313 1664 439 c 0,44,45
455 -29 m 1,60,-1
 1222 1674 l 1,61,-1
 1449 1592 l 1,62,-1
 674 -107 l 1,63,-1
 455 -29 l 1,60,-1
1117 419 m 0,64,65
 1117 500 1117 500 1130 566 c 128,-1,66
 1143 632 1143 632 1164.5 677.5 c 128,-1,67
 1186 723 1186 723 1217 758 c 128,-1,68
 1248 793 1248 793 1280.5 813.5 c 128,-1,69
 1313 834 1313 834 1352 846.5 c 128,-1,70
 1391 859 1391 859 1425 863.5 c 128,-1,71
 1459 868 1459 868 1496 868 c 0,72,73
 1590 868 1590 868 1663.5 841.5 c 128,-1,74
 1737 815 1737 815 1782 773 c 128,-1,75
 1827 731 1827 731 1856 673.5 c 128,-1,76
 1885 616 1885 616 1896 559.5 c 128,-1,77
 1907 503 1907 503 1907 441 c 0,78,79
 1907 380 1907 380 1896.5 322.5 c 128,-1,80
 1886 265 1886 265 1857.5 205 c 128,-1,81
 1829 145 1829 145 1785.5 100.5 c 128,-1,82
 1742 56 1742 56 1669.5 28 c 128,-1,83
 1597 0 1597 0 1504 0 c 0,84,85
 1439 0 1439 0 1384.5 15 c 128,-1,86
 1330 30 1330 30 1291 55.5 c 128,-1,87
 1252 81 1252 81 1221 116 c 128,-1,88
 1190 151 1190 151 1171 188.5 c 128,-1,89
 1152 226 1152 226 1139.5 268 c 128,-1,90
 1127 310 1127 310 1122 347 c 128,-1,91
 1117 384 1117 384 1117 419 c 0,64,65
EndSplineSet
EndChar

StartChar: ampersand
Encoding: 38 38 9
Width: 1608
GlyphClass: 2
Flags: W
LayerCount: 2
Fore
SplineSet
932 1235 m 0,0,1
 932 1312 932 1312 882 1349.5 c 128,-1,2
 832 1387 832 1387 746 1387 c 0,3,4
 559 1387 559 1387 559 1242 c 0,5,6
 559 1221 559 1221 564 1200.5 c 128,-1,7
 569 1180 569 1180 577.5 1162.5 c 128,-1,8
 586 1145 586 1145 597.5 1128.5 c 128,-1,9
 609 1112 609 1112 621 1098 c 1,10,-1
 646 1073 l 2,11,12
 658 1061 658 1061 669 1052 c 2,13,-1
 689 1036 l 2,14,15
 698 1030 698 1030 703 1026 c 2,16,-1
 708 1023 l 1,17,18
 746 1035 746 1035 774 1046 c 128,-1,19
 802 1057 802 1057 834 1075.5 c 128,-1,20
 866 1094 866 1094 886 1115 c 128,-1,21
 906 1136 906 1136 919 1167 c 128,-1,22
 932 1198 932 1198 932 1235 c 0,0,1
764 -40 m 0,23,24
 652 -40 652 -40 556 -23.5 c 128,-1,25
 460 -7 460 -7 377 29.5 c 128,-1,26
 294 66 294 66 235.5 121 c 128,-1,27
 177 176 177 176 144 256 c 128,-1,28
 111 336 111 336 111 435 c 0,29,30
 111 512 111 512 131 577 c 128,-1,31
 151 642 151 642 183 688 c 128,-1,32
 215 734 215 734 264.5 774.5 c 128,-1,33
 314 815 314 815 361.5 842 c 128,-1,34
 409 869 409 869 473 897 c 1,35,36
 464 904 464 904 450 916.5 c 128,-1,37
 436 929 436 929 399 969 c 128,-1,38
 362 1009 362 1009 334 1050 c 128,-1,39
 306 1091 306 1091 283 1150.5 c 128,-1,40
 260 1210 260 1210 260 1265 c 0,41,42
 260 1370 260 1370 322.5 1450 c 128,-1,43
 385 1530 385 1530 490.5 1571 c 128,-1,44
 596 1612 596 1612 728 1612 c 0,45,46
 865 1612 865 1612 970.5 1571 c 128,-1,47
 1076 1530 1076 1530 1135 1452.5 c 128,-1,48
 1194 1375 1194 1375 1194 1273 c 0,49,50
 1194 1176 1194 1176 1165 1090 c 128,-1,51
 1136 1004 1136 1004 1070.5 932.5 c 128,-1,52
 1005 861 1005 861 910 826 c 1,53,-1
 1232 549 l 1,54,-1
 1232 901 l 1,55,-1
 1519 894 l 1,56,57
 1519 764 1519 764 1506 629.5 c 128,-1,58
 1493 495 1493 495 1479 426 c 2,59,-1
 1466 357 l 1,60,-1
 1732 130 l 1,61,-1
 1584 -54 l 1,62,-1
 1345 148 l 1,63,-1
 1325 124 l 1,64,65
 1228 26 1228 26 1026 -16 c 0,66,67
 908 -40 908 -40 764 -40 c 0,23,24
424 459 m 0,68,69
 424 347 424 347 505 287 c 128,-1,70
 586 227 586 227 764 227 c 0,71,72
 834 227 834 227 897.5 236.5 c 128,-1,73
 961 246 961 246 1002 259.5 c 128,-1,74
 1043 273 1043 273 1073.5 287.5 c 128,-1,75
 1104 302 1104 302 1117.5 311 c 128,-1,76
 1131 320 1131 320 1131 322 c 1,77,-1
 684 708 l 1,78,79
 628 694 628 694 584.5 675 c 128,-1,80
 541 656 541 656 503 627 c 128,-1,81
 465 598 465 598 444.5 555.5 c 128,-1,82
 424 513 424 513 424 459 c 0,68,69
EndSplineSet
EndChar

StartChar: quotesingle
Encoding: 39 39 10
Width: 563
GlyphClass: 2
Flags: W
LayerCount: 2
Fore
SplineSet
176 1578 m 1,0,-1
 600 1578 l 2,1,2
 599 1578 599 1578 540 1191 c 2,3,-1
 480 804 l 1,4,-1
 260 804 l 1,5,-1
 176 1578 l 1,0,-1
EndSplineSet
EndChar

StartChar: parenleft
Encoding: 40 40 11
Width: 842
GlyphClass: 2
Flags: W
LayerCount: 2
Fore
SplineSet
158 680 m 0,0,1
 158 844 158 844 192.5 997 c 128,-1,2
 227 1150 227 1150 289 1276 c 128,-1,3
 351 1402 351 1402 433 1503.5 c 128,-1,4
 515 1605 515 1605 613 1679 c 1,5,-1
 772 1468 l 1,6,7
 640 1343 640 1343 558.5 1135.5 c 128,-1,8
 477 928 477 928 477 680 c 0,9,10
 477 434 477 434 559.5 233.5 c 128,-1,11
 642 33 642 33 776 -94 c 1,12,-1
 617 -305 l 1,13,14
 518 -231 518 -231 436.5 -131.5 c 128,-1,15
 355 -32 355 -32 291.5 91 c 128,-1,16
 228 214 228 214 193 365.5 c 128,-1,17
 158 517 158 517 158 680 c 0,0,1
EndSplineSet
EndChar

StartChar: parenright
Encoding: 41 41 12
Width: 842
GlyphClass: 2
Flags: W
LayerCount: 2
Fore
SplineSet
765 694 m 0,0,1
 765 530 765 530 730.5 377 c 128,-1,2
 696 224 696 224 634 98 c 128,-1,3
 572 -28 572 -28 490 -129.5 c 128,-1,4
 408 -231 408 -231 310 -305 c 1,5,-1
 151 -94 l 1,6,7
 283 31 283 31 364.5 238.5 c 128,-1,8
 446 446 446 446 446 694 c 0,9,10
 446 940 446 940 363.5 1140.5 c 128,-1,11
 281 1341 281 1341 147 1468 c 1,12,-1
 306 1679 l 1,13,14
 405 1605 405 1605 486.5 1505.5 c 128,-1,15
 568 1406 568 1406 631.5 1283 c 128,-1,16
 695 1160 695 1160 730 1008.5 c 128,-1,17
 765 857 765 857 765 694 c 0,0,1
EndSplineSet
EndChar

StartChar: asterisk
Encoding: 42 42 13
Width: 963
GlyphClass: 2
Flags: W
LayerCount: 2
Fore
SplineSet
489 1416 m 1,0,-1
 618 1640 l 1,1,-1
 813 1524 l 1,2,-1
 677 1288 l 1,3,-1
 929 1288 l 1,4,-1
 929 1094 l 1,5,-1
 680 1094 l 1,6,-1
 815 864 l 1,7,-1
 617 746 l 1,8,-1
 492 966 l 1,9,-1
 366 748 l 1,10,-1
 170 864 l 1,11,-1
 305 1094 l 1,12,-1
 37 1094 l 1,13,-1
 37 1288 l 1,14,-1
 308 1288 l 1,15,-1
 171 1528 l 1,16,-1
 365 1638 l 1,17,-1
 489 1416 l 1,0,-1
EndSplineSet
EndChar

StartChar: plus
Encoding: 43 43 14
Width: 1544
GlyphClass: 2
Flags: W
LayerCount: 2
Fore
SplineSet
1039 450 m 1,0,-1
 760 450 l 1,1,-1
 760 97 l 1,2,-1
 472 97 l 1,3,-1
 472 450 l 1,4,-1
 195 450 l 1,5,-1
 195 719 l 1,6,-1
 472 719 l 1,7,-1
 472 1069 l 1,8,-1
 760 1069 l 1,9,-1
 760 719 l 1,10,-1
 1039 719 l 1,11,-1
 1039 450 l 1,0,-1
EndSplineSet
EndChar

StartChar: comma
Encoding: 44 44 15
Width: 700
GlyphClass: 2
Flags: W
LayerCount: 2
Fore
SplineSet
98 0 m 1,0,-1
 98 415 l 1,1,-1
 516 415 l 1,2,-1
 516 53 l 2,3,4
 516 -14 516 -14 495.5 -68.5 c 128,-1,5
 475 -123 475 -123 444 -158.5 c 128,-1,6
 413 -194 413 -194 363 -224 c 128,-1,7
 313 -254 313 -254 267.5 -271.5 c 128,-1,8
 222 -289 222 -289 161 -307 c 1,9,-1
 99 -193 l 1,10,11
 194 -159 194 -159 235 -117 c 128,-1,12
 276 -75 276 -75 276 0 c 1,13,-1
 98 0 l 1,0,-1
EndSplineSet
EndChar

StartChar: hyphen
Encoding: 45 45 16
Width: 766
GlyphClass: 2
Flags: W
LayerCount: 2
Fore
SplineSet
894 574 m 1,0,-1
 100 574 l 1,1,-1
 100 836 l 1,2,-1
 894 836 l 1,3,-1
 894 574 l 1,0,-1
EndSplineSet
EndChar

StartChar: period
Encoding: 46 46 17
Width: 700
GlyphClass: 2
Flags: W
LayerCount: 2
Fore
SplineSet
243 55 m 1,0,1
 188 111 188 111 188 194 c 128,-1,2
 188 277 188 277 243.5 332.5 c 128,-1,3
 299 388 299 388 381 388 c 128,-1,4
 463 388 463 388 520 332.5 c 128,-1,5
 577 277 577 277 577 194 c 128,-1,6
 577 111 577 111 520 55.5 c 128,-1,7
 463 0 463 0 381 0 c 128,-1,8
 299 0 299 0 243 55 c 1,0,1
EndSplineSet
EndChar

StartChar: slash
Encoding: 47 47 18
Width: 674
GlyphClass: 2
Flags: W
LayerCount: 2
Fore
SplineSet
0 -60 m 1,0,-1
 571 1667 l 1,1,-1
 852 1578 l 1,2,-1
 276 -147 l 1,3,-1
 0 -60 l 1,0,-1
EndSplineSet
EndChar

StartChar: zero
Encoding: 48 48 19
Width: 1282
GlyphClass: 2
Flags: W
LayerCount: 2
Fore
SplineSet
672 233 m 0,0,1
 731 233 731 233 776 251.5 c 128,-1,2
 821 270 821 270 850.5 302.5 c 128,-1,3
 880 335 880 335 898.5 382.5 c 128,-1,4
 917 430 917 430 924.5 483 c 128,-1,5
 932 536 932 536 932 602 c 0,6,7
 932 677 932 677 918.5 737 c 128,-1,8
 905 797 905 797 875.5 845 c 128,-1,9
 846 893 846 893 794.5 919.5 c 128,-1,10
 743 946 743 946 672 946 c 0,11,12
 615 946 615 946 570.5 926.5 c 128,-1,13
 526 907 526 907 497.5 874.5 c 128,-1,14
 469 842 469 842 450.5 796 c 128,-1,15
 432 750 432 750 424.5 700 c 128,-1,16
 417 650 417 650 418 592 c 0,17,18
 419 509 419 509 431.5 446 c 128,-1,19
 444 383 444 383 472.5 333.5 c 128,-1,20
 501 284 501 284 551.5 258.5 c 128,-1,21
 602 233 602 233 672 233 c 0,0,1
672 1206 m 0,22,23
 862 1206 862 1206 995.5 1130.5 c 128,-1,24
 1129 1055 1129 1055 1194.5 917.5 c 128,-1,25
 1260 780 1260 780 1260 590 c 0,26,27
 1260 401 1260 401 1193.5 263 c 128,-1,28
 1127 125 1127 125 994 49 c 128,-1,29
 861 -27 861 -27 672.5 -27 c 128,-1,30
 484 -27 484 -27 351.5 49.5 c 128,-1,31
 219 126 219 126 153.5 263.5 c 128,-1,32
 88 401 88 401 88 590 c 0,33,34
 88 880 88 880 238 1043 c 128,-1,35
 388 1206 388 1206 672 1206 c 0,22,23
EndSplineSet
EndChar

StartChar: one
Encoding: 49 49 20
Width: 1282
GlyphClass: 2
Flags: W
LayerCount: 2
Fore
SplineSet
459 0 m 1,0,-1
 459 892 l 1,1,-1
 303 825 l 1,2,-1
 209 1063 l 1,3,-1
 476 1171 l 1,4,-1
 807 1169 l 1,5,-1
 807 0 l 1,6,-1
 459 0 l 1,0,-1
EndSplineSet
EndChar

StartChar: two
Encoding: 50 50 21
Width: 1282
GlyphClass: 2
Flags: W
LayerCount: 2
Fore
SplineSet
729 786 m 0,0,1
 729 859 729 859 692.5 894.5 c 128,-1,2
 656 930 656 930 575 930 c 0,3,4
 531 930 531 930 474 916 c 128,-1,5
 417 902 417 902 363 880 c 2,6,-1
 283 847 l 2,7,8
 257 836 257 836 237 826 c 1,9,-1
 236 825 l 1,10,-1
 145 1064 l 1,11,-1
 147 1065 l 2,12,13
 172 1078 172 1078 203.5 1091.5 c 128,-1,14
 235 1105 235 1105 303 1131.5 c 128,-1,15
 371 1158 371 1158 449.5 1174.5 c 128,-1,16
 528 1191 528 1191 597 1191 c 256,17,18
 666 1191 666 1191 730 1180 c 128,-1,19
 794 1169 794 1169 855.5 1142.5 c 128,-1,20
 917 1116 917 1116 962 1076.5 c 128,-1,21
 1007 1037 1007 1037 1034.5 974.5 c 128,-1,22
 1062 912 1062 912 1062 834 c 0,23,24
 1062 716 1062 716 1004.5 619.5 c 128,-1,25
 947 523 947 523 803 396 c 2,26,-1
 659 268 l 1,27,-1
 1031 268 l 1,28,-1
 1031 0 l 1,29,-1
 173 0 l 1,30,-1
 173 217 l 1,31,-1
 498 492 l 2,32,33
 502 495 502 495 528.5 517 c 128,-1,34
 555 539 555 539 564 547 c 2,35,-1
 597 576 l 2,36,37
 622 598 622 598 632 610 c 2,38,-1
 661 642 l 2,39,40
 681 663 681 663 690 678 c 128,-1,41
 699 693 699 693 709.5 712.5 c 128,-1,42
 720 732 720 732 724.5 750 c 128,-1,43
 729 768 729 768 729 786 c 0,0,1
EndSplineSet
EndChar

StartChar: three
Encoding: 51 51 22
Width: 1282
GlyphClass: 2
Flags: W
LayerCount: 2
Fore
SplineSet
687 829 m 0,0,1
 687 885 687 885 641.5 912.5 c 128,-1,2
 596 940 596 940 522 940 c 0,3,4
 496 940 496 940 467 936 c 128,-1,5
 438 932 438 932 411 926 c 128,-1,6
 384 920 384 920 357.5 912.5 c 128,-1,7
 331 905 331 905 309.5 897.5 c 128,-1,8
 288 890 288 890 271.5 883.5 c 128,-1,9
 255 877 255 877 246 874 c 2,10,-1
 237 870 l 1,11,-1
 123 1099 l 1,12,-1
 141 1109 l 2,13,14
 160 1119 160 1119 195 1134.5 c 128,-1,15
 230 1150 230 1150 273.5 1165 c 128,-1,16
 317 1180 317 1180 377 1191 c 128,-1,17
 437 1202 437 1202 497 1202 c 0,18,19
 588 1202 588 1202 661.5 1190 c 128,-1,20
 735 1178 735 1178 798 1150 c 128,-1,21
 861 1122 861 1122 903.5 1078.5 c 128,-1,22
 946 1035 946 1035 970.5 970.5 c 128,-1,23
 995 906 995 906 997 823 c 0,24,25
 999 729 999 729 944 649.5 c 128,-1,26
 889 570 889 570 796 547 c 1,27,28
 898 522 898 522 965.5 433.5 c 128,-1,29
 1033 345 1033 345 1033 239 c 256,30,31
 1033 133 1033 133 994 52 c 128,-1,32
 955 -29 955 -29 884.5 -78 c 128,-1,33
 814 -127 814 -127 721 -151.5 c 128,-1,34
 628 -176 628 -176 515 -176 c 0,35,36
 451 -176 451 -176 389 -169 c 128,-1,37
 327 -162 327 -162 284 -152 c 128,-1,38
 241 -142 241 -142 207.5 -132 c 128,-1,39
 174 -122 174 -122 158 -115 c 2,40,-1
 141 -108 l 1,41,-1
 224 144 l 1,42,-1
 225 144 l 1,43,44
 247 135 247 135 277 124.5 c 128,-1,45
 307 114 307 114 378 98 c 128,-1,46
 449 82 449 82 505 82 c 0,47,48
 606 82 606 82 657.5 117 c 128,-1,49
 709 152 709 152 709 236 c 0,50,51
 709 296 709 296 665.5 340.5 c 128,-1,52
 622 385 622 385 555.5 405.5 c 128,-1,53
 489 426 489 426 413 424 c 1,54,-1
 413 670 l 1,55,56
 468 670 468 670 515 678.5 c 128,-1,57
 562 687 562 687 601.5 705 c 128,-1,58
 641 723 641 723 664 755 c 128,-1,59
 687 787 687 787 687 829 c 0,0,1
EndSplineSet
EndChar

StartChar: four
Encoding: 52 52 23
Width: 1282
GlyphClass: 2
Flags: W
LayerCount: 2
Fore
SplineSet
733 1217 m 1,0,-1
 985 1151 l 1,1,-1
 985 317 l 1,2,-1
 1165 317 l 1,3,-1
 1165 59 l 1,4,-1
 985 59 l 1,5,-1
 985 -217 l 1,6,-1
 697 -216 l 1,7,-1
 697 59 l 1,8,-1
 125 59 l 1,9,-1
 84 260 l 1,10,-1
 733 1217 l 1,0,-1
417 315 m 1,11,-1
 697 315 l 1,12,-1
 697 733 l 1,13,-1
 417 315 l 1,11,-1
EndSplineSet
EndChar

StartChar: five
Encoding: 53 53 24
Width: 1282
GlyphClass: 2
Flags: W
LayerCount: 2
Fore
SplineSet
183 161 m 1,0,-1
 204 153 l 2,1,2
 218 148 218 148 259 135 c 128,-1,3
 300 122 300 122 340 112.5 c 128,-1,4
 380 103 380 103 434.5 94.5 c 128,-1,5
 489 86 489 86 535 86 c 0,6,7
 643 85 643 85 703 133.5 c 128,-1,8
 763 182 763 182 762 280 c 0,9,10
 761 383 761 383 710.5 445 c 128,-1,11
 660 507 660 507 562 506 c 1,12,13
 461 506 461 506 312 425 c 1,14,-1
 172 549 l 1,15,-1
 172 1169 l 1,16,-1
 977 1169 l 1,17,-1
 977 924 l 1,18,-1
 453 924 l 1,19,-1
 453 699 l 2,20,21
 453 701 453 701 469.5 710.5 c 128,-1,22
 486 720 486 720 521.5 730.5 c 128,-1,23
 557 741 557 741 596 741 c 0,24,25
 810 741 810 741 935.5 617.5 c 128,-1,26
 1061 494 1061 494 1061 284 c 0,27,28
 1061 140 1061 140 993.5 32.5 c 128,-1,29
 926 -75 926 -75 806.5 -130.5 c 128,-1,30
 687 -186 687 -186 533 -182 c 0,31,32
 436 -179 436 -179 331.5 -153 c 128,-1,33
 227 -127 227 -127 141 -90 c 1,34,-1
 183 161 l 1,0,-1
EndSplineSet
EndChar

StartChar: six
Encoding: 54 54 25
Width: 1282
GlyphClass: 2
Flags: W
LayerCount: 2
Fore
SplineSet
441 457 m 1,0,1
 443 388 443 388 455.5 335 c 128,-1,2
 468 282 468 282 493.5 242 c 128,-1,3
 519 202 519 202 562 181 c 128,-1,4
 605 160 605 160 664 160 c 0,5,6
 708 160 708 160 741.5 174.5 c 128,-1,7
 775 189 775 189 796 213.5 c 128,-1,8
 817 238 817 238 830 274 c 128,-1,9
 843 310 843 310 848 348 c 128,-1,10
 853 386 853 386 853 433 c 0,11,12
 853 525 853 525 807 573 c 128,-1,13
 761 621 761 621 672 621 c 0,14,15
 541 621 541 621 441 526 c 1,16,-1
 441 457 l 1,0,1
1167 386 m 0,17,18
 1167 279 1167 279 1132.5 189.5 c 128,-1,19
 1098 100 1098 100 1034.5 36 c 128,-1,20
 971 -28 971 -28 876.5 -64 c 128,-1,21
 782 -100 782 -100 666 -100 c 0,22,23
 538 -100 538 -100 432.5 -56 c 128,-1,24
 327 -12 327 -12 258.5 63.5 c 128,-1,25
 190 139 190 139 152.5 240 c 128,-1,26
 115 341 115 341 115 456 c 0,27,28
 115 606 115 606 155.5 736 c 128,-1,29
 196 866 196 866 266 964 c 128,-1,30
 336 1062 336 1062 434.5 1140.5 c 128,-1,31
 533 1219 533 1219 646 1271.5 c 128,-1,32
 759 1324 759 1324 889 1358 c 1,33,-1
 969 1094 l 1,34,35
 674 1034 674 1034 543 860 c 1,36,37
 615 874 615 874 679 874 c 0,38,39
 788 874 788 874 881 834 c 128,-1,40
 974 794 974 794 1036 726.5 c 128,-1,41
 1098 659 1098 659 1132.5 570.5 c 128,-1,42
 1167 482 1167 482 1167 386 c 0,17,18
EndSplineSet
EndChar

StartChar: seven
Encoding: 55 55 26
Width: 1282
GlyphClass: 2
Flags: W
LayerCount: 2
Fore
SplineSet
1001 1169 m 1,0,-1
 1083 989 l 1,1,-1
 495 -236 l 1,2,-1
 198 -104 l 1,3,-1
 686 911 l 1,4,-1
 123 911 l 1,5,-1
 123 1169 l 1,6,-1
 1001 1169 l 1,0,-1
EndSplineSet
EndChar

StartChar: eight
Encoding: 56 56 27
Width: 1282
GlyphClass: 2
Flags: W
LayerCount: 2
Fore
SplineSet
1114 936 m 0,0,1
 1114 813 1114 813 1040 724 c 128,-1,2
 966 635 966 635 851 612 c 1,3,4
 907 604 907 604 959 575.5 c 128,-1,5
 1011 547 1011 547 1051.5 504 c 128,-1,6
 1092 461 1092 461 1116.5 401 c 128,-1,7
 1141 341 1141 341 1141 275 c 0,8,9
 1141 191 1141 191 1113 123 c 128,-1,10
 1085 55 1085 55 1036.5 9 c 128,-1,11
 988 -37 988 -37 921.5 -68 c 128,-1,12
 855 -99 855 -99 781.5 -113 c 128,-1,13
 708 -127 708 -127 627 -127 c 128,-1,14
 546 -127 546 -127 472.5 -113 c 128,-1,15
 399 -99 399 -99 333 -68 c 128,-1,16
 267 -37 267 -37 218.5 9 c 128,-1,17
 170 55 170 55 141.5 123 c 128,-1,18
 113 191 113 191 113 275 c 0,19,20
 113 341 113 341 137.5 401 c 128,-1,21
 162 461 162 461 203 504 c 128,-1,22
 244 547 244 547 296 575.5 c 128,-1,23
 348 604 348 604 403 612 c 1,24,25
 289 635 289 635 214.5 724 c 128,-1,26
 140 813 140 813 140 936 c 0,27,28
 140 1029 140 1029 178 1103.5 c 128,-1,29
 216 1178 216 1178 282.5 1225.5 c 128,-1,30
 349 1273 349 1273 437 1298 c 128,-1,31
 525 1323 525 1323 627.5 1323 c 128,-1,32
 730 1323 730 1323 817.5 1298 c 128,-1,33
 905 1273 905 1273 971.5 1225.5 c 128,-1,34
 1038 1178 1038 1178 1076 1103.5 c 128,-1,35
 1114 1029 1114 1029 1114 936 c 0,0,1
819 297 m 0,36,37
 819 394 819 394 770 452 c 128,-1,38
 721 510 721 510 627 510 c 128,-1,39
 533 510 533 510 484 452 c 128,-1,40
 435 394 435 394 435 297 c 1,41,42
 436 209 436 209 483 173 c 128,-1,43
 530 137 530 137 627.5 137 c 128,-1,44
 725 137 725 137 772 173 c 128,-1,45
 819 209 819 209 819 297 c 0,36,37
801 922 m 0,46,47
 801 1069 801 1069 627 1069 c 128,-1,48
 453 1069 453 1069 453 922 c 1,49,50
 454 834 454 834 496.5 794 c 128,-1,51
 539 754 539 754 627 754 c 128,-1,52
 715 754 715 754 758 794 c 128,-1,53
 801 834 801 834 801 922 c 0,46,47
EndSplineSet
EndChar

StartChar: nine
Encoding: 57 57 28
Width: 1282
GlyphClass: 2
Flags: W
LayerCount: 2
Fore
SplineSet
409 684 m 0,0,1
 408 599 408 599 455 546 c 128,-1,2
 502 493 502 493 579 493 c 0,3,4
 614 493 614 493 672.5 497.5 c 128,-1,5
 731 502 731 502 772 506 c 2,6,-1
 812 510 l 1,7,-1
 827 648 l 1,8,9
 826 712 826 712 813.5 761.5 c 128,-1,10
 801 811 801 811 775 849 c 128,-1,11
 749 887 749 887 706 907.5 c 128,-1,12
 663 928 663 928 604 928 c 256,13,14
 545 928 545 928 506 912.5 c 128,-1,15
 467 897 467 897 446.5 863.5 c 128,-1,16
 426 830 426 830 418 788.5 c 128,-1,17
 410 747 410 747 409 684 c 0,0,1
583 245 m 0,18,19
 363 245 363 245 228.5 365.5 c 128,-1,20
 94 486 94 486 94 698 c 0,21,22
 94 841 94 841 154.5 952.5 c 128,-1,23
 215 1064 215 1064 326 1126 c 128,-1,24
 437 1188 437 1188 582 1188 c 0,25,26
 851 1188 851 1188 999.5 1041.5 c 128,-1,27
 1148 895 1148 895 1148 633 c 0,28,29
 1148 480 1148 480 1099 343 c 128,-1,30
 1050 206 1050 206 971 106 c 128,-1,31
 892 6 892 6 789 -73.5 c 128,-1,32
 686 -153 686 -153 581 -200 c 128,-1,33
 476 -247 476 -247 372 -270 c 1,34,-1
 294 -4 l 1,35,36
 445 27 445 27 554.5 98.5 c 128,-1,37
 664 170 664 170 725 263 c 1,38,39
 658 245 658 245 583 245 c 0,18,19
EndSplineSet
EndChar

StartChar: colon
Encoding: 58 58 29
Width: 737
GlyphClass: 2
Flags: W
LayerCount: 2
Fore
SplineSet
207 736 m 1,0,-1
 207 1168 l 1,1,-1
 625 1168 l 1,2,-1
 625 736 l 1,3,-1
 207 736 l 1,0,-1
207 0 m 1,4,-1
 207 432 l 1,5,-1
 625 432 l 1,6,-1
 625 0 l 1,7,-1
 207 0 l 1,4,-1
EndSplineSet
EndChar

StartChar: semicolon
Encoding: 59 59 30
Width: 737
GlyphClass: 2
Flags: W
LayerCount: 2
Fore
SplineSet
119 0 m 1,0,-1
 119 415 l 1,1,-1
 537 415 l 1,2,-1
 537 53 l 2,3,4
 537 -14 537 -14 516.5 -68.5 c 128,-1,5
 496 -123 496 -123 465 -158.5 c 128,-1,6
 434 -194 434 -194 384 -224 c 128,-1,7
 334 -254 334 -254 288.5 -271.5 c 128,-1,8
 243 -289 243 -289 182 -307 c 1,9,-1
 120 -193 l 1,10,11
 215 -159 215 -159 256 -117 c 128,-1,12
 297 -75 297 -75 297 0 c 1,13,-1
 119 0 l 1,0,-1
117 736 m 1,14,-1
 117 1168 l 1,15,-1
 535 1168 l 1,16,-1
 535 736 l 1,17,-1
 117 736 l 1,14,-1
EndSplineSet
EndChar

StartChar: less
Encoding: 60 60 31
Width: 1544
GlyphClass: 2
Flags: W
LayerCount: 2
Fore
SplineSet
195 476 m 1,0,-1
 195 712 l 1,1,-1
 1035 1225 l 1,2,-1
 1036 924 l 1,3,-1
 490 594 l 1,4,-1
 1036 264 l 1,5,-1
 1035 -37 l 1,6,-1
 195 476 l 1,0,-1
EndSplineSet
EndChar

StartChar: equal
Encoding: 61 61 32
Width: 1544
GlyphClass: 2
Flags: W
LayerCount: 2
Fore
SplineSet
1191 644 m 1,0,-1
 195 644 l 1,1,-1
 195 877 l 1,2,-1
 1191 877 l 1,3,-1
 1191 644 l 1,0,-1
1191 269 m 1,4,-1
 195 269 l 1,5,-1
 195 502 l 1,6,-1
 1191 502 l 1,7,-1
 1191 269 l 1,4,-1
EndSplineSet
EndChar

StartChar: greater
Encoding: 62 62 33
Width: 1544
GlyphClass: 2
Flags: W
LayerCount: 2
Fore
SplineSet
1036 476 m 1,0,-1
 196 -37 l 1,1,-1
 195 264 l 1,2,-1
 733 594 l 1,3,-1
 195 924 l 1,4,-1
 196 1225 l 1,5,-1
 1036 712 l 1,6,-1
 1036 476 l 1,0,-1
EndSplineSet
EndChar

StartChar: question
Encoding: 63 63 34
Width: 1069
GlyphClass: 2
Flags: W
LayerCount: 2
Fore
SplineSet
795 1132 m 0,0,1
 795 1172 795 1172 781.5 1200 c 128,-1,2
 768 1228 768 1228 747.5 1244 c 128,-1,3
 727 1260 727 1260 692 1268.5 c 128,-1,4
 657 1277 657 1277 625 1279.5 c 128,-1,5
 593 1282 593 1282 545 1282 c 0,6,7
 491 1282 491 1282 407 1264 c 128,-1,8
 323 1246 323 1246 265.5 1228.5 c 128,-1,9
 208 1211 208 1211 208 1210 c 2,10,-1
 127 1463 l 1,11,12
 182 1491 182 1491 221 1504 c 0,13,14
 374 1555 374 1555 575 1555 c 0,15,16
 693 1555 693 1555 790.5 1534 c 128,-1,17
 888 1513 888 1513 966.5 1468.5 c 128,-1,18
 1045 1424 1045 1424 1089 1347 c 128,-1,19
 1133 1270 1133 1270 1133 1165 c 0,20,21
 1133 1139 1133 1139 1131 1115 c 128,-1,22
 1129 1091 1129 1091 1118.5 1049.5 c 128,-1,23
 1108 1008 1108 1008 1089.5 972 c 128,-1,24
 1071 936 1071 936 1035 891.5 c 128,-1,25
 999 847 999 847 950.5 810 c 128,-1,26
 902 773 902 773 825.5 737 c 128,-1,27
 749 701 749 701 655 674 c 1,28,-1
 655 420 l 1,29,-1
 334 420 l 1,30,-1
 334 829 l 1,31,32
 362 840 362 840 406 854 c 2,33,-1
 484 880 l 2,34,35
 518 891 518 891 560.5 907.5 c 128,-1,36
 603 924 603 924 634.5 939 c 128,-1,37
 666 954 666 954 697.5 975 c 128,-1,38
 729 996 729 996 749.5 1018.5 c 128,-1,39
 770 1041 770 1041 782.5 1070 c 128,-1,40
 795 1099 795 1099 795 1132 c 0,0,1
375 -13 m 0,41,42
 322 42 322 42 322 125 c 128,-1,43
 322 208 322 208 375.5 263.5 c 128,-1,44
 429 319 429 319 511 319 c 128,-1,45
 593 319 593 319 646.5 263.5 c 128,-1,46
 700 208 700 208 700 125 c 128,-1,47
 700 42 700 42 646.5 -13.5 c 128,-1,48
 593 -69 593 -69 511 -69 c 128,-1,49
 429 -69 429 -69 375 -13 c 0,41,42
EndSplineSet
EndChar

StartChar: at
Encoding: 64 64 35
Width: 1843
GlyphClass: 2
Flags: W
LayerCount: 2
Fore
SplineSet
1049 987 m 0,0,1
 921 987 921 987 846.5 902 c 128,-1,2
 772 817 772 817 772 635 c 0,3,4
 772 562 772 562 809 507.5 c 128,-1,5
 846 453 846 453 907 453 c 0,6,7
 952 453 952 453 991 470.5 c 128,-1,8
 1030 488 1030 488 1058.5 515 c 128,-1,9
 1087 542 1087 542 1111.5 585.5 c 128,-1,10
 1136 629 1136 629 1152.5 670.5 c 128,-1,11
 1169 712 1169 712 1183.5 768.5 c 128,-1,12
 1198 825 1198 825 1206.5 868 c 128,-1,13
 1215 911 1215 911 1225 968 c 0,14,15
 1226 969 1226 969 1199 973.5 c 128,-1,16
 1172 978 1172 978 1128 982.5 c 128,-1,17
 1084 987 1084 987 1049 987 c 0,0,1
966 -133 m 0,18,19
 778 -134 778 -134 620.5 -78.5 c 128,-1,20
 463 -23 463 -23 353.5 78.5 c 128,-1,21
 244 180 244 180 183.5 324.5 c 128,-1,22
 123 469 123 469 123 642 c 0,23,24
 123 781 123 781 159.5 910.5 c 128,-1,25
 196 1040 196 1040 273 1153.5 c 128,-1,26
 350 1267 350 1267 458.5 1351 c 128,-1,27
 567 1435 567 1435 719.5 1483.5 c 128,-1,28
 872 1532 872 1532 1052 1532 c 0,29,30
 1212 1532 1212 1532 1357.5 1482.5 c 128,-1,31
 1503 1433 1503 1433 1615.5 1342 c 128,-1,32
 1728 1251 1728 1251 1795 1110 c 128,-1,33
 1862 969 1862 969 1862 800 c 0,34,35
 1862 688 1862 688 1829.5 588.5 c 128,-1,36
 1797 489 1797 489 1737.5 414.5 c 128,-1,37
 1678 340 1678 340 1618.5 305.5 c 128,-1,38
 1559 271 1559 271 1382 271 c 0,39,40
 1298 271 1298 271 1254.5 325.5 c 128,-1,41
 1211 380 1211 380 1211 475 c 0,42,43
 1211 500 1211 500 1214 527 c 1,44,45
 1179 428 1179 428 1140 371.5 c 128,-1,46
 1101 315 1101 315 1043 286 c 128,-1,47
 985 257 985 257 899 257 c 0,48,49
 851 257 851 257 805.5 267.5 c 128,-1,50
 760 278 760 278 711.5 306 c 128,-1,51
 663 334 663 334 627 378 c 128,-1,52
 591 422 591 422 559 492.5 c 128,-1,53
 527 563 527 563 527 659 c 0,54,55
 527 783 527 783 576.5 879 c 128,-1,56
 626 975 626 975 695 1037 c 128,-1,57
 764 1099 764 1099 853.5 1132 c 128,-1,58
 943 1165 943 1165 1044 1165 c 0,59,60
 1116 1165 1116 1165 1183.5 1152 c 128,-1,61
 1251 1139 1251 1139 1306.5 1114.5 c 128,-1,62
 1362 1090 1362 1090 1395.5 1049.5 c 128,-1,63
 1429 1009 1429 1009 1429 958 c 0,64,65
 1429 942 1429 942 1427 931 c 2,66,-1
 1346 466 l 1,67,68
 1477 488 1477 488 1535.5 561.5 c 128,-1,69
 1594 635 1594 635 1594 758 c 0,70,71
 1594 1023 1594 1023 1446 1157.5 c 128,-1,72
 1298 1292 1298 1292 1027 1292 c 0,73,74
 745 1292 745 1292 574.5 1110.5 c 128,-1,75
 404 929 404 929 404 642 c 0,76,77
 404 371 404 371 563.5 233 c 128,-1,78
 723 95 723 95 1007 95 c 0,79,80
 1133 95 1133 95 1271 150 c 1,81,-1
 1325 -58 l 1,82,83
 1262 -95 1262 -95 1166.5 -114 c 128,-1,84
 1071 -133 1071 -133 966 -133 c 0,18,19
EndSplineSet
EndChar

StartChar: A
Encoding: 65 65 36
Width: 1462
GlyphClass: 2
Flags: W
LayerCount: 2
Fore
SplineSet
737 1137 m 1,0,-1
 535 520 l 1,1,-1
 927 520 l 1,2,-1
 737 1137 l 1,0,-1
528 1578 m 1,3,-1
 934 1578 l 1,4,-1
 1454 0 l 1,5,-1
 1085 0 l 1,6,-1
 974 350 l 1,7,-1
 488 350 l 1,8,-1
 377 0 l 1,9,-1
 8 0 l 1,10,-1
 528 1578 l 1,3,-1
EndSplineSet
EndChar

StartChar: B
Encoding: 66 66 37
Width: 1520
GlyphClass: 2
Flags: W
LayerCount: 2
Fore
SplineSet
539 1323 m 1,0,-1
 539 928 l 1,1,-1
 678 928 l 2,2,3
 1008 928 1008 928 1008 1135 c 0,4,5
 1008 1226 1008 1226 963 1265 c 0,6,7
 897 1323 897 1323 680 1323 c 2,8,-1
 539 1323 l 1,0,-1
658 254 m 2,9,10
 824 254 824 254 861 264 c 128,-1,11
 898 274 898 274 926 284 c 128,-1,12
 954 294 954 294 970 310 c 128,-1,13
 986 326 986 326 1000 348 c 0,14,15
 1027 388 1027 388 1027 465 c 128,-1,16
 1027 542 1027 542 1004 589.5 c 128,-1,17
 981 637 981 637 932 662 c 0,18,19
 849 703 849 703 676 703 c 2,20,-1
 539 703 l 1,21,-1
 539 254 l 1,22,-1
 658 254 l 2,9,10
588 1578 m 2,23,24
 860 1578 860 1578 993 1541.5 c 128,-1,25
 1126 1505 1126 1505 1190 1460 c 0,26,27
 1334 1360 1334 1360 1334 1160 c 0,28,29
 1334 1026 1334 1026 1237 936.5 c 128,-1,30
 1140 847 1140 847 992 832 c 1,31,32
 1283 788 1283 788 1360 625 c 0,33,34
 1391 559 1391 559 1391 461.5 c 128,-1,35
 1391 364 1391 364 1359 283 c 128,-1,36
 1327 202 1327 202 1270 149 c 128,-1,37
 1213 96 1213 96 1126 62 c 0,38,39
 969 0 969 0 708 0 c 2,40,-1
 170 0 l 1,41,-1
 170 1578 l 1,42,-1
 588 1578 l 2,23,24
EndSplineSet
EndChar

StartChar: C
Encoding: 67 67 38
Width: 1376
GlyphClass: 2
Flags: W
LayerCount: 2
Fore
SplineSet
459 782 m 0,0,1
 459 239 459 239 819 239 c 0,2,3
 1000 239 1000 239 1159 348 c 1,4,-1
 1259 88 l 1,5,6
 1173 16 1173 16 958 -16 c 0,7,8
 875 -29 875 -29 785 -29 c 0,9,10
 461 -29 461 -29 276.5 184.5 c 128,-1,11
 92 398 92 398 92 791.5 c 128,-1,12
 92 1185 92 1185 273 1393.5 c 128,-1,13
 454 1602 454 1602 785 1602 c 0,14,15
 1005 1602 1005 1602 1184 1528 c 0,16,17
 1223 1511 1223 1511 1241 1499 c 2,18,-1
 1259 1487 l 1,19,-1
 1159 1227 l 1,20,-1
 1141 1240 l 1,21,-1
 1118 1255 l 2,22,23
 992 1336 992 1336 811.5 1336 c 128,-1,24
 631 1336 631 1336 545 1204 c 128,-1,25
 459 1072 459 1072 459 782 c 0,0,1
EndSplineSet
EndChar

StartChar: D
Encoding: 68 68 39
Width: 1565
GlyphClass: 2
Flags: W
LayerCount: 2
Fore
SplineSet
1095 650 m 0,0,1
 1099 708 1099 708 1099 785 c 128,-1,2
 1099 862 1099 862 1095 919.5 c 128,-1,3
 1091 977 1091 977 1078.5 1036.5 c 128,-1,4
 1066 1096 1066 1096 1045 1138 c 1,5,6
 993 1236 993 1236 893.5 1281 c 128,-1,7
 794 1326 794 1326 622 1326 c 2,8,-1
 539 1326 l 1,9,-1
 539 254 l 1,10,-1
 622 254 l 2,11,12
 881 254 881 254 980 354.5 c 128,-1,13
 1079 455 1079 455 1095 650 c 0,0,1
1469 782 m 0,14,15
 1469 403 1469 403 1271.5 201.5 c 128,-1,16
 1074 0 1074 0 661 0 c 2,17,-1
 170 0 l 1,18,-1
 170 1578 l 1,19,-1
 661 1578 l 2,20,21
 1469 1578 1469 1578 1469 782 c 0,14,15
EndSplineSet
EndChar

StartChar: E
Encoding: 69 69 40
Width: 1385
GlyphClass: 2
Flags: W
LayerCount: 2
Fore
SplineSet
1250 0 m 1,0,-1
 170 0 l 1,1,-1
 170 1578 l 1,2,-1
 1240 1578 l 1,3,-1
 1240 1309 l 1,4,-1
 538 1309 l 1,5,-1
 538 929 l 1,6,-1
 1150 929 l 1,7,-1
 1150 703 l 1,8,-1
 538 703 l 1,9,-1
 538 266 l 1,10,-1
 1250 266 l 1,11,-1
 1250 0 l 1,0,-1
EndSplineSet
EndChar

StartChar: F
Encoding: 70 70 41
Width: 1355
GlyphClass: 2
Flags: W
LayerCount: 2
Fore
SplineSet
538 702 m 1,0,-1
 538 0 l 1,1,-1
 170 0 l 1,2,-1
 170 1578 l 1,3,-1
 1200 1578 l 1,4,-1
 1200 1309 l 1,5,-1
 538 1309 l 1,6,-1
 538 928 l 1,7,-1
 1174 928 l 1,8,-1
 1174 702 l 1,9,-1
 538 702 l 1,0,-1
EndSplineSet
EndChar

StartChar: G
Encoding: 71 71 42
Width: 1553
GlyphClass: 2
Flags: W
LayerCount: 2
Fore
SplineSet
1095 304 m 1,0,-1
 1095 655 l 1,1,-1
 737 655 l 1,2,-1
 737 879 l 1,3,-1
 1418 879 l 1,4,-1
 1418 0 l 1,5,-1
 1181 0 l 1,6,-1
 1133 126 l 1,7,8
 1093 50 1093 50 993 6.5 c 128,-1,9
 893 -37 893 -37 765 -37 c 0,10,11
 452 -37 452 -37 272 169 c 128,-1,12
 92 375 92 375 92 770 c 0,13,14
 92 1158 92 1158 292 1378.5 c 128,-1,15
 492 1599 492 1599 862 1599 c 0,16,17
 957 1599 957 1599 1040.5 1586.5 c 128,-1,18
 1124 1574 1124 1574 1176 1556 c 128,-1,19
 1228 1538 1228 1538 1265.5 1520 c 128,-1,20
 1303 1502 1303 1502 1319 1490 c 1,21,-1
 1336 1479 l 1,22,-1
 1229 1233 l 1,23,24
 1207 1244 1207 1244 1169.5 1261 c 128,-1,25
 1132 1278 1132 1278 1036.5 1306.5 c 128,-1,26
 941 1335 941 1335 870 1335 c 0,27,28
 675 1335 675 1335 568 1191 c 128,-1,29
 461 1047 461 1047 461 768 c 0,30,31
 461 614 461 614 496 497.5 c 128,-1,32
 531 381 531 381 607.5 310.5 c 128,-1,33
 684 240 684 240 795 240 c 0,34,35
 975 240 975 240 1095 304 c 1,0,-1
EndSplineSet
EndChar

StartChar: H
Encoding: 72 72 43
Width: 1636
GlyphClass: 2
Flags: W
LayerCount: 2
Fore
SplineSet
1097 0 m 1,0,-1
 1097 704 l 1,1,-1
 539 704 l 1,2,-1
 539 0 l 1,3,-1
 170 0 l 1,4,-1
 170 1578 l 1,5,-1
 539 1578 l 1,6,-1
 539 930 l 1,7,-1
 1097 930 l 1,8,-1
 1097 1578 l 1,9,-1
 1466 1578 l 1,10,-1
 1466 0 l 1,11,-1
 1097 0 l 1,0,-1
EndSplineSet
EndChar

StartChar: I
Encoding: 73 73 44
Width: 1050
GlyphClass: 2
Flags: W
LayerCount: 2
Fore
SplineSet
170 170 m 1,0,-1
 340 170 l 1,1,-1
 340 1407 l 1,2,-1
 170 1407 l 1,3,-1
 170 1578 l 1,4,-1
 880 1578 l 1,5,-1
 880 1407 l 1,6,-1
 709 1407 l 1,7,-1
 709 170 l 1,8,-1
 880 170 l 1,9,-1
 880 0 l 1,10,-1
 170 0 l 1,11,-1
 170 170 l 1,0,-1
EndSplineSet
EndChar

StartChar: J
Encoding: 74 74 45
Width: 760
GlyphClass: 2
Flags: W
LayerCount: 2
Fore
SplineSet
-102 -35 m 1,0,1
 20 -21 20 -21 86.5 13.5 c 128,-1,2
 153 48 153 48 184 119.5 c 128,-1,3
 215 191 215 191 215 317 c 2,4,-1
 215 1578 l 1,5,-1
 584 1578 l 1,6,-1
 584 350 l 1,7,8
 592 25 592 25 449.5 -121.5 c 128,-1,9
 307 -268 307 -268 -8 -275 c 1,10,-1
 -102 -35 l 1,0,1
EndSplineSet
EndChar

StartChar: K
Encoding: 75 75 46
Width: 1444
GlyphClass: 2
Flags: W
LayerCount: 2
Fore
SplineSet
539 676 m 1,0,-1
 539 0 l 1,1,-1
 170 0 l 1,2,-1
 170 1578 l 1,3,-1
 539 1578 l 1,4,-1
 539 901 l 1,5,-1
 621 901 l 1,6,-1
 1069 1578 l 1,7,-1
 1445 1578 l 1,8,-1
 912 797 l 1,9,-1
 1500 0 l 1,10,-1
 1115 0 l 1,11,-1
 613 676 l 1,12,-1
 539 676 l 1,0,-1
EndSplineSet
EndChar

StartChar: L
Encoding: 76 76 47
Width: 1271
GlyphClass: 2
Flags: W
LayerCount: 2
Fore
SplineSet
1221 0 m 1,0,-1
 170 0 l 1,1,-1
 170 1578 l 1,2,-1
 538 1578 l 1,3,-1
 538 253 l 1,4,-1
 1221 253 l 1,5,-1
 1221 0 l 1,0,-1
EndSplineSet
EndChar

StartChar: M
Encoding: 77 77 48
Width: 2009
GlyphClass: 2
Flags: W
LayerCount: 2
Fore
SplineSet
834 0 m 1,0,-1
 476 1085 l 1,1,-1
 476 0 l 1,2,-1
 170 0 l 1,3,-1
 170 1578 l 1,4,-1
 605 1578 l 1,5,-1
 997 408 l 1,6,-1
 1403 1578 l 1,7,-1
 1839 1578 l 1,8,-1
 1839 0 l 1,9,-1
 1533 0 l 1,10,-1
 1533 1085 l 1,11,-1
 1178 0 l 1,12,-1
 834 0 l 1,0,-1
EndSplineSet
EndChar

StartChar: N
Encoding: 78 78 49
Width: 1672
GlyphClass: 2
Flags: W
LayerCount: 2
Fore
SplineSet
1502 0 m 1,0,-1
 1121 0 l 1,1,-1
 499 1074 l 1,2,-1
 499 0 l 1,3,-1
 170 0 l 1,4,-1
 170 1578 l 1,5,-1
 564 1578 l 1,6,-1
 1175 519 l 1,7,-1
 1175 1578 l 1,8,-1
 1502 1578 l 1,9,-1
 1502 0 l 1,0,-1
EndSplineSet
EndChar

StartChar: O
Encoding: 79 79 50
Width: 1604
GlyphClass: 2
Flags: W
LayerCount: 2
Fore
SplineSet
1512 789 m 0,0,1
 1512 599 1512 599 1469.5 449.5 c 128,-1,2
 1427 300 1427 300 1341 193 c 128,-1,3
 1255 86 1255 86 1119 29 c 128,-1,4
 983 -28 983 -28 802 -28 c 128,-1,5
 621 -28 621 -28 485 29 c 128,-1,6
 349 86 349 86 263 193 c 128,-1,7
 177 300 177 300 134.5 449.5 c 128,-1,8
 92 599 92 599 92 789 c 0,9,10
 92 1176 92 1176 268.5 1390.5 c 128,-1,11
 445 1605 445 1605 802 1605 c 128,-1,12
 1159 1605 1159 1605 1335.5 1390.5 c 128,-1,13
 1512 1176 1512 1176 1512 789 c 0,0,1
461 789 m 256,14,15
 461 692 461 692 470.5 613.5 c 128,-1,16
 480 535 480 535 503.5 463.5 c 128,-1,17
 527 392 527 392 565 343.5 c 128,-1,18
 603 295 603 295 663 266.5 c 128,-1,19
 723 238 723 238 802 238 c 128,-1,20
 881 238 881 238 941 266.5 c 128,-1,21
 1001 295 1001 295 1039 343.5 c 128,-1,22
 1077 392 1077 392 1100.5 463.5 c 128,-1,23
 1124 535 1124 535 1133.5 613.5 c 128,-1,24
 1143 692 1143 692 1143 789 c 256,25,26
 1143 886 1143 886 1133.5 964.5 c 128,-1,27
 1124 1043 1124 1043 1100.5 1114.5 c 128,-1,28
 1077 1186 1077 1186 1039 1234 c 128,-1,29
 1001 1282 1001 1282 941 1310.5 c 128,-1,30
 881 1339 881 1339 802 1339 c 128,-1,31
 723 1339 723 1339 663 1310.5 c 128,-1,32
 603 1282 603 1282 565 1234 c 128,-1,33
 527 1186 527 1186 503.5 1114.5 c 128,-1,34
 480 1043 480 1043 470.5 964.5 c 128,-1,35
 461 886 461 886 461 789 c 256,14,15
EndSplineSet
EndChar

StartChar: P
Encoding: 80 80 51
Width: 1446
GlyphClass: 2
Flags: W
LayerCount: 2
Fore
SplineSet
599 772 m 2,0,1
 672 772 672 772 730.5 780 c 128,-1,2
 789 788 789 788 841 807.5 c 128,-1,3
 893 827 893 827 928 857.5 c 128,-1,4
 963 888 963 888 983 936 c 128,-1,5
 1003 984 1003 984 1003 1048 c 0,6,7
 1003 1135 1003 1135 978 1195.5 c 128,-1,8
 953 1256 953 1256 903 1290.5 c 128,-1,9
 853 1325 853 1325 787 1339.5 c 128,-1,10
 721 1354 721 1354 629 1354 c 2,11,-1
 539 1354 l 1,12,-1
 539 772 l 1,13,-1
 599 772 l 2,0,1
1371 1052 m 0,14,15
 1371 934 1371 934 1334.5 846 c 128,-1,16
 1298 758 1298 758 1233.5 702.5 c 128,-1,17
 1169 647 1169 647 1070 613 c 128,-1,18
 971 579 971 579 859 565.5 c 128,-1,19
 747 552 747 552 601 552 c 2,20,-1
 539 552 l 1,21,-1
 539 0 l 1,22,-1
 170 0 l 1,23,-1
 170 1578 l 1,24,-1
 629 1578 l 2,25,26
 768 1578 768 1578 876 1563.5 c 128,-1,27
 984 1549 984 1549 1079.5 1513 c 128,-1,28
 1175 1477 1175 1477 1237.5 1418.5 c 128,-1,29
 1300 1360 1300 1360 1335.5 1267.5 c 128,-1,30
 1371 1175 1371 1175 1371 1052 c 0,14,15
EndSplineSet
EndChar

StartChar: Q
Encoding: 81 81 52
Width: 1604
GlyphClass: 2
Flags: W
LayerCount: 2
Fore
SplineSet
940 1310 m 1,0,1
 881 1339 881 1339 802 1339 c 128,-1,2
 723 1339 723 1339 663.5 1310.5 c 128,-1,3
 604 1282 604 1282 566 1234 c 128,-1,4
 528 1186 528 1186 504 1114.5 c 128,-1,5
 480 1043 480 1043 470.5 964.5 c 128,-1,6
 461 886 461 886 461 789 c 128,-1,7
 461 692 461 692 470.5 613.5 c 128,-1,8
 480 535 480 535 504 463.5 c 128,-1,9
 528 392 528 392 565.5 343.5 c 128,-1,10
 603 295 603 295 663 266.5 c 128,-1,11
 723 238 723 238 802 238 c 128,-1,12
 881 238 881 238 941 266.5 c 128,-1,13
 1001 295 1001 295 1038.5 343.5 c 128,-1,14
 1076 392 1076 392 1100 463.5 c 128,-1,15
 1124 535 1124 535 1133.5 613.5 c 128,-1,16
 1143 692 1143 692 1143 789 c 128,-1,17
 1143 886 1143 886 1133.5 964.5 c 128,-1,18
 1124 1043 1124 1043 1100 1114.5 c 128,-1,19
 1076 1186 1076 1186 1038 1234 c 128,-1,20
 1000 1282 1000 1282 940 1310 c 1,0,1
1512 789 m 0,21,22
 1512 570 1512 570 1456.5 406 c 128,-1,23
 1401 242 1401 242 1283.5 134 c 128,-1,24
 1166 26 1166 26 990 -10 c 1,25,-1
 1278 -234 l 1,26,-1
 1104 -420 l 1,27,-1
 648 -16 l 1,28,29
 507 6 507 6 400.5 72 c 128,-1,30
 294 138 294 138 226.5 242.5 c 128,-1,31
 159 347 159 347 125.5 483.5 c 128,-1,32
 92 620 92 620 92 789 c 0,33,34
 92 1176 92 1176 268.5 1390.5 c 128,-1,35
 445 1605 445 1605 802 1605 c 128,-1,36
 1159 1605 1159 1605 1335.5 1390.5 c 128,-1,37
 1512 1176 1512 1176 1512 789 c 0,21,22
EndSplineSet
EndChar

StartChar: R
Encoding: 82 82 53
Width: 1484
GlyphClass: 2
Flags: W
LayerCount: 2
Fore
SplineSet
916 786 m 1,0,1
 1025 775 1025 775 1116.5 751 c 128,-1,2
 1208 727 1208 727 1276 682 c 128,-1,3
 1344 637 1344 637 1379.5 561.5 c 128,-1,4
 1415 486 1415 486 1415 382 c 2,5,-1
 1415 0 l 1,6,-1
 1050 0 l 1,7,-1
 1050 407 l 2,8,9
 1050 487 1050 487 1024.5 541 c 128,-1,10
 999 595 999 595 947.5 624 c 128,-1,11
 896 653 896 653 832 664.5 c 128,-1,12
 768 676 768 676 677 676 c 2,13,-1
 539 676 l 1,14,-1
 539 0 l 1,15,-1
 170 0 l 1,16,-1
 170 1578 l 1,17,-1
 589 1578 l 2,18,19
 776 1578 776 1578 912.5 1561 c 128,-1,20
 1049 1544 1049 1544 1139.5 1512.5 c 128,-1,21
 1230 1481 1230 1481 1284 1430 c 128,-1,22
 1338 1379 1338 1379 1360.5 1317.5 c 128,-1,23
 1383 1256 1383 1256 1383 1173 c 0,24,25
 1383 1091 1383 1091 1360.5 1027.5 c 128,-1,26
 1338 964 1338 964 1297.5 921 c 128,-1,27
 1257 878 1257 878 1197.5 849 c 128,-1,28
 1138 820 1138 820 1069.5 805 c 128,-1,29
 1001 790 1001 790 916 786 c 1,0,1
582 899 m 2,30,31
 673 899 673 899 737.5 904.5 c 128,-1,32
 802 910 802 910 857 925 c 128,-1,33
 912 940 912 940 945 966 c 128,-1,34
 978 992 978 992 996.5 1033 c 128,-1,35
 1015 1074 1015 1074 1015 1130 c 0,36,37
 1015 1184 1015 1184 1001 1222 c 128,-1,38
 987 1260 987 1260 959 1286 c 128,-1,39
 931 1312 931 1312 882.5 1327 c 128,-1,40
 834 1342 834 1342 772.5 1348 c 128,-1,41
 711 1354 711 1354 624 1354 c 2,42,-1
 539 1354 l 1,43,-1
 539 899 l 1,44,-1
 582 899 l 2,30,31
EndSplineSet
EndChar

StartChar: S
Encoding: 83 83 54
Width: 1437
GlyphClass: 2
Flags: W
LayerCount: 2
Fore
SplineSet
1303 466 m 0,0,1
 1303 -41 1303 -41 719 -41 c 0,2,3
 632 -41 632 -41 543 -25 c 128,-1,4
 454 -9 454 -9 395.5 10 c 128,-1,5
 337 29 337 29 275.5 57.5 c 128,-1,6
 214 86 214 86 196 96 c 2,7,-1
 157 120 l 1,8,-1
 155 121 l 1,9,-1
 236 398 l 1,10,11
 247 391 247 391 266.5 380 c 128,-1,12
 286 369 286 369 343 341 c 128,-1,13
 400 313 400 313 453 292 c 128,-1,14
 506 271 506 271 573 253.5 c 128,-1,15
 640 236 640 236 690 237 c 0,16,17
 737 238 737 238 764.5 239 c 128,-1,18
 792 240 792 240 828 245 c 128,-1,19
 864 250 864 250 884.5 260 c 128,-1,20
 905 270 905 270 924.5 286.5 c 128,-1,21
 944 303 944 303 952.5 329 c 128,-1,22
 961 355 961 355 961 390 c 0,23,24
 961 454 961 454 930.5 498 c 128,-1,25
 900 542 900 542 821 574 c 2,26,-1
 397 748 l 2,27,28
 266 802 266 802 198.5 910 c 128,-1,29
 131 1018 131 1018 131 1159 c 0,30,31
 131 1249 131 1249 164.5 1324.5 c 128,-1,32
 198 1400 198 1400 254.5 1451.5 c 128,-1,33
 311 1503 311 1503 386.5 1539.5 c 128,-1,34
 462 1576 462 1576 544.5 1592.5 c 128,-1,35
 627 1609 627 1609 713 1609 c 0,36,37
 789 1609 789 1609 872.5 1594.5 c 128,-1,38
 956 1580 956 1580 1021 1560 c 128,-1,39
 1086 1540 1086 1540 1140.5 1520 c 128,-1,40
 1195 1500 1195 1500 1225 1486 c 2,41,-1
 1254 1472 l 1,42,-1
 1160 1194 l 1,43,44
 1152 1200 1152 1200 1138 1209 c 128,-1,45
 1124 1218 1124 1218 1079.5 1241.5 c 128,-1,46
 1035 1265 1035 1265 989.5 1283 c 128,-1,47
 944 1301 944 1301 878.5 1316 c 128,-1,48
 813 1331 813 1331 751 1331 c 0,49,50
 711 1331 711 1331 680.5 1329.5 c 128,-1,51
 650 1328 650 1328 615 1323 c 128,-1,52
 580 1318 580 1318 555 1308 c 128,-1,53
 530 1298 530 1298 508.5 1282.5 c 128,-1,54
 487 1267 487 1267 476.5 1243 c 128,-1,55
 466 1219 466 1219 466 1188 c 0,56,57
 466 1164 466 1164 472 1145.5 c 128,-1,58
 478 1127 478 1127 507 1101.5 c 128,-1,59
 536 1076 536 1076 588 1055 c 2,60,-1
 944 914 l 2,61,62
 1092 855 1092 855 1197.5 735 c 128,-1,63
 1303 615 1303 615 1303 466 c 0,0,1
EndSplineSet
EndChar

StartChar: T
Encoding: 84 84 55
Width: 1197
GlyphClass: 2
Flags: W
LayerCount: 2
Fore
SplineSet
1188 1324 m 1,0,-1
 786 1324 l 1,1,-1
 786 0 l 1,2,-1
 417 0 l 1,3,-1
 417 1324 l 1,4,-1
 8 1324 l 1,5,-1
 8 1578 l 1,6,-1
 1188 1578 l 1,7,-1
 1188 1324 l 1,0,-1
EndSplineSet
EndChar

StartChar: U
Encoding: 85 85 56
Width: 1675
GlyphClass: 2
Flags: W
LayerCount: 2
Fore
SplineSet
539 719 m 1,0,1
 542 536 542 536 553 483.5 c 128,-1,2
 564 431 564 431 575 395.5 c 128,-1,3
 586 360 586 360 601.5 337 c 128,-1,4
 617 314 617 314 639 292 c 128,-1,5
 661 270 661 270 690 257 c 0,6,7
 751 229 751 229 820 229 c 128,-1,8
 889 229 889 229 930 237.5 c 128,-1,9
 971 246 971 246 1001 265 c 128,-1,10
 1031 284 1031 284 1053.5 307 c 128,-1,11
 1076 330 1076 330 1090.5 366 c 128,-1,12
 1105 402 1105 402 1114.5 436.5 c 128,-1,13
 1124 471 1124 471 1128 521 c 0,14,15
 1136 604 1136 604 1136 719 c 2,16,-1
 1136 1578 l 1,17,-1
 1505 1578 l 1,18,-1
 1505 723 l 2,19,20
 1505 350 1505 350 1345.5 156.5 c 128,-1,21
 1186 -37 1186 -37 838 -37 c 0,22,23
 485 -37 485 -37 324 163 c 0,24,25
 170 355 170 355 170 723 c 2,26,-1
 170 1578 l 1,27,-1
 539 1578 l 1,28,-1
 539 719 l 1,0,1
EndSplineSet
EndChar

StartChar: V
Encoding: 86 86 57
Width: 1364
GlyphClass: 2
Flags: W
LayerCount: 2
Fore
SplineSet
352 1578 m 1,0,-1
 686 503 l 1,1,-1
 1008 1578 l 1,2,-1
 1356 1578 l 1,3,-1
 864 0 l 1,4,-1
 498 0 l 1,5,-1
 8 1578 l 1,6,-1
 352 1578 l 1,0,-1
EndSplineSet
EndChar

StartChar: W
Encoding: 87 87 58
Width: 2064
GlyphClass: 2
Flags: W
LayerCount: 2
Fore
SplineSet
836 1565 m 1,0,-1
 1229 1565 l 1,1,-1
 1436 448 l 1,2,-1
 1653 1578 l 1,3,-1
 2009 1578 l 1,4,-1
 1671 0 l 1,5,-1
 1266 0 l 1,6,-1
 1032 1205 l 1,7,-1
 799 0 l 1,8,-1
 393 0 l 1,9,-1
 55 1578 l 1,10,-1
 412 1578 l 1,11,-1
 629 448 l 1,12,-1
 836 1565 l 1,0,-1
EndSplineSet
EndChar

StartChar: X
Encoding: 88 88 59
Width: 1448
GlyphClass: 2
Flags: W
LayerCount: 2
Fore
SplineSet
724 1067 m 1,0,-1
 1030 1578 l 1,1,-1
 1413 1578 l 1,2,-1
 930 797 l 1,3,-1
 1413 0 l 1,4,-1
 1022 0 l 1,5,-1
 724 494 l 1,6,-1
 426 0 l 1,7,-1
 35 0 l 1,8,-1
 518 797 l 1,9,-1
 35 1578 l 1,10,-1
 418 1578 l 1,11,-1
 724 1067 l 1,0,-1
EndSplineSet
EndChar

StartChar: Y
Encoding: 89 89 60
Width: 1326
GlyphClass: 2
Flags: W
LayerCount: 2
Fore
SplineSet
660 905 m 1,0,-1
 970 1578 l 1,1,-1
 1344 1578 l 1,2,-1
 834 518 l 1,3,-1
 834 0 l 1,4,-1
 486 0 l 1,5,-1
 486 518 l 1,6,-1
 -18 1578 l 1,7,-1
 350 1578 l 1,8,-1
 660 905 l 1,0,-1
EndSplineSet
EndChar

StartChar: Z
Encoding: 90 90 61
Width: 1277
GlyphClass: 2
Flags: W
LayerCount: 2
Fore
SplineSet
1192 1578 m 1,0,-1
 1192 1354 l 1,1,-1
 497 296 l 1,2,-1
 1194 296 l 1,3,-1
 1194 0 l 1,4,-1
 84 0 l 1,5,-1
 84 251 l 1,6,-1
 786 1324 l 1,7,-1
 84 1324 l 1,8,-1
 84 1578 l 1,9,-1
 1192 1578 l 1,0,-1
EndSplineSet
EndChar

StartChar: bracketleft
Encoding: 91 91 62
Width: 842
GlyphClass: 2
Flags: W
LayerCount: 2
Fore
SplineSet
158 1578 m 1,0,-1
 908 1578 l 1,1,-1
 908 1316 l 1,2,-1
 490 1316 l 1,3,-1
 490 262 l 1,4,-1
 908 262 l 1,5,-1
 908 0 l 1,6,-1
 158 0 l 1,7,-1
 158 1578 l 1,0,-1
EndSplineSet
EndChar

StartChar: backslash
Encoding: 92 92 63
Width: 674
GlyphClass: 2
Flags: W
LayerCount: 2
Fore
SplineSet
321 1687 m 1,0,-1
 892 -36 l 1,1,-1
 572 -147 l 1,2,-1
 0 1578 l 1,3,-1
 321 1687 l 1,0,-1
EndSplineSet
EndChar

StartChar: bracketright
Encoding: 93 93 64
Width: 842
GlyphClass: 2
Flags: W
LayerCount: 2
Fore
SplineSet
125 1578 m 1,0,-1
 875 1578 l 1,1,-1
 875 0 l 1,2,-1
 125 0 l 1,3,-1
 125 262 l 1,4,-1
 541 262 l 1,5,-1
 541 1316 l 1,6,-1
 125 1316 l 1,7,-1
 125 1578 l 1,0,-1
EndSplineSet
EndChar

StartChar: asciicircum
Encoding: 94 94 65
Width: 1544
GlyphClass: 2
Flags: W
LayerCount: 2
Fore
SplineSet
444 1182 m 1,0,-1
 698 1182 l 1,1,-1
 956 563 l 1,2,-1
 682 563 l 1,3,-1
 570 947 l 1,4,-1
 458 563 l 1,5,-1
 186 563 l 1,6,-1
 444 1182 l 1,0,-1
EndSplineSet
EndChar

StartChar: underscore
Encoding: 95 95 66
Width: 922
GlyphClass: 2
Flags: W
LayerCount: 2
Fore
SplineSet
996 -98 m 1,0,-1
 0 -98 l 1,1,-1
 0 164 l 1,2,-1
 996 164 l 1,3,-1
 996 -98 l 1,0,-1
EndSplineSet
EndChar

StartChar: grave
Encoding: 96 96 67
Width: 922
GlyphClass: 2
Flags: W
LayerCount: 2
Fore
SplineSet
444 1321 m 1,0,-1
 86 1863 l 1,1,-1
 398 2008 l 1,2,-1
 601 1395 l 1,3,-1
 444 1321 l 1,0,-1
EndSplineSet
EndChar

StartChar: a
Encoding: 97 97 68
Width: 1257
GlyphClass: 2
Flags: W
LayerCount: 2
Fore
SplineSet
578 217 m 0,0,1
 688 217 688 217 765 310 c 1,2,-1
 765 539 l 1,3,4
 767 541 767 541 726.5 544 c 128,-1,5
 686 547 686 547 669 547 c 0,6,7
 540 547 540 547 485 511 c 128,-1,8
 430 475 430 475 430 390 c 128,-1,9
 430 305 430 305 469 261 c 128,-1,10
 508 217 508 217 578 217 c 0,0,1
610 954 m 0,11,12
 409 954 409 954 237 873 c 1,13,-1
 154 1082 l 1,14,15
 338 1196 338 1196 622 1196 c 0,16,17
 948 1196 948 1196 1052 988 c 0,18,19
 1113 868 1113 868 1113 674 c 2,20,-1
 1113 0 l 1,21,-1
 842 0 l 1,22,-1
 794 150 l 1,23,24
 743 62 743 62 671 18 c 128,-1,25
 599 -26 599 -26 487 -26 c 0,26,27
 294 -26 294 -26 187 74.5 c 128,-1,28
 80 175 80 175 80 361.5 c 128,-1,29
 80 548 80 548 220 638.5 c 128,-1,30
 360 729 360 729 612 729 c 0,31,32
 700 729 700 729 765 717 c 1,33,34
 765 833 765 833 755 859 c 0,35,36
 734 916 734 916 700.5 935 c 128,-1,37
 667 954 667 954 610 954 c 0,11,12
EndSplineSet
EndChar

StartChar: b
Encoding: 98 98 69
Width: 1343
GlyphClass: 2
Flags: W
LayerCount: 2
Fore
SplineSet
790 -26 m 0,0,1
 539 -26 539 -26 477 166 c 1,2,-1
 401 0 l 1,3,-1
 156 0 l 1,4,-1
 156 1678 l 1,5,-1
 507 1725 l 1,6,-1
 507 1060 l 1,7,8
 627 1196 627 1196 823 1196 c 0,9,10
 962 1196 962 1196 1061 1119 c 0,11,12
 1261 965 1261 965 1261 586 c 0,13,14
 1261 118 1261 118 973 6 c 0,15,16
 893 -26 893 -26 790 -26 c 0,0,1
709 200 m 0,17,18
 911 200 911 200 911 586 c 0,19,20
 911 812 911 812 869 894 c 1,21,22
 827 972 827 972 740 972 c 0,23,24
 625 972 625 972 507 856 c 1,25,-1
 507 296 l 1,26,27
 595 200 595 200 709 200 c 0,17,18
EndSplineSet
EndChar

StartChar: c
Encoding: 99 99 70
Width: 1155
GlyphClass: 2
Flags: W
LayerCount: 2
Fore
SplineSet
322 1097 m 0,0,1
 465 1196 465 1196 644 1196 c 0,2,3
 777 1196 777 1196 864.5 1170.5 c 128,-1,4
 952 1145 952 1145 1045 1096 c 1,5,-1
 980 871 l 1,6,7
 953 897 953 897 869 928.5 c 128,-1,8
 785 960 785 960 704 960 c 0,9,10
 555 960 555 960 493.5 873.5 c 128,-1,11
 432 787 432 787 432 586 c 0,12,13
 432 211 432 211 731 211 c 0,14,15
 842 211 842 211 966 291 c 0,16,17
 979 299 979 299 979 300 c 2,18,-1
 1044 75 l 1,19,20
 983 43 983 43 938 25 c 0,21,22
 815 -25 815 -25 670 -25 c 128,-1,23
 525 -25 525 -25 423 15 c 128,-1,24
 321 55 321 55 244.5 129 c 128,-1,25
 168 203 168 203 124 318 c 128,-1,26
 80 433 80 433 80 571.5 c 128,-1,27
 80 710 80 710 111 808.5 c 128,-1,28
 142 907 142 907 196 977 c 128,-1,29
 250 1047 250 1047 322 1097 c 0,0,1
EndSplineSet
EndChar

StartChar: d
Encoding: 100 100 71
Width: 1345
GlyphClass: 2
Flags: W
LayerCount: 2
Fore
SplineSet
531 1196 m 0,0,1
 731 1196 731 1196 840 1046 c 1,2,-1
 840 1678 l 1,3,-1
 1191 1726 l 1,4,-1
 1191 0 l 1,5,-1
 944 0 l 1,6,-1
 868 166 l 1,7,8
 846 91 846 91 764 38 c 0,9,10
 666 -26 666 -26 552 -26 c 0,11,12
 454 -26 454 -26 373 5.5 c 128,-1,13
 292 37 292 37 238.5 91.5 c 128,-1,14
 185 146 185 146 149.5 223.5 c 128,-1,15
 114 301 114 301 99 388 c 128,-1,16
 84 475 84 475 84 624 c 128,-1,17
 84 773 84 773 136 907.5 c 128,-1,18
 188 1042 188 1042 290 1119 c 128,-1,19
 392 1196 392 1196 531 1196 c 0,0,1
434 586 m 0,20,21
 434 210 434 210 636 210 c 0,22,23
 778 210 778 210 840 296 c 1,24,-1
 840 856 l 1,25,26
 721 962 721 962 605 962 c 0,27,28
 451 962 451 962 437 701 c 0,29,30
 434 657 434 657 434 586 c 0,20,21
EndSplineSet
EndChar

StartChar: e
Encoding: 101 101 72
Width: 1229
GlyphClass: 2
Flags: W
LayerCount: 2
Fore
SplineSet
854 676 m 1,0,1
 857 960 857 960 653 960 c 0,2,3
 585 960 585 960 536 920 c 0,4,5
 443 843 443 843 443 676 c 1,6,-1
 854 676 l 1,0,1
1014 304 m 1,7,-1
 1080 70 l 1,8,9
 894 -25 894 -25 691 -26 c 1,10,11
 301 -26 301 -26 151 258 c 1,12,13
 80 395 80 395 84 566 c 128,-1,14
 88 737 88 737 132 849 c 128,-1,15
 176 961 176 961 253 1037 c 0,16,17
 413 1196 413 1196 659 1196 c 0,18,19
 808 1196 808 1196 917 1130 c 0,20,21
 1140 994 1140 994 1138 666 c 1,22,-1
 1138 502 l 1,23,-1
 444 502 l 1,24,25
 448 370 448 370 521 290 c 0,26,27
 594 211 594 211 718 212 c 0,28,29
 889 213 889 213 1014 304 c 1,7,-1
EndSplineSet
EndChar

StartChar: f
Encoding: 102 102 73
Width: 845
GlyphClass: 2
Flags: W
LayerCount: 2
Fore
SplineSet
713 1436 m 0,0,1
 643 1436 643 1436 609.5 1376.5 c 128,-1,2
 576 1317 576 1317 576 1160 c 1,3,-1
 856 1160 l 1,4,-1
 856 1015 l 1,5,-1
 575 1015 l 1,6,-1
 575 0 l 1,7,-1
 225 0 l 1,8,-1
 225 1015 l 1,9,-1
 35 1015 l 1,10,-1
 35 1160 l 1,11,-1
 225 1160 l 1,12,13
 225 1426 225 1426 325 1560.5 c 128,-1,14
 425 1695 425 1695 633 1695 c 0,15,16
 747 1695 747 1695 862 1666 c 1,17,-1
 862 1411 l 1,18,19
 795 1436 795 1436 713 1436 c 0,0,1
EndSplineSet
EndChar

StartChar: g
Encoding: 103 103 74
Width: 1319
GlyphClass: 2
Flags: W
LayerCount: 2
Fore
SplineSet
422 -281 m 0,0,1
 480 -304 480 -304 584 -304 c 128,-1,2
 688 -304 688 -304 747.5 -295.5 c 128,-1,3
 807 -287 807 -287 841.5 -273.5 c 128,-1,4
 876 -260 876 -260 896 -237 c 0,5,6
 927 -200 927 -200 927.5 -144 c 128,-1,7
 928 -88 928 -88 909 -61 c 0,8,9
 870 -5 870 -5 662 15 c 2,10,-1
 522 29 l 2,11,12
 514 29 514 29 477.5 0 c 128,-1,13
 441 -29 441 -29 418 -52.5 c 128,-1,14
 395 -76 395 -76 378.5 -106.5 c 128,-1,15
 362 -137 362 -137 362 -166.5 c 128,-1,16
 362 -196 362 -196 365.5 -214.5 c 128,-1,17
 369 -233 369 -233 382.5 -252 c 128,-1,18
 396 -271 396 -271 422 -281 c 0,0,1
556 605 m 1,19,-1
 678 615 l 2,20,21
 732 619 732 619 778 680 c 1,22,23
 823 742 823 742 821 804 c 1,24,25
 821 968 821 968 641 968 c 0,26,27
 548 968 548 968 501 930.5 c 128,-1,28
 454 893 454 893 454 793.5 c 128,-1,29
 454 694 454 694 520 630 c 0,30,31
 536 615 536 615 556 605 c 1,19,-1
1046 968 m 1,32,33
 1110 872 1110 872 1110 817 c 128,-1,34
 1110 762 1110 762 1100 716 c 128,-1,35
 1090 670 1090 670 1061.5 618 c 128,-1,36
 1033 566 1033 566 989 526 c 1,37,38
 888 439 888 439 701 421 c 2,39,-1
 398 392 l 1,40,-1
 416 272 l 1,41,-1
 684 252 l 2,42,43
 964 231 964 231 1098 137.5 c 128,-1,44
 1232 44 1232 44 1232 -145 c 0,45,46
 1232 -559 1232 -559 592 -559 c 0,47,48
 155 -559 155 -559 96 -329 c 0,49,50
 84 -282 84 -282 84 -204 c 128,-1,51
 84 -126 84 -126 138 -48 c 128,-1,52
 192 30 192 30 291 80 c 1,53,54
 135 95 135 95 115 269 c 1,55,56
 109 353 109 353 120 383 c 128,-1,57
 131 413 131 413 149 438 c 0,58,59
 188 494 188 494 292 528 c 1,60,-1
 373 550 l 1,61,62
 236 556 236 556 176 655 c 0,63,64
 142 710 142 710 142 791 c 0,65,66
 142 982 142 982 268.5 1089 c 128,-1,67
 395 1196 395 1196 608 1196 c 128,-1,68
 821 1196 821 1196 914 1136 c 1,69,70
 1047 1194 1047 1194 1192 1194 c 2,71,-1
 1293 1194 l 1,72,-1
 1293 968 l 1,73,-1
 1046 968 l 1,32,33
EndSplineSet
EndChar

StartChar: h
Encoding: 104 104 75
Width: 1378
GlyphClass: 2
Flags: W
LayerCount: 2
Fore
SplineSet
506 1728 m 1,0,-1
 506 1057 l 1,1,2
 512 1072 512 1072 543.5 1100.5 c 128,-1,3
 575 1129 575 1129 608 1148 c 0,4,5
 691 1196 691 1196 819 1196 c 0,6,7
 1016 1196 1016 1196 1125 1077 c 128,-1,8
 1234 958 1234 958 1234 723 c 2,9,-1
 1234 0 l 1,10,-1
 884 0 l 1,11,-1
 884 747 l 2,12,13
 884 854 884 854 835.5 908 c 128,-1,14
 787 962 787 962 720.5 962 c 128,-1,15
 654 962 654 962 615.5 950.5 c 128,-1,16
 577 939 577 939 557 925 c 128,-1,17
 537 911 537 911 506 884 c 1,18,-1
 506 0 l 1,19,-1
 156 0 l 1,20,-1
 156 1668 l 1,21,-1
 506 1728 l 1,0,-1
EndSplineSet
EndChar

StartChar: i
Encoding: 105 105 76
Width: 700
GlyphClass: 2
Flags: W
LayerCount: 2
Fore
SplineSet
211 1468 m 1,0,1
 156 1524 156 1524 156 1607 c 128,-1,2
 156 1690 156 1690 211.5 1745.5 c 128,-1,3
 267 1801 267 1801 349 1801 c 128,-1,4
 431 1801 431 1801 488 1745.5 c 128,-1,5
 545 1690 545 1690 545 1607 c 128,-1,6
 545 1524 545 1524 488 1468.5 c 128,-1,7
 431 1413 431 1413 349 1413 c 128,-1,8
 267 1413 267 1413 211 1468 c 1,0,1
524 -3 m 1,9,-1
 174 -3 l 1,10,-1
 174 1159 l 1,11,-1
 524 1159 l 1,12,-1
 524 -3 l 1,9,-1
EndSplineSet
EndChar

StartChar: j
Encoding: 106 106 77
Width: 666
GlyphClass: 2
Flags: W
LayerCount: 2
Fore
SplineSet
-59 -113 m 1,0,1
 -7 -84 -7 -84 27 -57.5 c 128,-1,2
 61 -31 61 -31 91 8 c 128,-1,3
 121 47 121 47 135.5 100 c 128,-1,4
 150 153 150 153 150 223 c 2,5,-1
 150 1160 l 1,6,-1
 501 1160 l 1,7,-1
 501 203 l 2,8,9
 501 97 501 97 465 2 c 128,-1,10
 429 -93 429 -93 366.5 -162.5 c 128,-1,11
 304 -232 304 -232 223.5 -279.5 c 128,-1,12
 143 -327 143 -327 52 -348 c 1,13,-1
 -59 -113 l 1,0,1
188 1465 m 1,14,15
 135 1521 135 1521 135 1604.5 c 128,-1,16
 135 1688 135 1688 188.5 1743 c 128,-1,17
 242 1798 242 1798 324 1798 c 128,-1,18
 406 1798 406 1798 459.5 1743 c 128,-1,19
 513 1688 513 1688 513 1604.5 c 128,-1,20
 513 1521 513 1521 459.5 1465.5 c 128,-1,21
 406 1410 406 1410 324 1410 c 128,-1,22
 242 1410 242 1410 188 1465 c 1,14,15
EndSplineSet
EndChar

StartChar: k
Encoding: 107 107 78
Width: 1302
GlyphClass: 2
Flags: W
LayerCount: 2
Fore
SplineSet
507 409 m 1,0,-1
 507 0 l 1,1,-1
 156 0 l 1,2,-1
 156 1678 l 1,3,-1
 507 1727 l 1,4,-1
 507 736 l 1,5,-1
 947 1169 l 1,6,-1
 1328 1169 l 1,7,-1
 816 649 l 1,8,-1
 1338 0 l 1,9,-1
 943 0 l 1,10,-1
 599 496 l 1,11,-1
 507 409 l 1,0,-1
EndSplineSet
EndChar

StartChar: l
Encoding: 108 108 79
Width: 662
GlyphClass: 2
Flags: W
LayerCount: 2
Fore
SplineSet
507 1726 m 1,0,-1
 507 0 l 1,1,-1
 156 0 l 1,2,-1
 156 1678 l 1,3,-1
 507 1726 l 1,0,-1
EndSplineSet
EndChar

StartChar: m
Encoding: 109 109 80
Width: 1970
GlyphClass: 2
Flags: W
LayerCount: 2
Fore
SplineSet
641 950 m 0,0,1
 546 906 546 906 505 831 c 1,2,-1
 505 0 l 1,3,-1
 154 0 l 1,4,-1
 154 1160 l 1,5,-1
 402 1160 l 1,6,-1
 480 982 l 1,7,8
 521 1091 521 1091 595 1141 c 0,9,10
 677 1196 677 1196 795 1196 c 0,11,12
 907 1196 907 1196 984.5 1157.5 c 128,-1,13
 1062 1119 1062 1119 1109 1022 c 1,14,15
 1170 1110 1170 1110 1251.5 1153 c 128,-1,16
 1333 1196 1333 1196 1464 1196 c 0,17,18
 1643 1196 1643 1196 1734 1081 c 128,-1,19
 1825 966 1825 966 1825 755 c 2,20,-1
 1825 0 l 1,21,-1
 1474 0 l 1,22,-1
 1474 782 l 2,23,24
 1474 960 1474 960 1355 960 c 0,25,26
 1308 960 1308 960 1266 937.5 c 128,-1,27
 1224 915 1224 915 1169 862 c 1,28,-1
 1169 0 l 1,29,-1
 818 0 l 1,30,-1
 818 792 l 2,31,32
 818 929 818 929 751 953 c 0,33,34
 732 960 732 960 703 960 c 0,35,36
 663 960 663 960 641 950 c 0,0,1
EndSplineSet
EndChar

StartChar: n
Encoding: 110 110 81
Width: 1350
GlyphClass: 2
Flags: W
LayerCount: 2
Fore
SplineSet
489 1011 m 1,0,1
 579 1196 579 1196 794.5 1196 c 128,-1,2
 1010 1196 1010 1196 1108 1078.5 c 128,-1,3
 1206 961 1206 961 1206 721 c 2,4,-1
 1206 0 l 1,5,-1
 855 0 l 1,6,-1
 855 747 l 2,7,8
 855 864 855 864 819.5 911.5 c 128,-1,9
 784 959 784 959 708.5 961.5 c 128,-1,10
 633 964 633 964 582.5 932 c 128,-1,11
 532 900 532 900 507 856 c 1,12,-1
 507 0 l 1,13,-1
 156 0 l 1,14,-1
 156 1160 l 1,15,-1
 422 1160 l 1,16,-1
 489 1011 l 1,0,1
EndSplineSet
EndChar

StartChar: o
Encoding: 111 111 82
Width: 1298
GlyphClass: 2
Flags: W
LayerCount: 2
Fore
SplineSet
484 299 m 256,0,1
 538 208 538 208 650 208 c 128,-1,2
 762 208 762 208 816 299 c 128,-1,3
 870 390 870 390 870 584 c 128,-1,4
 870 778 870 778 816 869 c 128,-1,5
 762 960 762 960 650 960 c 128,-1,6
 538 960 538 960 484 869 c 128,-1,7
 430 778 430 778 430 584 c 128,-1,8
 430 390 430 390 484 299 c 256,0,1
1218 582 m 0,9,10
 1218 293 1218 293 1071 133.5 c 128,-1,11
 924 -26 924 -26 650 -26 c 128,-1,12
 376 -26 376 -26 228 133.5 c 128,-1,13
 80 293 80 293 80 582 c 0,14,15
 80 873 80 873 228 1034.5 c 128,-1,16
 376 1196 376 1196 649 1196 c 128,-1,17
 922 1196 922 1196 1070 1034.5 c 128,-1,18
 1218 873 1218 873 1218 582 c 0,9,10
EndSplineSet
EndChar

StartChar: p
Encoding: 112 112 83
Width: 1348
GlyphClass: 2
Flags: W
LayerCount: 2
Fore
SplineSet
780 -26 m 0,0,1
 614 -26 614 -26 507 120 c 1,2,-1
 507 -406 l 1,3,-1
 156 -406 l 1,4,-1
 156 1160 l 1,5,-1
 423 1160 l 1,6,-1
 489 1009 l 1,7,8
 519 1098 519 1098 596 1147 c 0,9,10
 674 1196 674 1196 803 1196 c 128,-1,11
 932 1196 932 1196 1016.5 1153 c 128,-1,12
 1101 1110 1101 1110 1156 1027 c 0,13,14
 1266 861 1266 861 1266 568.5 c 128,-1,15
 1266 276 1266 276 1132.5 125 c 128,-1,16
 999 -26 999 -26 780 -26 c 0,0,1
856 912 m 0,17,18
 820 964 820 964 739 964 c 0,19,20
 611 964 611 964 507 857 c 1,21,-1
 507 324 l 1,22,23
 650 208 650 208 743 208 c 0,24,25
 821 208 821 208 858 267 c 256,26,27
 895 326 895 326 902.5 390 c 128,-1,28
 910 454 910 454 912 501.5 c 128,-1,29
 914 549 914 549 914 605.5 c 128,-1,30
 914 662 914 662 912 699 c 128,-1,31
 910 736 910 736 904.5 780.5 c 128,-1,32
 899 825 899 825 887 855 c 128,-1,33
 875 885 875 885 856 912 c 0,17,18
EndSplineSet
EndChar

StartChar: q
Encoding: 113 113 84
Width: 1345
GlyphClass: 2
Flags: W
LayerCount: 2
Fore
SplineSet
386 1166 m 0,0,1
 468 1196 468 1196 566 1196 c 128,-1,2
 664 1196 664 1196 740 1142 c 1,3,4
 797 1106 797 1106 842 1004 c 1,5,-1
 891 1160 l 1,6,-1
 1191 1160 l 1,7,-1
 1191 -406 l 1,8,-1
 840 -406 l 1,9,-1
 840 121 l 1,10,11
 716 -25 716 -25 567 -25 c 0,12,13
 461 -25 461 -25 372 10 c 128,-1,14
 283 45 283 45 233 107 c 0,15,16
 84 289 84 289 84 565 c 0,17,18
 84 1053 84 1053 386 1166 c 0,0,1
489 268 m 0,19,20
 526 209 526 209 604 209 c 0,21,22
 722 209 722 209 840 325 c 1,23,-1
 840 831 l 1,24,25
 797 900 797 900 759 927 c 0,26,27
 712 960 712 960 641 960 c 0,28,29
 577 960 577 960 535.5 929.5 c 128,-1,30
 494 899 494 899 472.5 845 c 128,-1,31
 451 791 451 791 442 731 c 128,-1,32
 433 671 433 671 433 600.5 c 128,-1,33
 433 530 433 530 435 492.5 c 128,-1,34
 437 455 437 455 442.5 408.5 c 128,-1,35
 448 362 448 362 459.5 329.5 c 128,-1,36
 471 297 471 297 489 268 c 0,19,20
EndSplineSet
EndChar

StartChar: r
Encoding: 114 114 85
Width: 853
GlyphClass: 2
Flags: W
LayerCount: 2
Fore
SplineSet
497 976 m 1,0,1
 520 1036 520 1036 551 1067 c 0,2,3
 585 1100 585 1100 616 1115 c 0,4,5
 650 1132 650 1132 700 1147 c 256,6,7
 750 1162 750 1162 848 1162 c 1,8,-1
 848 863 l 1,9,10
 797 881 797 881 734 881 c 0,11,12
 619 881 619 881 507 796 c 1,13,-1
 507 0 l 1,14,-1
 156 0 l 1,15,-1
 156 1160 l 1,16,-1
 457 1160 l 1,17,-1
 497 976 l 1,0,1
EndSplineSet
EndChar

StartChar: s
Encoding: 115 115 86
Width: 1100
GlyphClass: 2
Flags: W
LayerCount: 2
Fore
SplineSet
422 496 m 1,0,1
 223 573 223 573 164 637 c 0,2,3
 94 713 94 713 94 864 c 128,-1,4
 94 1015 94 1015 217.5 1105.5 c 128,-1,5
 341 1196 341 1196 562 1196 c 0,6,7
 679 1196 679 1196 797 1165.5 c 128,-1,8
 915 1135 915 1135 967 1113 c 1,9,-1
 991 1104 l 1,10,-1
 925 882 l 1,11,12
 852 910 852 910 755 932.5 c 128,-1,13
 658 955 658 955 590 956.5 c 128,-1,14
 522 958 522 958 482 946.5 c 128,-1,15
 442 935 442 935 427.5 920 c 128,-1,16
 413 905 413 905 410.5 866 c 128,-1,17
 408 827 408 827 427 808 c 128,-1,18
 446 789 446 789 500 768 c 2,19,-1
 798 654 l 1,20,21
 861 631 861 631 905 599 c 0,22,23
 1013 521 1013 521 1013 348 c 0,24,25
 1013 112 1013 112 806 26 c 0,26,27
 682 -25 682 -25 541 -25 c 0,28,29
 269 -25 269 -25 97 78 c 1,30,-1
 163 306 l 1,31,32
 238 272 238 272 344 243 c 1,33,34
 443 217 443 217 519 215 c 0,35,36
 606 213 606 213 641 233 c 0,37,38
 687 259 687 259 687 339 c 1,39,40
 686 392 686 392 579 434 c 2,41,-1
 422 496 l 1,0,1
EndSplineSet
EndChar

StartChar: t
Encoding: 116 116 87
Width: 985
GlyphClass: 2
Flags: W
LayerCount: 2
Fore
SplineSet
602 -16 m 0,0,1
 513 -16 513 -16 446.5 9.5 c 128,-1,2
 380 35 380 35 332 90 c 128,-1,3
 284 145 284 145 259.5 236 c 128,-1,4
 235 327 235 327 235 453 c 2,5,-1
 235 1016 l 1,6,-1
 25 1016 l 1,7,-1
 25 1160 l 1,8,-1
 244 1160 l 1,9,-1
 254 1593 l 1,10,-1
 584 1677 l 1,11,-1
 584 1160 l 1,12,-1
 910 1160 l 1,13,-1
 910 1016 l 1,14,-1
 584 1016 l 1,15,-1
 584 418 l 2,16,17
 584 328 584 328 611.5 280.5 c 128,-1,18
 639 233 639 233 705 232 c 0,19,20
 739 232 739 232 778 244.5 c 128,-1,21
 817 257 817 257 839 270 c 1,22,23
 862 282 862 282 861 284 c 2,24,-1
 943 73 l 1,25,26
 937 69 937 69 926.5 63 c 128,-1,27
 916 57 916 57 880.5 42 c 128,-1,28
 845 27 845 27 807.5 15 c 128,-1,29
 770 3 770 3 713.5 -6.5 c 128,-1,30
 657 -16 657 -16 602 -16 c 0,0,1
EndSplineSet
EndChar

StartChar: u
Encoding: 117 117 88
Width: 1331
GlyphClass: 2
Flags: W
LayerCount: 2
Fore
SplineSet
489 423 m 1,0,1
 488 324 488 324 523 266 c 0,2,3
 556 212 556 212 639 208 c 1,4,5
 746 216 746 216 825 304 c 1,6,-1
 825 1160 l 1,7,-1
 1176 1160 l 1,8,-1
 1176 0 l 1,9,-1
 929 0 l 1,10,-1
 852 177 l 1,11,12
 809 67 809 67 760 30 c 1,13,14
 689 -26 689 -26 571 -26 c 0,15,16
 353 -26 353 -26 248 93 c 128,-1,17
 143 212 143 212 143 449 c 2,18,-1
 143 1160 l 1,19,-1
 489 1160 l 1,20,-1
 489 423 l 1,0,1
EndSplineSet
EndChar

StartChar: v
Encoding: 118 118 89
Width: 1225
GlyphClass: 2
Flags: W
LayerCount: 2
Fore
SplineSet
824 0 m 1,0,-1
 400 0 l 1,1,-1
 29 1160 l 1,2,-1
 397 1160 l 1,3,-1
 612 301 l 1,4,-1
 825 1160 l 1,5,-1
 1197 1160 l 1,6,-1
 824 0 l 1,0,-1
EndSplineSet
EndChar

StartChar: w
Encoding: 119 119 90
Width: 1706
GlyphClass: 2
Flags: W
LayerCount: 2
Fore
SplineSet
1000 0 m 1,0,-1
 850 652 l 1,1,-1
 704 0 l 1,2,-1
 355 0 l 1,3,-1
 66 1160 l 1,4,-1
 391 1160 l 1,5,-1
 543 403 l 1,6,-1
 701 1160 l 1,7,-1
 1008 1160 l 1,8,-1
 1165 405 l 1,9,-1
 1324 1160 l 1,10,-1
 1643 1160 l 1,11,-1
 1353 0 l 1,12,-1
 1000 0 l 1,0,-1
EndSplineSet
EndChar

StartChar: x
Encoding: 120 120 91
Width: 1217
GlyphClass: 2
Flags: W
LayerCount: 2
Fore
SplineSet
611 346 m 1,0,-1
 424 0 l 1,1,-1
 37 0 l 1,2,-1
 433 584 l 1,3,-1
 29 1160 l 1,4,-1
 424 1160 l 1,5,-1
 615 833 l 1,6,-1
 801 1160 l 1,7,-1
 1189 1160 l 1,8,-1
 794 584 l 1,9,-1
 1183 0 l 1,10,-1
 801 0 l 1,11,-1
 611 346 l 1,0,-1
EndSplineSet
EndChar

StartChar: y
Encoding: 121 121 92
Width: 1236
GlyphClass: 2
Flags: W
LayerCount: 2
Fore
SplineSet
505 43 m 1,0,-1
 23 1160 l 1,1,-1
 381 1160 l 1,2,-1
 657 374 l 1,3,-1
 849 1160 l 1,4,-1
 1203 1160 l 1,5,-1
 807 -32 l 1,6,7
 735 -254 735 -254 603 -360 c 128,-1,8
 471 -466 471 -466 251 -468 c 1,9,-1
 153 -231 l 1,10,11
 249 -224 249 -224 310 -206.5 c 128,-1,12
 371 -189 371 -189 409 -152 c 128,-1,13
 447 -115 447 -115 466 -72.5 c 128,-1,14
 485 -30 485 -30 505 43 c 1,0,-1
EndSplineSet
EndChar

StartChar: z
Encoding: 122 122 93
Width: 1046
GlyphClass: 2
Flags: W
LayerCount: 2
Fore
SplineSet
572 897 m 1,0,-1
 96 898 l 1,1,-1
 96 1162 l 1,2,-1
 948 1162 l 1,3,-1
 948 931 l 1,4,-1
 467 264 l 1,5,-1
 959 264 l 1,6,-1
 959 0 l 1,7,-1
 84 0 l 1,8,-1
 84 233 l 1,9,-1
 572 897 l 1,0,-1
EndSplineSet
EndChar

StartChar: braceleft
Encoding: 123 123 94
Width: 1313
GlyphClass: 2
Flags: W
LayerCount: 2
Fore
SplineSet
667 982 m 0,0,1
 667 911 667 911 655 854.5 c 128,-1,2
 643 798 643 798 626 764 c 128,-1,3
 609 730 609 730 583 704.5 c 128,-1,4
 557 679 557 679 535 667 c 128,-1,5
 513 655 513 655 485 645 c 1,6,7
 668 576 668 576 668 307 c 0,8,9
 668 193 668 193 673 127 c 128,-1,10
 678 61 678 61 693 28.5 c 128,-1,11
 708 -4 708 -4 725.5 -12.5 c 128,-1,12
 743 -21 743 -21 776 -21 c 1,13,-1
 776 -210 l 1,14,15
 728 -210 728 -210 686 -205 c 128,-1,16
 644 -200 644 -200 598.5 -186 c 128,-1,17
 553 -172 553 -172 516.5 -150 c 128,-1,18
 480 -128 480 -128 445.5 -91.5 c 128,-1,19
 411 -55 411 -55 388 -6.5 c 128,-1,20
 365 42 365 42 351.5 110.5 c 128,-1,21
 338 179 338 179 338 262 c 0,22,23
 338 374 338 374 326.5 436.5 c 128,-1,24
 315 499 315 499 292 524.5 c 128,-1,25
 269 550 269 550 229 550 c 1,26,-1
 229 739 l 1,27,28
 269 739 269 739 292 765 c 128,-1,29
 315 791 315 791 326 853.5 c 128,-1,30
 337 916 337 916 337 1027 c 0,31,32
 337 1110 337 1110 350.5 1178.5 c 128,-1,33
 364 1247 364 1247 387.5 1295.5 c 128,-1,34
 411 1344 411 1344 445 1380.5 c 128,-1,35
 479 1417 479 1417 516 1439 c 128,-1,36
 553 1461 553 1461 598.5 1475 c 128,-1,37
 644 1489 644 1489 686 1494 c 128,-1,38
 728 1499 728 1499 776 1499 c 1,39,-1
 776 1310 l 1,40,41
 743 1310 743 1310 725.5 1301.5 c 128,-1,42
 708 1293 708 1293 693 1260.5 c 128,-1,43
 678 1228 678 1228 672.5 1162 c 128,-1,44
 667 1096 667 1096 667 982 c 0,0,1
EndSplineSet
EndChar

StartChar: bar
Encoding: 124 124 95
Width: 674
GlyphClass: 2
Flags: W
LayerCount: 2
Fore
SplineSet
233 -237 m 1,0,-1
 233 1577 l 1,1,-1
 541 1577 l 1,2,-1
 543 -237 l 1,3,-1
 233 -237 l 1,0,-1
EndSplineSet
EndChar

StartChar: braceright
Encoding: 125 125 96
Width: 1313
GlyphClass: 2
Flags: W
LayerCount: 2
Fore
SplineSet
338 982 m 0,0,1
 338 1059 338 1059 335.5 1112.5 c 128,-1,2
 333 1166 333 1166 326.5 1203 c 128,-1,3
 320 1240 320 1240 312.5 1261 c 128,-1,4
 305 1282 305 1282 291.5 1293 c 128,-1,5
 278 1304 278 1304 264.5 1307 c 128,-1,6
 251 1310 251 1310 229 1310 c 1,7,-1
 229 1499 l 1,8,9
 277 1499 277 1499 319 1494 c 128,-1,10
 361 1489 361 1489 406.5 1475 c 128,-1,11
 452 1461 452 1461 489 1439 c 128,-1,12
 526 1417 526 1417 560 1380.5 c 128,-1,13
 594 1344 594 1344 617.5 1295.5 c 128,-1,14
 641 1247 641 1247 654.5 1178.5 c 128,-1,15
 668 1110 668 1110 668 1027 c 0,16,17
 668 863 668 863 692 801 c 128,-1,18
 716 739 716 739 776 739 c 1,19,-1
 776 550 l 1,20,21
 716 550 716 550 691.5 488.5 c 128,-1,22
 667 427 667 427 667 262 c 0,23,24
 667 179 667 179 653.5 110.5 c 128,-1,25
 640 42 640 42 617 -6.5 c 128,-1,26
 594 -55 594 -55 559.5 -91.5 c 128,-1,27
 525 -128 525 -128 488.5 -150 c 128,-1,28
 452 -172 452 -172 406.5 -186 c 128,-1,29
 361 -200 361 -200 319 -205 c 128,-1,30
 277 -210 277 -210 229 -210 c 1,31,-1
 229 -21 l 1,32,33
 251 -21 251 -21 264.5 -18 c 128,-1,34
 278 -15 278 -15 291.5 -4 c 128,-1,35
 305 7 305 7 312.5 28 c 128,-1,36
 320 49 320 49 326 86 c 128,-1,37
 332 123 332 123 334.5 176.5 c 128,-1,38
 337 230 337 230 337 307 c 0,39,40
 337 576 337 576 520 645 c 1,41,42
 492 655 492 655 470 667 c 128,-1,43
 448 679 448 679 422 704.5 c 128,-1,44
 396 730 396 730 379 764 c 128,-1,45
 362 798 362 798 350 854.5 c 128,-1,46
 338 911 338 911 338 982 c 0,0,1
EndSplineSet
EndChar

StartChar: asciitilde
Encoding: 126 126 97
Width: 1544
GlyphClass: 2
Flags: W
LayerCount: 2
Fore
SplineSet
847 310 m 0,0,1
 800 310 800 310 751.5 325.5 c 128,-1,2
 703 341 703 341 663 364 c 2,3,-1
 587 408 l 1,4,5
 551 430 551 430 518.5 445.5 c 128,-1,6
 486 461 486 461 463 461 c 0,7,8
 432 461 432 461 417.5 432.5 c 128,-1,9
 403 404 403 404 403 336 c 1,10,-1
 195 336 l 1,11,12
 195 502 195 502 252.5 588 c 128,-1,13
 310 674 310 674 425 674 c 0,14,15
 473 674 473 674 519 659.5 c 128,-1,16
 565 645 565 645 600 624 c 2,17,-1
 669 581 l 2,18,19
 702 560 702 560 736.5 545.5 c 128,-1,20
 771 531 771 531 801 531 c 0,21,22
 836 531 836 531 847.5 551.5 c 128,-1,23
 859 572 859 572 859 635 c 1,24,-1
 1079 635 l 1,25,26
 1079 487 1079 487 1016.5 398.5 c 128,-1,27
 954 310 954 310 847 310 c 0,0,1
EndSplineSet
EndChar

StartChar: exclamdown
Encoding: 161 161 99
Width: 840
GlyphClass: 2
Flags: W
LayerCount: 2
Fore
SplineSet
687 -1 m 1,0,-1
 258 -1 l 1,1,-1
 369 1065 l 1,2,-1
 579 1065 l 1,3,-1
 687 -1 l 1,0,-1
350 1208 m 0,4,5
 297 1264 297 1264 297 1347 c 128,-1,6
 297 1430 297 1430 350 1485.5 c 128,-1,7
 403 1541 403 1541 485.5 1541 c 128,-1,8
 568 1541 568 1541 621.5 1485.5 c 128,-1,9
 675 1430 675 1430 675 1347 c 128,-1,10
 675 1264 675 1264 621.5 1208.5 c 128,-1,11
 568 1153 568 1153 485.5 1153 c 128,-1,12
 403 1153 403 1153 350 1208 c 0,4,5
EndSplineSet
EndChar

StartChar: cent
Encoding: 162 162 100
Width: 1282
GlyphClass: 2
Flags: W
LayerCount: 2
Fore
SplineSet
700 -147 m 1,0,-1
 701 1377 l 1,1,-1
 863 1377 l 1,2,-1
 864 -147 l 1,3,-1
 700 -147 l 1,0,-1
158 586 m 0,4,5
 158 700 158 700 189 798.5 c 128,-1,6
 220 897 220 897 274 967 c 128,-1,7
 328 1037 328 1037 400 1087 c 128,-1,8
 472 1137 472 1137 553.5 1161.5 c 128,-1,9
 635 1186 635 1186 722 1186 c 0,10,11
 855 1186 855 1186 942.5 1160.5 c 128,-1,12
 1030 1135 1030 1135 1123 1086 c 1,13,-1
 1058 861 l 1,14,15
 1031 887 1031 887 947 918.5 c 128,-1,16
 863 950 863 950 782 950 c 0,17,18
 633 950 633 950 571.5 863.5 c 128,-1,19
 510 777 510 777 510 586 c 0,20,21
 510 222 510 222 809 222 c 0,22,23
 843 222 843 222 881 231 c 128,-1,24
 919 240 919 240 949.5 253 c 128,-1,25
 980 266 980 266 1005 279.5 c 128,-1,26
 1030 293 1030 293 1044 302 c 128,-1,27
 1058 311 1058 311 1057 311 c 2,28,-1
 1122 86 l 1,29,30
 1061 54 1061 54 1016.5 36 c 128,-1,31
 972 18 972 18 892.5 2 c 128,-1,32
 813 -14 813 -14 721 -14 c 0,33,34
 603 -14 603 -14 501 26 c 128,-1,35
 399 66 399 66 322.5 140 c 128,-1,36
 246 214 246 214 202 329 c 128,-1,37
 158 444 158 444 158 586 c 0,4,5
EndSplineSet
EndChar

StartChar: sterling
Encoding: 163 163 101
Width: 1282
GlyphClass: 2
Flags: W
LayerCount: 2
Fore
SplineSet
113 260 m 1,0,-1
 121 270 l 2,1,2
 129 279 129 279 142 295.5 c 128,-1,3
 155 312 155 312 170.5 334 c 128,-1,4
 186 356 186 356 201.5 384 c 128,-1,5
 217 412 217 412 229.5 441.5 c 128,-1,6
 242 471 242 471 250 506 c 128,-1,7
 258 541 258 541 258 573 c 1,8,-1
 131 572 l 1,9,-1
 131 715 l 1,10,-1
 234 715 l 1,11,12
 234 713 234 713 222.5 724 c 128,-1,13
 211 735 211 735 194.5 756.5 c 128,-1,14
 178 778 178 778 161.5 806.5 c 128,-1,15
 145 835 145 835 133.5 875 c 128,-1,16
 122 915 122 915 122 956 c 0,17,18
 122 1035 122 1035 152.5 1102 c 128,-1,19
 183 1169 183 1169 240.5 1218 c 128,-1,20
 298 1267 298 1267 386 1294.5 c 128,-1,21
 474 1322 474 1322 584 1322 c 0,22,23
 644 1322 644 1322 700.5 1314.5 c 128,-1,24
 757 1307 757 1307 799.5 1295 c 128,-1,25
 842 1283 842 1283 879.5 1268.5 c 128,-1,26
 917 1254 917 1254 942.5 1240 c 128,-1,27
 968 1226 968 1226 986.5 1214 c 128,-1,28
 1005 1202 1005 1202 1013 1196 c 2,29,-1
 1022 1189 l 1,30,-1
 889 971 l 1,31,-1
 879 980 l 2,32,33
 868 989 868 989 844.5 1002.5 c 128,-1,34
 821 1016 821 1016 791 1029 c 128,-1,35
 761 1042 761 1042 717 1051.5 c 128,-1,36
 673 1061 673 1061 626 1061 c 0,37,38
 578 1061 578 1061 543.5 1051 c 128,-1,39
 509 1041 509 1041 490.5 1026.5 c 128,-1,40
 472 1012 472 1012 461 990.5 c 128,-1,41
 450 969 450 969 447 950.5 c 128,-1,42
 444 932 444 932 444 909 c 0,43,44
 444 827 444 827 499 750 c 1,45,-1
 524 720 l 1,46,-1
 929 720 l 1,47,-1
 929 572 l 1,48,-1
 542 572 l 1,49,50
 542 508 542 508 526.5 453 c 128,-1,51
 511 398 511 398 492 366 c 128,-1,52
 473 334 473 334 447.5 308.5 c 128,-1,53
 422 283 422 283 412 276 c 128,-1,54
 402 269 402 269 396 266 c 1,55,-1
 987 266 l 1,56,-1
 987 0 l 1,57,-1
 116 0 l 1,58,-1
 113 260 l 1,0,-1
EndSplineSet
EndChar

StartChar: currency
Encoding: 164 164 102
Width: 1171
GlyphClass: 2
Flags: W
LayerCount: 2
Fore
SplineSet
644 1249 m 0,0,1
 572 1249 572 1249 508.5 1211 c 128,-1,2
 445 1173 445 1173 406.5 1109.5 c 128,-1,3
 368 1046 368 1046 368 975 c 0,4,5
 368 868 368 868 446 792 c 128,-1,6
 524 716 524 716 627 716 c 0,7,8
 698 716 698 716 761.5 754 c 128,-1,9
 825 792 825 792 863 855.5 c 128,-1,10
 901 919 901 919 901 991 c 0,11,12
 901 1098 901 1098 823.5 1173.5 c 128,-1,13
 746 1249 746 1249 644 1249 c 0,0,1
262 732 m 1,14,15
 192 839 192 839 192 967 c 0,16,17
 192 1102 192 1102 270 1217 c 1,18,-1
 68 1419 l 1,19,-1
 197 1549 l 1,20,-1
 399 1347 l 1,21,22
 515 1426 515 1426 652 1426 c 0,23,24
 780 1426 780 1426 886 1356 c 1,25,-1
 1079 1549 l 1,26,-1
 1208 1419 l 1,27,-1
 1013 1224 l 1,28,29
 1077 1122 1077 1122 1077 1001 c 0,30,31
 1077 864 1077 864 998 748 c 1,32,-1
 1208 538 l 1,33,-1
 1079 408 l 1,34,-1
 868 619 l 1,35,36
 753 541 753 541 618 541 c 0,37,38
 496 541 496 541 394 604 c 1,39,-1
 197 408 l 1,40,-1
 68 538 l 1,41,-1
 262 732 l 1,14,15
EndSplineSet
EndChar

StartChar: yen
Encoding: 165 165 103
Width: 1282
GlyphClass: 2
Flags: W
LayerCount: 2
Fore
SplineSet
701 811 m 1,0,-1
 1001 1577 l 1,1,-1
 1385 1577 l 1,2,-1
 997 771 l 1,3,-1
 1199 771 l 1,4,-1
 1199 651 l 1,5,-1
 939 651 l 1,6,-1
 877 522 l 1,7,-1
 1199 522 l 1,8,-1
 1199 402 l 1,9,-1
 875 402 l 1,10,-1
 875 0 l 1,11,-1
 527 0 l 1,12,-1
 527 402 l 1,13,-1
 203 402 l 1,14,-1
 203 522 l 1,15,-1
 525 522 l 1,16,-1
 464 651 l 1,17,-1
 203 651 l 1,18,-1
 203 771 l 1,19,-1
 407 771 l 1,20,-1
 23 1577 l 1,21,-1
 401 1577 l 1,22,-1
 701 811 l 1,0,-1
EndSplineSet
EndChar

StartChar: brokenbar
Encoding: 166 166 104
Width: 674
GlyphClass: 2
Flags: W
LayerCount: 2
Fore
SplineSet
233 -147 m 1,0,-1
 234 599 l 1,1,-1
 542 599 l 1,2,-1
 543 -147 l 1,3,-1
 233 -147 l 1,0,-1
233 921 m 1,4,-1
 234 1667 l 1,5,-1
 542 1667 l 1,6,-1
 543 921 l 1,7,-1
 233 921 l 1,4,-1
EndSplineSet
EndChar

StartChar: section
Encoding: 167 167 105
Width: 922
GlyphClass: 2
Flags: W
LayerCount: 2
Fore
SplineSet
865 1423 m 1,0,-1
 773 1220 l 1,1,2
 720 1262 720 1262 622.5 1301 c 128,-1,3
 525 1340 525 1340 452 1340 c 0,4,5
 403 1340 403 1340 368 1333 c 128,-1,6
 333 1326 333 1326 315 1316.5 c 128,-1,7
 297 1307 297 1307 286.5 1293 c 128,-1,8
 276 1279 276 1279 273.5 1268 c 128,-1,9
 271 1257 271 1257 271 1244 c 0,10,11
 271 1233 271 1233 271.5 1229 c 128,-1,12
 272 1225 272 1225 278 1215 c 128,-1,13
 284 1205 284 1205 296 1197.5 c 128,-1,14
 308 1190 308 1190 332.5 1178.5 c 128,-1,15
 357 1167 357 1167 393 1154 c 2,16,-1
 549 1098 l 2,17,18
 640 1065 640 1065 703.5 1032.5 c 128,-1,19
 767 1000 767 1000 806 969.5 c 128,-1,20
 845 939 845 939 866.5 901.5 c 128,-1,21
 888 864 888 864 895.5 828 c 128,-1,22
 903 792 903 792 903 743 c 0,23,24
 903 663 903 663 855.5 598 c 128,-1,25
 808 533 808 533 719 506 c 1,26,27
 771 484 771 484 808.5 451.5 c 128,-1,28
 846 419 846 419 866.5 381 c 128,-1,29
 887 343 887 343 896 305 c 128,-1,30
 905 267 905 267 905 226 c 0,31,32
 905 166 905 166 889.5 117.5 c 128,-1,33
 874 69 874 69 848.5 34.5 c 128,-1,34
 823 0 823 0 785.5 -26 c 128,-1,35
 748 -52 748 -52 708 -67.5 c 128,-1,36
 668 -83 668 -83 620 -93 c 128,-1,37
 572 -103 572 -103 529 -106.5 c 128,-1,38
 486 -110 486 -110 438 -110 c 0,39,40
 338 -110 338 -110 219 -70.5 c 128,-1,41
 100 -31 100 -31 41 18 c 1,42,-1
 12 43 l 1,43,-1
 107 258 l 1,44,-1
 115 251 l 2,45,46
 123 244 123 244 139 232 c 2,47,-1
 176 207 l 2,48,49
 197 193 197 193 225 179 c 128,-1,50
 253 165 253 165 283.5 153.5 c 128,-1,51
 314 142 314 142 351.5 135 c 128,-1,52
 389 128 389 128 426 128 c 0,53,54
 635 128 635 128 635 250 c 0,55,56
 635 303 635 303 602 330 c 128,-1,57
 569 357 569 357 488 383 c 1,58,-1
 328 437 l 2,59,60
 229 471 229 471 167.5 503.5 c 128,-1,61
 106 536 106 536 72 577 c 128,-1,62
 38 618 38 618 26 661 c 128,-1,63
 14 704 14 704 14 768 c 0,64,65
 14 799 14 799 23.5 832.5 c 128,-1,66
 33 866 33 866 54 900.5 c 128,-1,67
 75 935 75 935 113.5 963 c 128,-1,68
 152 991 152 991 203 1005 c 1,69,70
 14 1072 14 1072 14 1272 c 0,71,72
 14 1316 14 1316 27.5 1357.5 c 128,-1,73
 41 1399 41 1399 73 1439.5 c 128,-1,74
 105 1480 105 1480 153 1510.5 c 128,-1,75
 201 1541 201 1541 275 1559.5 c 128,-1,76
 349 1578 349 1578 441 1578 c 0,77,78
 504 1578 504 1578 571.5 1561.5 c 128,-1,79
 639 1545 639 1545 685.5 1525.5 c 128,-1,80
 732 1506 732 1506 778 1479.5 c 128,-1,81
 824 1453 824 1453 839.5 1442 c 128,-1,82
 855 1431 855 1431 865 1423 c 1,0,-1
453 648 m 0,83,84
 642 648 642 648 642 748 c 0,85,86
 642 772 642 772 634.5 789.5 c 128,-1,87
 627 807 627 807 607.5 822 c 128,-1,88
 588 837 588 837 549.5 844.5 c 128,-1,89
 511 852 511 852 454 852 c 0,90,91
 405 852 405 852 370 846 c 128,-1,92
 335 840 335 840 316 830.5 c 128,-1,93
 297 821 297 821 286 806.5 c 128,-1,94
 275 792 275 792 272 779.5 c 128,-1,95
 269 767 269 767 269 750 c 0,96,97
 269 699 269 699 312 673.5 c 128,-1,98
 355 648 355 648 453 648 c 0,83,84
EndSplineSet
EndChar

StartChar: dieresis
Encoding: 168 168 106
Width: 922
GlyphClass: 2
Flags: W
LayerCount: 2
Fore
SplineSet
901 1352 m 1,0,1
 846 1408 846 1408 846 1491 c 128,-1,2
 846 1574 846 1574 901.5 1629.5 c 128,-1,3
 957 1685 957 1685 1039 1685 c 128,-1,4
 1121 1685 1121 1685 1178 1629.5 c 128,-1,5
 1235 1574 1235 1574 1235 1491 c 128,-1,6
 1235 1408 1235 1408 1178 1352.5 c 128,-1,7
 1121 1297 1121 1297 1039 1297 c 128,-1,8
 957 1297 957 1297 901 1352 c 1,0,1
231 1352 m 1,9,10
 176 1408 176 1408 176 1491 c 128,-1,11
 176 1574 176 1574 231.5 1629.5 c 128,-1,12
 287 1685 287 1685 369 1685 c 128,-1,13
 451 1685 451 1685 508 1629.5 c 128,-1,14
 565 1574 565 1574 565 1491 c 128,-1,15
 565 1408 565 1408 508 1352.5 c 128,-1,16
 451 1297 451 1297 369 1297 c 128,-1,17
 287 1297 287 1297 231 1352 c 1,9,10
EndSplineSet
EndChar

StartChar: copyright
Encoding: 169 169 107
Width: 1843
GlyphClass: 2
Flags: W
LayerCount: 2
Fore
SplineSet
1195 101 m 0,0,1
 1340 101 1340 101 1467.5 155.5 c 128,-1,2
 1595 210 1595 210 1683.5 302.5 c 128,-1,3
 1772 395 1772 395 1823 521.5 c 128,-1,4
 1874 648 1874 648 1874 789 c 0,5,6
 1874 849 1874 849 1862.5 912.5 c 128,-1,7
 1851 976 1851 976 1824.5 1042.5 c 128,-1,8
 1798 1109 1798 1109 1759.5 1170.5 c 128,-1,9
 1721 1232 1721 1232 1664 1286.5 c 128,-1,10
 1607 1341 1607 1341 1537 1381 c 128,-1,11
 1467 1421 1467 1421 1374 1444.5 c 128,-1,12
 1281 1468 1281 1468 1176 1468 c 0,13,14
 1077 1468 1077 1468 980.5 1437.5 c 128,-1,15
 884 1407 884 1407 800 1347.5 c 128,-1,16
 716 1288 716 1288 651.5 1207 c 128,-1,17
 587 1126 587 1126 549.5 1016 c 128,-1,18
 512 906 512 906 512 783 c 0,19,20
 512 642 512 642 562 516.5 c 128,-1,21
 612 391 612 391 700 299.5 c 128,-1,22
 788 208 788 208 916.5 154.5 c 128,-1,23
 1045 101 1045 101 1195 101 c 0,0,1
1181 1703 m 0,24,25
 1337 1703 1337 1703 1474.5 1662 c 128,-1,26
 1612 1621 1612 1621 1710 1556.5 c 128,-1,27
 1808 1492 1808 1492 1887 1405 c 128,-1,28
 1966 1318 1966 1318 2013.5 1233 c 128,-1,29
 2061 1148 2061 1148 2089 1059 c 0,30,31
 2132 924 2132 924 2130 754 c 0,32,33
 2130 703 2130 703 2123 647.5 c 128,-1,34
 2116 592 2116 592 2096 525.5 c 128,-1,35
 2076 459 2076 459 2046.5 394.5 c 128,-1,36
 2017 330 2017 330 1970 262 c 128,-1,37
 1923 194 1923 194 1863.5 135.5 c 128,-1,38
 1804 77 1804 77 1721 23.5 c 128,-1,39
 1638 -30 1638 -30 1539 -68 c 0,40,41
 1373 -132 1373 -132 1187 -133 c 0,42,43
 1065 -133 1065 -133 947.5 -102.5 c 128,-1,44
 830 -72 830 -72 727.5 -17 c 128,-1,45
 625 38 625 38 537.5 120.5 c 128,-1,46
 450 203 450 203 387.5 302.5 c 128,-1,47
 325 402 325 402 290.5 525.5 c 128,-1,48
 256 649 256 649 256 783 c 0,49,50
 256 919 256 919 292 1043.5 c 128,-1,51
 328 1168 328 1168 392.5 1268 c 128,-1,52
 457 1368 457 1368 545 1450.5 c 128,-1,53
 633 1533 633 1533 735.5 1588 c 128,-1,54
 838 1643 838 1643 952.5 1673 c 128,-1,55
 1067 1703 1067 1703 1181 1703 c 0,24,25
965 784 m 0,56,57
 965 699 965 699 981.5 638.5 c 128,-1,58
 998 578 998 578 1030 543.5 c 128,-1,59
 1062 509 1062 509 1104 494 c 128,-1,60
 1146 479 1146 479 1201 479 c 0,61,62
 1307 479 1307 479 1423 536 c 2,63,-1
 1497 573 l 1,64,-1
 1497 354 l 1,65,-1
 1469 340 l 2,66,67
 1329 270 1329 270 1213 270 c 0,68,69
 1104 270 1104 270 1018 301 c 128,-1,70
 932 332 932 332 878.5 382.5 c 128,-1,71
 825 433 825 433 790.5 501.5 c 128,-1,72
 756 570 756 570 742.5 639.5 c 128,-1,73
 729 709 729 709 729 784 c 0,74,75
 729 938 729 938 783.5 1053.5 c 128,-1,76
 838 1169 838 1169 944.5 1233.5 c 128,-1,77
 1051 1298 1051 1298 1197 1298 c 0,78,79
 1267 1298 1267 1298 1347.5 1276.5 c 128,-1,80
 1428 1255 1428 1255 1465 1232 c 2,81,-1
 1489 1217 l 1,82,-1
 1489 1007 l 1,83,-1
 1415 1044 l 2,84,85
 1383 1060 1383 1060 1321.5 1074.5 c 128,-1,86
 1260 1089 1260 1089 1193 1089 c 0,87,88
 1140 1089 1140 1089 1099 1071.5 c 128,-1,89
 1058 1054 1058 1054 1033 1025.5 c 128,-1,90
 1008 997 1008 997 992.5 956.5 c 128,-1,91
 977 916 977 916 971 874 c 128,-1,92
 965 832 965 832 965 784 c 0,56,57
EndSplineSet
EndChar

StartChar: ordfeminine
Encoding: 170 170 108
Width: 1038
GlyphClass: 2
Flags: W
LayerCount: 2
Fore
SplineSet
540 803 m 0,0,1
 628 803 628 803 689 877 c 1,2,-1
 689 1060 l 1,3,4
 691 1062 691 1062 658.5 1064.5 c 128,-1,5
 626 1067 626 1067 612 1067 c 0,6,7
 509 1067 509 1067 465 1038 c 128,-1,8
 421 1009 421 1009 421 941 c 128,-1,9
 421 873 421 873 452.5 838 c 128,-1,10
 484 803 484 803 540 803 c 0,0,1
565 1392 m 0,11,12
 404 1392 404 1392 267 1327 c 1,13,-1
 200 1495 l 1,14,15
 348 1586 348 1586 575 1586 c 0,16,17
 836 1586 836 1586 919 1419 c 1,18,19
 968 1323 968 1323 968 1168 c 2,20,-1
 968 629 l 1,21,-1
 751 629 l 1,22,-1
 712 749 l 1,23,24
 672 679 672 679 614 643.5 c 128,-1,25
 556 608 556 608 467 608 c 0,26,27
 312 608 312 608 226.5 688.5 c 128,-1,28
 141 769 141 769 141 918 c 128,-1,29
 141 1067 141 1067 253 1139.5 c 128,-1,30
 365 1212 365 1212 567 1212 c 0,31,32
 637 1212 637 1212 689 1203 c 1,33,34
 689 1295 689 1295 681 1316 c 0,35,36
 664 1362 664 1362 637.5 1377 c 128,-1,37
 611 1392 611 1392 565 1392 c 0,11,12
EndSplineSet
EndChar

StartChar: guillemotleft
Encoding: 171 171 109
Width: 1190
GlyphClass: 2
Flags: W
LayerCount: 2
Fore
SplineSet
947 862 m 1,0,-1
 475 579 l 1,1,-1
 947 285 l 1,2,-1
 947 -51 l 1,3,-1
 141 453 l 1,4,-1
 141 696 l 1,5,-1
 947 1200 l 1,6,-1
 947 862 l 1,0,-1
1751 862 m 1,7,-1
 1279 579 l 1,8,-1
 1751 285 l 1,9,-1
 1751 -51 l 1,10,-1
 945 453 l 1,11,-1
 945 696 l 1,12,-1
 1751 1200 l 1,13,-1
 1751 862 l 1,7,-1
EndSplineSet
EndChar

StartChar: logicalnot
Encoding: 172 172 110
Width: 1544
GlyphClass: 2
Flags: W
LayerCount: 2
Fore
SplineSet
999 584 m 1,0,-1
 195 584 l 1,1,-1
 195 846 l 1,2,-1
 1191 846 l 1,3,-1
 1191 584 l 1,4,-1
 1191 224 l 1,5,-1
 999 224 l 1,6,-1
 999 584 l 1,0,-1
EndSplineSet
EndChar

StartChar: uni00AD
Encoding: 173 173 111
Width: 1016
GlyphClass: 2
Flags: W
LayerCount: 2
Fore
SplineSet
905 574 m 1,0,-1
 111 574 l 1,1,-1
 111 836 l 1,2,-1
 905 836 l 1,3,-1
 905 574 l 1,0,-1
EndSplineSet
EndChar

StartChar: registered
Encoding: 174 174 112
Width: 1843
GlyphClass: 2
Flags: W
LayerCount: 2
Fore
SplineSet
906 1274 m 2,0,1
 978 1274 978 1274 1013 1294.5 c 128,-1,2
 1048 1315 1048 1315 1048 1370 c 0,3,4
 1048 1417 1048 1417 1010.5 1433.5 c 128,-1,5
 973 1450 973 1450 857 1450 c 1,6,-1
 857 1274 l 1,7,-1
 906 1274 l 2,0,1
1202 927 m 1,8,-1
 1074 864 l 1,9,-1
 891 1162 l 1,10,-1
 852 1162 l 1,11,-1
 852 890 l 1,12,-1
 720 890 l 1,13,-1
 720 1559 l 1,14,-1
 856 1559 l 2,15,16
 928 1559 928 1559 983 1550.5 c 128,-1,17
 1038 1542 1038 1542 1084.5 1522.5 c 128,-1,18
 1131 1503 1131 1503 1156 1466 c 128,-1,19
 1181 1429 1181 1429 1181 1375 c 0,20,21
 1181 1297 1181 1297 1145 1255 c 128,-1,22
 1109 1213 1109 1213 1016 1187 c 1,23,-1
 1202 927 l 1,8,-1
256 1220 m 0,24,25
 256 1395 256 1395 342.5 1543.5 c 128,-1,26
 429 1692 429 1692 584 1780 c 128,-1,27
 739 1868 739 1868 929 1868 c 0,28,29
 1115 1868 1115 1868 1270.5 1781.5 c 128,-1,30
 1426 1695 1426 1695 1515 1547 c 128,-1,31
 1604 1399 1604 1399 1604 1220 c 128,-1,32
 1604 1041 1604 1041 1515 893 c 128,-1,33
 1426 745 1426 745 1270.5 658.5 c 128,-1,34
 1115 572 1115 572 929 572 c 0,35,36
 741 572 741 572 585 660 c 128,-1,37
 429 748 429 748 342.5 895.5 c 128,-1,38
 256 1043 256 1043 256 1220 c 0,24,25
928 708 m 0,39,40
 1157 708 1157 708 1307 856 c 128,-1,41
 1457 1004 1457 1004 1457 1218 c 0,42,43
 1457 1436 1457 1436 1306.5 1583 c 128,-1,44
 1156 1730 1156 1730 928 1730 c 128,-1,45
 700 1730 700 1730 550.5 1582 c 128,-1,46
 401 1434 401 1434 401 1217.5 c 128,-1,47
 401 1001 401 1001 550.5 854.5 c 128,-1,48
 700 708 700 708 928 708 c 0,39,40
EndSplineSet
EndChar

StartChar: macron
Encoding: 175 175 113
Width: 922
GlyphClass: 2
Flags: W
LayerCount: 2
Fore
SplineSet
858 122 m 1,0,-1
 176 122 l 1,1,-1
 176 249 l 1,2,-1
 858 249 l 1,3,-1
 858 122 l 1,0,-1
EndSplineSet
EndChar

StartChar: degree
Encoding: 176 176 114
Width: 922
GlyphClass: 2
Flags: W
LayerCount: 2
Fore
SplineSet
398 1145 m 0,0,1
 345 1095 345 1095 345 1019.5 c 128,-1,2
 345 944 345 944 398.5 893.5 c 128,-1,3
 452 843 452 843 525.5 843 c 128,-1,4
 599 843 599 843 652 893.5 c 128,-1,5
 705 944 705 944 705 1019.5 c 128,-1,6
 705 1095 705 1095 652 1145.5 c 128,-1,7
 599 1196 599 1196 525.5 1196 c 128,-1,8
 452 1196 452 1196 398 1145 c 0,0,1
526 1359 m 256,9,10
 622 1359 622 1359 705 1316 c 128,-1,11
 788 1273 788 1273 839 1194.5 c 128,-1,12
 890 1116 890 1116 890 1020 c 128,-1,13
 890 924 890 924 839 845 c 128,-1,14
 788 766 788 766 705 723 c 128,-1,15
 622 680 622 680 526 680 c 256,16,17
 430 680 430 680 346.5 723 c 128,-1,18
 263 766 263 766 211.5 845 c 128,-1,19
 160 924 160 924 160 1019.5 c 128,-1,20
 160 1115 160 1115 211.5 1194 c 128,-1,21
 263 1273 263 1273 346.5 1316 c 128,-1,22
 430 1359 430 1359 526 1359 c 256,9,10
EndSplineSet
EndChar

StartChar: plusminus
Encoding: 177 177 115
Width: 1544
GlyphClass: 2
Flags: W
LayerCount: 2
Fore
SplineSet
1039 770 m 1,0,-1
 760 770 l 1,1,-1
 760 417 l 1,2,-1
 472 417 l 1,3,-1
 472 770 l 1,4,-1
 195 770 l 1,5,-1
 195 1039 l 1,6,-1
 472 1039 l 1,7,-1
 472 1389 l 1,8,-1
 760 1389 l 1,9,-1
 760 1039 l 1,10,-1
 1039 1039 l 1,11,-1
 1039 770 l 1,0,-1
1014 -20 m 1,12,-1
 220 -20 l 1,13,-1
 220 242 l 1,14,-1
 1014 242 l 1,15,-1
 1014 -20 l 1,12,-1
EndSplineSet
EndChar

StartChar: uni00B2
Encoding: 178 178 116
Width: 958
GlyphClass: 2
Flags: W
LayerCount: 2
Fore
SplineSet
576 1251 m 0,0,1
 576 1309 576 1309 547 1337.5 c 128,-1,2
 518 1366 518 1366 453 1366 c 0,3,4
 418 1366 418 1366 372.5 1355 c 128,-1,5
 327 1344 327 1344 283 1326 c 2,6,-1
 219 1300 l 2,7,8
 199 1291 199 1291 183 1283 c 1,9,-1
 182 1282 l 1,10,-1
 109 1473 l 1,11,-1
 111 1474 l 2,12,13
 131 1484 131 1484 156 1495 c 128,-1,14
 181 1506 181 1506 235.5 1527 c 128,-1,15
 290 1548 290 1548 352.5 1561.5 c 128,-1,16
 415 1575 415 1575 471 1575 c 0,17,18
 526 1575 526 1575 577 1566 c 128,-1,19
 628 1557 628 1557 677.5 1536 c 128,-1,20
 727 1515 727 1515 763 1483.5 c 128,-1,21
 799 1452 799 1452 821 1402 c 128,-1,22
 843 1352 843 1352 843 1289 c 0,23,24
 843 1195 843 1195 797 1117.5 c 128,-1,25
 751 1040 751 1040 635 939 c 1,26,-1
 520 836 l 1,27,-1
 818 836 l 1,28,-1
 818 622 l 1,29,-1
 131 622 l 1,30,-1
 131 796 l 1,31,-1
 391 1016 l 1,32,33
 395 1018 395 1018 416 1035.5 c 128,-1,34
 437 1053 437 1053 444 1060 c 2,35,-1
 471 1083 l 2,36,37
 491 1100 491 1100 499 1110 c 2,38,-1
 522 1136 l 1,39,40
 538 1152 538 1152 545 1164 c 128,-1,41
 552 1176 552 1176 560.5 1192 c 128,-1,42
 569 1208 569 1208 572.5 1222 c 128,-1,43
 576 1236 576 1236 576 1251 c 0,0,1
EndSplineSet
EndChar

StartChar: uni00B3
Encoding: 179 179 117
Width: 929
GlyphClass: 2
Flags: W
LayerCount: 2
Fore
SplineSet
541 1340 m 0,0,1
 541 1385 541 1385 504.5 1407 c 128,-1,2
 468 1429 468 1429 409 1429 c 0,3,4
 388 1429 388 1429 365 1426 c 128,-1,5
 342 1423 342 1423 320.5 1418 c 128,-1,6
 299 1413 299 1413 277.5 1407 c 128,-1,7
 256 1401 256 1401 239 1395 c 128,-1,8
 222 1389 222 1389 209 1384 c 128,-1,9
 196 1379 196 1379 188 1376 c 2,10,-1
 181 1373 l 1,11,-1
 90 1556 l 1,12,-1
 104 1564 l 2,13,14
 120 1572 120 1572 148 1584.5 c 128,-1,15
 176 1597 176 1597 210.5 1609 c 128,-1,16
 245 1621 245 1621 293 1630 c 128,-1,17
 341 1639 341 1639 389 1639 c 0,18,19
 462 1639 462 1639 521 1629 c 128,-1,20
 580 1619 580 1619 630 1597 c 128,-1,21
 680 1575 680 1575 714 1540 c 128,-1,22
 748 1505 748 1505 768 1453.5 c 128,-1,23
 788 1402 788 1402 789 1335 c 0,24,25
 791 1260 791 1260 747 1196.5 c 128,-1,26
 703 1133 703 1133 628 1115 c 1,27,28
 710 1095 710 1095 764 1024 c 128,-1,29
 818 953 818 953 818 868 c 256,30,31
 818 783 818 783 787 718.5 c 128,-1,32
 756 654 756 654 699.5 614.5 c 128,-1,33
 643 575 643 575 568.5 555.5 c 128,-1,34
 494 536 494 536 404 536 c 0,35,36
 352 536 352 536 302.5 541.5 c 128,-1,37
 253 547 253 547 218.5 555 c 128,-1,38
 184 563 184 563 157.5 571 c 128,-1,39
 131 579 131 579 118 585 c 2,40,-1
 104 591 l 1,41,-1
 171 792 l 1,42,-1
 172 792 l 1,43,44
 189 785 189 785 213 776.5 c 128,-1,45
 237 768 237 768 294 755.5 c 128,-1,46
 351 743 351 743 396 743 c 0,47,48
 476 743 476 743 517.5 771 c 128,-1,49
 559 799 559 799 559 866 c 0,50,51
 559 914 559 914 524 949.5 c 128,-1,52
 489 985 489 985 436 1001.5 c 128,-1,53
 383 1018 383 1018 322 1016 c 1,54,-1
 322 1213 l 1,55,56
 366 1213 366 1213 403.5 1220 c 128,-1,57
 441 1227 441 1227 472.5 1241 c 128,-1,58
 504 1255 504 1255 522.5 1281 c 128,-1,59
 541 1307 541 1307 541 1340 c 0,0,1
EndSplineSet
EndChar

StartChar: acute
Encoding: 180 180 118
Width: 922
GlyphClass: 2
Flags: W
LayerCount: 2
Fore
SplineSet
485 1321 m 1,0,-1
 328 1395 l 1,1,-1
 531 2008 l 1,2,-1
 843 1863 l 1,3,-1
 485 1321 l 1,0,-1
EndSplineSet
EndChar

StartChar: uni00B5
Encoding: 181 181 119
Width: 1386
GlyphClass: 2
Flags: W
LayerCount: 2
Fore
SplineSet
655 -15 m 0,0,1
 627 -15 627 -15 594.5 -7.5 c 128,-1,2
 562 0 562 0 543.5 7 c 128,-1,3
 525 14 525 14 524 16 c 1,4,-1
 524 -488 l 1,5,-1
 174 -428 l 1,6,-1
 174 1161 l 1,7,-1
 524 1161 l 1,8,-1
 524 277 l 1,9,-1
 530 274 l 2,10,11
 536 271 536 271 548 265.5 c 128,-1,12
 560 260 560 260 575.5 253.5 c 128,-1,13
 591 247 591 247 610 240.5 c 128,-1,14
 629 234 629 234 647.5 229 c 128,-1,15
 666 224 666 224 686.5 221 c 128,-1,16
 707 218 707 218 723 219 c 0,17,18
 847 225 847 225 909 296 c 1,19,-1
 909 1161 l 1,20,-1
 1261 1161 l 1,21,-1
 1261 1 l 1,22,-1
 1013 1 l 1,23,-1
 935 168 l 1,24,25
 926 136 926 136 905.5 105.5 c 128,-1,26
 885 75 885 75 852 47 c 128,-1,27
 819 19 819 19 768 2 c 128,-1,28
 717 -15 717 -15 655 -15 c 0,0,1
EndSplineSet
EndChar

StartChar: paragraph
Encoding: 182 182 120
Width: 1171
GlyphClass: 2
Flags: W
LayerCount: 2
Fore
SplineSet
1326 1578 m 1,0,-1
 1326 0 l 1,1,-1
 1070 0 l 1,2,-1
 1070 1428 l 1,3,-1
 935 1428 l 1,4,-1
 935 0 l 1,5,-1
 676 0 l 1,6,-1
 676 711 l 1,7,8
 583 711 583 711 503.5 723.5 c 128,-1,9
 424 736 424 736 351.5 768 c 128,-1,10
 279 800 279 800 228 849.5 c 128,-1,11
 177 899 177 899 147 977 c 128,-1,12
 117 1055 117 1055 117 1155 c 0,13,14
 117 1230 117 1230 136 1291.5 c 128,-1,15
 155 1353 155 1353 186.5 1396 c 128,-1,16
 218 1439 218 1439 264.5 1472 c 128,-1,17
 311 1505 311 1505 362 1524.5 c 128,-1,18
 413 1544 413 1544 475.5 1556 c 128,-1,19
 538 1568 538 1568 596 1572.5 c 128,-1,20
 654 1577 654 1577 720 1577 c 2,21,-1
 825 1577 l 1,22,-1
 1326 1578 l 1,0,-1
EndSplineSet
EndChar

StartChar: periodcentered
Encoding: 183 183 121
Width: 700
GlyphClass: 2
Flags: W
LayerCount: 2
Fore
SplineSet
249 556 m 0,0,1
 188 618 188 618 188 705 c 128,-1,2
 188 792 188 792 249.5 854 c 128,-1,3
 311 916 311 916 398.5 916 c 128,-1,4
 486 916 486 916 548 854 c 128,-1,5
 610 792 610 792 610 705 c 128,-1,6
 610 618 610 618 548 556 c 128,-1,7
 486 494 486 494 398.5 494 c 128,-1,8
 311 494 311 494 249 556 c 0,0,1
EndSplineSet
EndChar

StartChar: cedilla
Encoding: 184 184 122
Width: 922
GlyphClass: 2
Flags: W
LayerCount: 2
Fore
SplineSet
236 -611 m 1,0,-1
 236 -474 l 1,1,-1
 244 -478 l 2,2,3
 253 -482 253 -482 270 -488.5 c 128,-1,4
 287 -495 287 -495 307 -501.5 c 128,-1,5
 327 -508 327 -508 354.5 -512.5 c 128,-1,6
 382 -517 382 -517 408 -517 c 0,7,8
 443 -517 443 -517 465.5 -513.5 c 128,-1,9
 488 -510 488 -510 508 -498.5 c 128,-1,10
 528 -487 528 -487 537 -463 c 128,-1,11
 546 -439 546 -439 546 -401 c 0,12,13
 546 -239 546 -239 286 -239 c 1,14,-1
 306 23 l 1,15,-1
 426 23 l 1,16,-1
 406 -151 l 1,17,18
 433 -151 433 -151 465 -156 c 128,-1,19
 497 -161 497 -161 535.5 -171 c 128,-1,20
 574 -181 574 -181 609 -200 c 128,-1,21
 644 -219 644 -219 674 -244.5 c 128,-1,22
 704 -270 704 -270 721.5 -309 c 128,-1,23
 739 -348 739 -348 740 -395 c 1,24,25
 740 -527 740 -527 666 -596 c 128,-1,26
 592 -665 592 -665 450 -665 c 0,27,28
 337 -665 337 -665 243 -615 c 1,29,-1
 236 -611 l 1,0,-1
EndSplineSet
EndChar

StartChar: uni00B9
Encoding: 185 185 123
Width: 912
GlyphClass: 2
Flags: W
LayerCount: 2
Fore
SplineSet
344 702 m 1,0,-1
 344 1416 l 1,1,-1
 219 1362 l 1,2,-1
 144 1552 l 1,3,-1
 358 1639 l 1,4,-1
 622 1637 l 1,5,-1
 622 702 l 1,6,-1
 344 702 l 1,0,-1
EndSplineSet
EndChar

StartChar: ordmasculine
Encoding: 186 186 124
Width: 1038
GlyphClass: 2
Flags: W
LayerCount: 2
Fore
SplineSet
427 932 m 256,0,1
 470 859 470 859 560 859 c 128,-1,2
 650 859 650 859 693 932 c 128,-1,3
 736 1005 736 1005 736 1160 c 128,-1,4
 736 1315 736 1315 693 1388 c 128,-1,5
 650 1461 650 1461 560 1461 c 128,-1,6
 470 1461 470 1461 427 1388 c 128,-1,7
 384 1315 384 1315 384 1160 c 128,-1,8
 384 1005 384 1005 427 932 c 256,0,1
1014 1159 m 256,9,10
 1014 927 1014 927 896.5 799.5 c 128,-1,11
 779 672 779 672 560 672 c 128,-1,12
 341 672 341 672 222.5 799.5 c 128,-1,13
 104 927 104 927 104 1159 c 256,14,15
 104 1391 104 1391 222.5 1520.5 c 128,-1,16
 341 1650 341 1650 559.5 1650 c 128,-1,17
 778 1650 778 1650 896 1520.5 c 128,-1,18
 1014 1391 1014 1391 1014 1159 c 256,9,10
EndSplineSet
EndChar

StartChar: guillemotright
Encoding: 187 187 125
Width: 1190
GlyphClass: 2
Flags: W
LayerCount: 2
Fore
SplineSet
978 862 m 1,0,-1
 978 1200 l 1,1,-1
 1784 696 l 1,2,-1
 1784 453 l 1,3,-1
 978 -51 l 1,4,-1
 978 285 l 1,5,-1
 1459 579 l 1,6,-1
 978 862 l 1,0,-1
174 862 m 1,7,-1
 174 1200 l 1,8,-1
 980 696 l 1,9,-1
 980 453 l 1,10,-1
 174 -51 l 1,11,-1
 174 285 l 1,12,-1
 655 579 l 1,13,-1
 174 862 l 1,7,-1
EndSplineSet
EndChar

StartChar: onequarter
Encoding: 188 188 126
Width: 1909
GlyphClass: 2
Flags: W
LayerCount: 2
Fore
SplineSet
479 -29 m 1,0,-1
 1185 1541 l 1,1,-1
 1411 1458 l 1,2,-1
 698 -107 l 1,3,-1
 479 -29 l 1,0,-1
1558 1023 m 1,4,-1
 1765 970 l 1,5,-1
 1765 303 l 1,6,-1
 1904 303 l 1,7,-1
 1904 96 l 1,8,-1
 1765 96 l 1,9,-1
 1765 -125 l 1,10,-1
 1521 -124 l 1,11,-1
 1521 96 l 1,12,-1
 1072 96 l 1,13,-1
 1039 257 l 1,14,-1
 1558 1023 l 1,4,-1
1345 301 m 1,15,-1
 1521 301 l 1,16,-1
 1521 597 l 1,17,-1
 1345 301 l 1,15,-1
290 411 m 1,18,-1
 290 1125 l 1,19,-1
 165 1071 l 1,20,-1
 90 1261 l 1,21,-1
 376 1373 l 1,22,-1
 554 1333 l 1,23,-1
 554 411 l 1,24,-1
 290 411 l 1,18,-1
EndSplineSet
EndChar

StartChar: onehalf
Encoding: 189 189 127
Width: 1909
GlyphClass: 2
Flags: W
LayerCount: 2
Fore
SplineSet
479 -29 m 1,0,-1
 1185 1541 l 1,1,-1
 1411 1458 l 1,2,-1
 698 -107 l 1,3,-1
 479 -29 l 1,0,-1
290 411 m 1,4,-1
 290 1125 l 1,5,-1
 165 1071 l 1,6,-1
 90 1261 l 1,7,-1
 376 1373 l 1,8,-1
 554 1333 l 1,9,-1
 554 411 l 1,10,-1
 290 411 l 1,4,-1
1760 725 m 0,11,12
 1760 783 1760 783 1730.5 811.5 c 128,-1,13
 1701 840 1701 840 1636 840 c 0,14,15
 1588 840 1588 840 1520.5 819 c 128,-1,16
 1453 798 1453 798 1409 777 c 2,17,-1
 1365 756 l 1,18,-1
 1293 947 l 1,19,-1
 1300 950 l 2,20,21
 1307 954 1307 954 1319.5 960 c 128,-1,22
 1332 966 1332 966 1350 974 c 2,23,-1
 1389 990 l 1,24,-1
 1435 1006 l 2,25,26
 1459 1015 1459 1015 1486.5 1022.5 c 128,-1,27
 1514 1030 1514 1030 1541 1036 c 128,-1,28
 1568 1042 1568 1042 1597.5 1045.5 c 128,-1,29
 1627 1049 1627 1049 1654 1049 c 0,30,31
 1725 1049 1725 1049 1787.5 1034 c 128,-1,32
 1850 1019 1850 1019 1905.5 987.5 c 128,-1,33
 1961 956 1961 956 1993.5 898 c 128,-1,34
 2026 840 2026 840 2026 763 c 0,35,36
 2026 669 2026 669 1980 592 c 128,-1,37
 1934 515 1934 515 1819 413 c 2,38,-1
 1704 310 l 1,39,-1
 2002 310 l 1,40,-1
 2002 96 l 1,41,-1
 1315 96 l 1,42,-1
 1315 270 l 1,43,-1
 1575 489 l 1,44,-1
 1600 510 l 2,45,46
 1620 526 1620 526 1628 534 c 2,47,-1
 1654 558 l 1,48,49
 1673 574 1673 574 1682 584 c 2,50,-1
 1706 610 l 2,51,52
 1721 626 1721 626 1728 638 c 2,53,-1
 1744 666 l 2,54,55
 1753 681 1753 681 1756.5 696 c 128,-1,56
 1760 711 1760 711 1760 725 c 0,11,12
EndSplineSet
EndChar

StartChar: threequarters
Encoding: 190 190 128
Width: 1909
GlyphClass: 2
Flags: W
LayerCount: 2
Fore
SplineSet
1702 1023 m 1,0,-1
 1909 970 l 1,1,-1
 1909 303 l 1,2,-1
 2048 303 l 1,3,-1
 2048 96 l 1,4,-1
 1909 96 l 1,5,-1
 1909 -125 l 1,6,-1
 1685 -124 l 1,7,-1
 1685 96 l 1,8,-1
 1216 96 l 1,9,-1
 1183 257 l 1,10,-1
 1702 1023 l 1,0,-1
1479 301 m 1,11,-1
 1685 301 l 1,12,-1
 1685 607 l 1,13,-1
 1479 301 l 1,11,-1
623 -29 m 1,14,-1
 1328 1541 l 1,15,-1
 1555 1458 l 1,16,-1
 842 -107 l 1,17,-1
 623 -29 l 1,14,-1
545 1213 m 256,18,19
 545 1258 545 1258 508.5 1280 c 128,-1,20
 472 1302 472 1302 413 1302 c 0,21,22
 369 1302 369 1302 312 1288 c 128,-1,23
 255 1274 255 1274 220 1260 c 2,24,-1
 185 1246 l 1,25,-1
 94 1429 l 1,26,-1
 108 1437 l 2,27,28
 123 1445 123 1445 151 1457.5 c 128,-1,29
 179 1470 179 1470 214 1482 c 128,-1,30
 249 1494 249 1494 297 1502.5 c 128,-1,31
 345 1511 345 1511 393 1511 c 0,32,33
 484 1511 484 1511 554.5 1495 c 128,-1,34
 625 1479 625 1479 679 1444.5 c 128,-1,35
 733 1410 733 1410 762.5 1350.5 c 128,-1,36
 792 1291 792 1291 794 1208 c 1,37,38
 794 1133 794 1133 750 1069.5 c 128,-1,39
 706 1006 706 1006 632 987 c 1,40,41
 713 967 713 967 767.5 896.5 c 128,-1,42
 822 826 822 826 822 741 c 256,43,44
 822 656 822 656 790.5 591.5 c 128,-1,45
 759 527 759 527 703 487.5 c 128,-1,46
 647 448 647 448 572.5 428.5 c 128,-1,47
 498 409 498 409 408 409 c 0,48,49
 370 409 370 409 333.5 412 c 128,-1,50
 297 415 297 415 268.5 419.5 c 128,-1,51
 240 424 240 424 214 430 c 128,-1,52
 188 436 188 436 169 442 c 2,53,-1
 136 452 l 2,54,55
 122 457 122 457 115 460 c 128,-1,56
 108 463 108 463 109 463 c 2,57,-1
 175 665 l 1,58,59
 188 659 188 659 211 651 c 128,-1,60
 234 643 234 643 293.5 629 c 128,-1,61
 353 615 353 615 400 615 c 0,62,63
 481 615 481 615 522 643 c 128,-1,64
 563 671 563 671 563 738 c 0,65,66
 563 786 563 786 528.5 821.5 c 128,-1,67
 494 857 494 857 440.5 874 c 128,-1,68
 387 891 387 891 326 889 c 1,69,-1
 326 1086 l 1,70,71
 385 1086 385 1086 432.5 1097.5 c 128,-1,72
 480 1109 480 1109 512.5 1138.5 c 128,-1,73
 545 1168 545 1168 545 1213 c 256,18,19
EndSplineSet
EndChar

StartChar: questiondown
Encoding: 191 191 129
Width: 1069
GlyphClass: 2
Flags: W
LayerCount: 2
Fore
SplineSet
465 318 m 0,0,1
 465 278 465 278 478.5 250 c 128,-1,2
 492 222 492 222 512.5 206 c 128,-1,3
 533 190 533 190 568 181.5 c 128,-1,4
 603 173 603 173 635 170.5 c 128,-1,5
 667 168 667 168 715 168 c 0,6,7
 769 168 769 168 853 186 c 128,-1,8
 937 204 937 204 994.5 221.5 c 128,-1,9
 1052 239 1052 239 1052 240 c 2,10,-1
 1133 -13 l 1,11,12
 1078 -41 1078 -41 1039 -54 c 0,13,14
 886 -105 886 -105 685 -105 c 0,15,16
 567 -105 567 -105 469.5 -84 c 128,-1,17
 372 -63 372 -63 293.5 -18.5 c 128,-1,18
 215 26 215 26 171 103 c 128,-1,19
 127 180 127 180 127 285 c 0,20,21
 127 311 127 311 129 335 c 128,-1,22
 131 359 131 359 141.5 400.5 c 128,-1,23
 152 442 152 442 170.5 478 c 128,-1,24
 189 514 189 514 225 558.5 c 128,-1,25
 261 603 261 603 309.5 640 c 128,-1,26
 358 677 358 677 434.5 713 c 128,-1,27
 511 749 511 749 605 776 c 1,28,-1
 605 1030 l 1,29,-1
 926 1030 l 1,30,-1
 926 621 l 1,31,32
 898 610 898 610 854 596 c 2,33,-1
 776 570 l 2,34,35
 742 559 742 559 699.5 542.5 c 128,-1,36
 657 526 657 526 625.5 511 c 128,-1,37
 594 496 594 496 562.5 475 c 128,-1,38
 531 454 531 454 510.5 431.5 c 128,-1,39
 490 409 490 409 477.5 380 c 128,-1,40
 465 351 465 351 465 318 c 0,0,1
884 1463 m 1,41,42
 938 1408 938 1408 938 1325 c 128,-1,43
 938 1242 938 1242 884.5 1186.5 c 128,-1,44
 831 1131 831 1131 749 1131 c 128,-1,45
 667 1131 667 1131 613.5 1186.5 c 128,-1,46
 560 1242 560 1242 560 1325 c 128,-1,47
 560 1408 560 1408 613.5 1463.5 c 128,-1,48
 667 1519 667 1519 749 1519 c 128,-1,49
 831 1519 831 1519 884 1463 c 1,41,42
EndSplineSet
EndChar

StartChar: AE
Encoding: 198 198 136
Width: 1999
GlyphClass: 2
Flags: W
LayerCount: 2
Fore
SplineSet
1852 1577 m 1,0,-1
 1852 1374 l 1,1,-1
 1183 1374 l 1,2,-1
 1183 939 l 1,3,-1
 1762 939 l 1,4,-1
 1762 742 l 1,5,-1
 1183 742 l 1,6,-1
 1183 223 l 1,7,-1
 1862 223 l 1,8,-1
 1862 0 l 1,9,-1
 822 0 l 1,10,-1
 822 350 l 1,11,-1
 481 350 l 1,12,-1
 359 0 l 1,13,-1
 0 0 l 1,14,-1
 620 1577 l 1,15,-1
 1852 1577 l 1,0,-1
822 520 m 1,16,-1
 822 1343 l 1,17,-1
 528 520 l 1,18,-1
 822 520 l 1,16,-1
EndSplineSet
EndChar

StartChar: Eth
Encoding: 208 208 146
Width: 1544
GlyphClass: 2
Flags: W
LayerCount: 2
Fore
SplineSet
1498 782 m 0,0,1
 1498 403 1498 403 1300.5 201.5 c 128,-1,2
 1103 0 1103 0 690 0 c 2,3,-1
 190 0 l 1,4,-1
 190 684 l 1,5,-1
 31 684 l 1,6,-1
 31 916 l 1,7,-1
 190 916 l 1,8,-1
 190 1578 l 1,9,-1
 690 1578 l 2,10,11
 1498 1578 1498 1578 1498 782 c 0,0,1
1128 784 m 0,12,13
 1128 862 1128 862 1124 919.5 c 128,-1,14
 1120 977 1120 977 1107.5 1036.5 c 128,-1,15
 1095 1096 1095 1096 1073.5 1137.5 c 128,-1,16
 1052 1179 1052 1179 1016.5 1217 c 128,-1,17
 981 1255 981 1255 931 1277.5 c 128,-1,18
 881 1300 881 1300 811 1313 c 128,-1,19
 741 1326 741 1326 651 1326 c 2,20,-1
 559 1326 l 1,21,-1
 559 916 l 1,22,-1
 822 916 l 1,23,-1
 822 684 l 1,24,-1
 559 684 l 1,25,-1
 559 254 l 1,26,-1
 651 254 l 2,27,28
 739 254 739 254 808 266.5 c 128,-1,29
 877 279 877 279 927 300.5 c 128,-1,30
 977 322 977 322 1013 358.5 c 128,-1,31
 1049 395 1049 395 1071 436 c 128,-1,32
 1093 477 1093 477 1106 534.5 c 128,-1,33
 1119 592 1119 592 1123.5 650 c 128,-1,34
 1128 708 1128 708 1128 784 c 0,12,13
EndSplineSet
EndChar

StartChar: multiply
Encoding: 215 215 153
Width: 1544
GlyphClass: 2
Flags: W
LayerCount: 2
Fore
SplineSet
229 813 m 1,0,-1
 411 1012 l 1,1,-1
 701 738 l 1,2,-1
 991 1012 l 1,3,-1
 1173 813 l 1,4,-1
 897 553 l 1,5,-1
 1173 292 l 1,6,-1
 991 93 l 1,7,-1
 701 367 l 1,8,-1
 411 93 l 1,9,-1
 229 292 l 1,10,-1
 505 553 l 1,11,-1
 229 813 l 1,0,-1
EndSplineSet
EndChar

StartChar: Oslash
Encoding: 216 216 154
Width: 1567
GlyphClass: 2
Flags: W
LayerCount: 2
Fore
SplineSet
514 344 m 0,0,1
 520 336 520 336 526 329 c 1,2,-1
 919 1295 l 1,3,4
 905 1303 905 1303 890 1310 c 0,5,6
 830 1339 830 1339 751 1339 c 128,-1,7
 672 1339 672 1339 612 1310.5 c 128,-1,8
 552 1282 552 1282 514 1234 c 128,-1,9
 476 1186 476 1186 452.5 1114.5 c 128,-1,10
 429 1043 429 1043 419.5 964.5 c 128,-1,11
 410 886 410 886 410 789 c 128,-1,12
 410 692 410 692 419.5 613.5 c 128,-1,13
 429 535 429 535 452.5 463.5 c 128,-1,14
 476 392 476 392 514 344 c 0,0,1
1023 1180 m 1,15,-1
 649 252 l 1,16,17
 695 238 695 238 751 238 c 0,18,19
 830 238 830 238 890 266.5 c 128,-1,20
 950 295 950 295 988 343.5 c 128,-1,21
 1026 392 1026 392 1049.5 463.5 c 128,-1,22
 1073 535 1073 535 1082.5 613.5 c 128,-1,23
 1092 692 1092 692 1092 789 c 128,-1,24
 1092 886 1092 886 1082.5 964.5 c 128,-1,25
 1073 1043 1073 1043 1050 1114 c 0,26,27
 1038 1150 1038 1150 1023 1180 c 1,15,-1
409 40 m 1,28,29
 290 96 290 96 212 193 c 0,30,31
 126 300 126 300 83.5 449.5 c 128,-1,32
 41 599 41 599 41 789 c 0,33,34
 41 1176 41 1176 217.5 1390.5 c 128,-1,35
 394 1605 394 1605 751 1605 c 0,36,37
 907 1605 907 1605 1028 1564 c 1,38,-1
 1099 1739 l 1,39,-1
 1230 1694 l 1,40,-1
 1154 1505 l 1,41,42
 1228 1459 1228 1459 1284 1390 c 0,43,44
 1461 1176 1461 1176 1461 789 c 0,45,46
 1461 599 1461 599 1418.5 449.5 c 128,-1,47
 1376 300 1376 300 1290 193 c 128,-1,48
 1204 86 1204 86 1068 29 c 128,-1,49
 932 -28 932 -28 751 -28 c 0,50,51
 639 -28 639 -28 544 -6 c 1,52,-1
 479 -168 l 1,53,-1
 343 -123 l 1,54,-1
 409 40 l 1,28,29
EndSplineSet
EndChar

StartChar: Thorn
Encoding: 222 222 160
Width: 1360
GlyphClass: 2
Flags: W
LayerCount: 2
Fore
SplineSet
794 165 m 0,0,1
 613 165 613 165 521 291 c 1,2,-1
 521 -219 l 1,3,-1
 170 -219 l 1,4,-1
 170 1578 l 1,5,-1
 502 1578 l 1,6,-1
 503 1201 l 1,7,8
 548 1278 548 1278 630.5 1318.5 c 128,-1,9
 713 1359 713 1359 806 1359 c 0,10,11
 925 1359 925 1359 1017 1313.5 c 128,-1,12
 1109 1268 1109 1268 1166 1186 c 128,-1,13
 1223 1104 1223 1104 1252 993 c 128,-1,14
 1281 882 1281 882 1281 746 c 0,15,16
 1281 467 1281 467 1147 316 c 128,-1,17
 1013 165 1013 165 794 165 c 0,0,1
928 770 m 0,18,19
 928 1123 928 1123 726 1123 c 0,20,21
 668 1123 668 1123 625 1110 c 128,-1,22
 582 1097 582 1097 563 1083.5 c 128,-1,23
 544 1070 544 1070 521 1046 c 1,24,-1
 521 495 l 1,25,26
 619 399 619 399 757 399 c 0,27,28
 795 399 795 399 824.5 414 c 128,-1,29
 854 429 854 429 872 458 c 128,-1,30
 890 487 890 487 901.5 519.5 c 128,-1,31
 913 552 913 552 918.5 598.5 c 128,-1,32
 924 645 924 645 926 682.5 c 128,-1,33
 928 720 928 720 928 770 c 0,18,19
EndSplineSet
EndChar

StartChar: germandbls
Encoding: 223 223 161
Width: 1325
GlyphClass: 2
Flags: W
LayerCount: 2
Fore
SplineSet
677 689 m 1,0,1
 677 689 677 689 675 907 c 1,2,-1
 732 907 l 2,3,4
 879 907 879 907 958.5 959 c 128,-1,5
 1038 1011 1038 1011 1038 1135 c 0,6,7
 1038 1182 1038 1182 1029 1214 c 128,-1,8
 1020 1246 1020 1246 994.5 1275.5 c 128,-1,9
 969 1305 969 1305 916 1319.5 c 128,-1,10
 863 1334 863 1334 781 1334 c 0,11,12
 633 1334 633 1334 580 1254 c 128,-1,13
 527 1174 527 1174 527 980 c 2,14,-1
 527 0 l 1,15,-1
 156 0 l 1,16,-1
 156 980 l 2,17,18
 156 1272 156 1272 304 1425.5 c 128,-1,19
 452 1579 452 1579 781 1579 c 0,20,21
 884 1579 884 1579 969.5 1564 c 128,-1,22
 1055 1549 1055 1549 1114 1524 c 128,-1,23
 1173 1499 1173 1499 1218 1463.5 c 128,-1,24
 1263 1428 1263 1428 1289.5 1391 c 128,-1,25
 1316 1354 1316 1354 1332.5 1310.5 c 128,-1,26
 1349 1267 1349 1267 1355 1231 c 128,-1,27
 1361 1195 1361 1195 1361 1157 c 0,28,29
 1361 1094 1361 1094 1342.5 1040 c 128,-1,30
 1324 986 1324 986 1285.5 939.5 c 128,-1,31
 1247 893 1247 893 1181 861.5 c 128,-1,32
 1115 830 1115 830 1026 819 c 1,33,34
 1520 769 1520 769 1520 355 c 2,35,-1
 1520 352 l 2,36,37
 1520 241 1520 241 1472 148.5 c 128,-1,38
 1424 56 1424 56 1341.5 -7 c 128,-1,39
 1259 -70 1259 -70 1147 -113.5 c 128,-1,40
 1035 -157 1035 -157 909.5 -177 c 128,-1,41
 784 -197 784 -197 647 -197 c 1,42,-1
 646 84 l 1,43,44
 765 93 765 93 853 110 c 128,-1,45
 941 127 941 127 998.5 150.5 c 128,-1,46
 1056 174 1056 174 1091 207.5 c 128,-1,47
 1126 241 1126 241 1140 278.5 c 128,-1,48
 1154 316 1154 316 1154 364 c 0,49,50
 1154 689 1154 689 677 689 c 1,0,1
EndSplineSet
EndChar

StartChar: ae
Encoding: 230 230 168
Width: 1931
GlyphClass: 2
Flags: W
LayerCount: 2
Fore
SplineSet
408 385 m 0,0,1
 408 306 408 306 450.5 261.5 c 128,-1,2
 493 217 493 217 564 217 c 0,3,4
 620 217 620 217 668.5 242 c 128,-1,5
 717 267 717 267 765 310 c 1,6,-1
 765 539 l 1,7,8
 703 547 703 547 655 547 c 0,9,10
 525 547 525 547 466.5 510.5 c 128,-1,11
 408 474 408 474 408 385 c 0,0,1
1643 314 m 1,12,-1
 1709 80 l 1,13,14
 1523 -15 1523 -15 1301 -16 c 0,15,16
 1150 -17 1150 -17 1057.5 34.5 c 128,-1,17
 965 86 965 86 906 200 c 1,18,19
 870 139 870 139 819.5 95 c 128,-1,20
 769 51 769 51 711.5 27 c 128,-1,21
 654 3 654 3 597.5 -7.5 c 128,-1,22
 541 -18 541 -18 479 -18 c 0,23,24
 287 -18 287 -18 183.5 82 c 128,-1,25
 80 182 80 182 80 373 c 0,26,27
 80 458 80 458 109 521.5 c 128,-1,28
 138 585 138 585 186 624 c 128,-1,29
 234 663 234 663 305 687 c 128,-1,30
 376 711 376 711 449 720 c 128,-1,31
 522 729 522 729 612 729 c 0,32,33
 701 729 701 729 765 717 c 1,34,35
 765 749 765 749 764 769.5 c 128,-1,36
 763 790 763 790 759.5 815.5 c 128,-1,37
 756 841 756 841 749.5 857 c 128,-1,38
 743 873 743 873 731.5 889.5 c 128,-1,39
 720 906 720 906 703.5 915 c 128,-1,40
 687 924 687 924 662.5 930 c 128,-1,41
 638 936 638 936 606 936 c 0,42,43
 558 936 558 936 498 927.5 c 128,-1,44
 438 919 438 919 391.5 908 c 128,-1,45
 345 897 345 897 296 883 c 2,46,-1
 231 864 l 1,47,-1
 205 855 l 1,48,-1
 157 1073 l 1,49,50
 237 1124 237 1124 367 1155 c 128,-1,51
 497 1186 497 1186 618 1186 c 0,52,53
 868 1186 868 1186 959 1038 c 1,54,55
 1010 1114 1010 1114 1100 1150 c 128,-1,56
 1190 1186 1190 1186 1298 1186 c 0,57,58
 1520 1186 1520 1186 1643.5 1043 c 128,-1,59
 1767 900 1767 900 1767 666 c 2,60,-1
 1767 502 l 1,61,-1
 1093 502 l 1,62,-1
 1093 499 l 1,63,64
 1097 377 1097 377 1165.5 299 c 128,-1,65
 1234 221 1234 221 1357 222 c 0,66,67
 1518 223 1518 223 1643 314 c 1,12,-1
1483 676 m 1,68,69
 1484 801 1484 801 1438 875.5 c 128,-1,70
 1392 950 1392 950 1292 950 c 0,71,72
 1244 950 1244 950 1206.5 929.5 c 128,-1,73
 1169 909 1169 909 1145.5 874 c 128,-1,74
 1122 839 1122 839 1109 795.5 c 128,-1,75
 1096 752 1096 752 1093 702 c 1,76,-1
 1093 676 l 1,77,-1
 1483 676 l 1,68,69
EndSplineSet
EndChar

StartChar: eth
Encoding: 240 240 178
Width: 1266
GlyphClass: 2
Flags: W
LayerCount: 2
Fore
SplineSet
430 586 m 0,0,1
 430 514 430 514 439 453.5 c 128,-1,2
 448 393 448 393 469.5 338 c 128,-1,3
 491 283 491 283 532.5 251.5 c 128,-1,4
 574 220 574 220 632 220 c 0,5,6
 686 220 686 220 727 248.5 c 128,-1,7
 768 277 768 277 791 326 c 128,-1,8
 814 375 814 375 825 432.5 c 128,-1,9
 836 490 836 490 836 555 c 2,10,-1
 836 856 l 1,11,12
 738 952 738 952 601 952 c 0,13,14
 555 952 555 952 522.5 929.5 c 128,-1,15
 490 907 490 907 472.5 873.5 c 128,-1,16
 455 840 455 840 445 787.5 c 128,-1,17
 435 735 435 735 432.5 691 c 128,-1,18
 430 647 430 647 430 586 c 0,0,1
1186 612 m 0,19,20
 1186 449 1186 449 1144.5 328 c 128,-1,21
 1103 207 1103 207 1024 132 c 128,-1,22
 945 57 945 57 836 20.5 c 128,-1,23
 727 -16 727 -16 587 -16 c 0,24,25
 455 -16 455 -16 355.5 31.5 c 128,-1,26
 256 79 256 79 197 163.5 c 128,-1,27
 138 248 138 248 109 354 c 128,-1,28
 80 460 80 460 80 586 c 0,29,30
 80 763 80 763 132 897.5 c 128,-1,31
 184 1032 184 1032 286 1109 c 128,-1,32
 388 1186 388 1186 527 1186 c 0,33,34
 734 1186 734 1186 836 1046 c 1,35,36
 824 1120 824 1120 750 1226 c 0,37,38
 710 1284 710 1284 661 1338 c 1,39,-1
 427 1263 l 1,40,-1
 385 1413 l 1,41,-1
 537 1462 l 1,42,43
 457 1533 457 1533 383 1575 c 1,44,-1
 533 1752 l 1,45,46
 607 1706 607 1706 663 1667 c 128,-1,47
 719 1628 719 1628 790 1566 c 1,48,-1
 809 1549 l 1,49,-1
 1103 1644 l 1,50,-1
 1145 1494 l 1,51,-1
 929 1424 l 1,52,53
 974 1367 974 1367 1021 1290 c 0,54,55
 1075 1202 1075 1202 1109 1105 c 128,-1,56
 1143 1008 1143 1008 1164.5 881 c 128,-1,57
 1186 754 1186 754 1186 612 c 0,19,20
EndSplineSet
EndChar

StartChar: divide
Encoding: 247 247 185
Width: 1544
GlyphClass: 2
Flags: W
LayerCount: 2
Fore
SplineSet
1199 593 m 1,0,-1
 195 593 l 1,1,-1
 195 855 l 1,2,-1
 1199 855 l 1,3,-1
 1199 593 l 1,0,-1
566 167 m 1,4,5
 513 223 513 223 513 306 c 128,-1,6
 513 389 513 389 566.5 444.5 c 128,-1,7
 620 500 620 500 702 500 c 128,-1,8
 784 500 784 500 837.5 444.5 c 128,-1,9
 891 389 891 389 891 306 c 128,-1,10
 891 223 891 223 837.5 167.5 c 128,-1,11
 784 112 784 112 702 112 c 128,-1,12
 620 112 620 112 566 167 c 1,4,5
563 1005 m 1,13,14
 510 1061 510 1061 510 1144 c 128,-1,15
 510 1227 510 1227 563.5 1282.5 c 128,-1,16
 617 1338 617 1338 699 1338 c 128,-1,17
 781 1338 781 1338 834.5 1282.5 c 128,-1,18
 888 1227 888 1227 888 1144 c 128,-1,19
 888 1061 888 1061 834.5 1005.5 c 128,-1,20
 781 950 781 950 699 950 c 128,-1,21
 617 950 617 950 563 1005 c 1,13,14
EndSplineSet
EndChar

StartChar: oslash
Encoding: 248 248 186
Width: 1266
GlyphClass: 2
Flags: W
LayerCount: 2
Fore
SplineSet
639 188 m 0,0,1
 788 188 788 188 862 323 c 0,2,3
 917 423 917 423 917 584 c 0,4,5
 917 640 917 640 910.5 688 c 128,-1,6
 904 736 904 736 894 768.5 c 128,-1,7
 884 801 884 801 872 827 c 128,-1,8
 860 853 860 853 847.5 867.5 c 128,-1,9
 835 882 835 882 825 892 c 128,-1,10
 815 902 815 902 809 906 c 2,11,-1
 803 909 l 1,12,-1
 566 195 l 1,13,14
 593 188 593 188 639 188 c 0,0,1
499 -4 m 1,15,-1
 441 -177 l 1,16,-1
 335 -141 l 1,17,-1
 392 26 l 1,18,19
 235 88 235 88 152.5 231.5 c 128,-1,20
 70 375 70 375 70 582 c 0,21,22
 70 863 70 863 218 1024.5 c 128,-1,23
 366 1186 366 1186 639 1186 c 0,24,25
 708 1186 708 1186 771 1175 c 1,26,-1
 835 1364 l 1,27,-1
 939 1328 l 1,28,-1
 878 1146 l 1,29,30
 1039 1085 1039 1085 1123.5 939 c 128,-1,31
 1208 793 1208 793 1208 582 c 0,32,33
 1208 303 1208 303 1060.5 143.5 c 128,-1,34
 913 -16 913 -16 639 -16 c 0,35,36
 565 -16 565 -16 499 -4 c 1,15,-1
468 261 m 2,37,-1
 708 973 l 1,38,39
 679 980 679 980 639 980 c 0,40,41
 479 980 479 980 412 823 c 1,42,-1
 411 822 l 1,43,-1
 411 821 l 1,44,-1
 411 820 l 1,45,-1
 410 820 l 1,46,-1
 410 819 l 1,47,-1
 410 818 l 1,48,-1
 409 817 l 1,49,-1
 409 816 l 1,50,-1
 408 815 l 1,51,-1
 408 814 l 1,52,-1
 408 813 l 1,53,-1
 407 812 l 1,54,-1
 407 811 l 1,55,-1
 407 810 l 1,56,-1
 406 809 l 1,57,-1
 406 808 l 1,58,-1
 405 807 l 1,59,-1
 405 806 l 1,60,-1
 405 805 l 1,61,-1
 404 805 l 1,62,-1
 404 804 l 1,63,-1
 404 803 l 1,64,-1
 404 802 l 1,65,-1
 403 801 l 1,66,-1
 403 800 l 1,67,-1
 402 799 l 1,68,-1
 402 798 l 1,69,-1
 402 797 l 1,70,-1
 402 796 l 1,71,-1
 401 796 l 1,72,-1
 401 795 l 1,73,-1
 401 794 l 1,74,-1
 400 793 l 1,75,-1
 400 792 l 1,76,-1
 400 791 l 1,77,-1
 399 790 l 1,78,-1
 399 789 l 1,79,-1
 399 788 l 1,80,-1
 398 787 l 1,81,-1
 398 786 l 1,82,-1
 398 785 l 1,83,-1
 398 784 l 1,84,-1
 397 783 l 1,85,-1
 397 782 l 1,86,-1
 397 781 l 1,87,-1
 396 780 l 1,88,-1
 396 779 l 1,89,-1
 396 778 l 1,90,-1
 395 777 l 1,91,-1
 395 776 l 1,92,-1
 395 775 l 1,93,-1
 395 774 l 1,94,-1
 394 773 l 1,95,-1
 394 772 l 1,96,-1
 394 771 l 1,97,-1
 393 770 l 1,98,-1
 393 769 l 1,99,-1
 393 768 l 1,100,-1
 392 767 l 1,101,-1
 392 766 l 1,102,-1
 392 765 l 1,103,-1
 392 764 l 1,104,-1
 392 763 l 1,105,-1
 391 762 l 1,106,-1
 391 761 l 1,107,-1
 391 760 l 1,108,-1
 390 759 l 1,109,-1
 390 758 l 1,110,-1
 390 757 l 1,111,-1
 390 756 l 1,112,-1
 389 755 l 1,113,-1
 389 754 l 1,114,-1
 389 753 l 1,115,-1
 389 752 l 1,116,-1
 389 751 l 1,117,-1
 388 750 l 1,118,-1
 388 749 l 1,119,-1
 388 748 l 1,120,-1
 387 747 l 1,121,-1
 387 746 l 1,122,-1
 387 745 l 1,123,-1
 387 744 l 1,124,-1
 387 743 l 1,125,-1
 386 742 l 1,126,-1
 386 741 l 1,127,-1
 386 740 l 1,128,-1
 386 739 l 1,129,-1
 386 738 l 1,130,-1
 385 737 l 1,131,-1
 385 736 l 1,132,-1
 385 735 l 1,133,-1
 385 734 l 1,134,-1
 384 733 l 1,135,-1
 384 732 l 1,136,-1
 384 731 l 1,137,-1
 384 730 l 1,138,-1
 384 729 l 1,139,-1
 384 728 l 1,140,-1
 383 728 l 1,141,-1
 383 727 l 1,142,-1
 383 726 l 1,143,-1
 383 725 l 1,144,-1
 383 724 l 1,145,-1
 383 723 l 1,146,-1
 382 722 l 1,147,-1
 382 721 l 1,148,-1
 382 720 l 1,149,-1
 382 719 l 1,150,-1
 382 718 l 1,151,-1
 381 717 l 1,152,-1
 381 716 l 1,153,-1
 381 715 l 1,154,-1
 381 714 l 1,155,-1
 381 713 l 1,156,-1
 381 712 l 1,157,-1
 381 711 l 1,158,-1
 380 711 l 1,159,-1
 380 710 l 1,160,-1
 380 709 l 1,161,-1
 380 708 l 1,162,-1
 380 707 l 1,163,-1
 380 706 l 1,164,-1
 380 705 l 1,165,-1
 379 704 l 1,166,-1
 379 703 l 1,167,-1
 379 702 l 1,168,-1
 379 701 l 1,169,-1
 379 700 l 1,170,-1
 379 699 l 1,171,-1
 379 698 l 1,172,-1
 378 697 l 1,173,-1
 378 696 l 1,174,-1
 378 695 l 1,175,-1
 378 694 l 1,176,-1
 378 693 l 1,177,-1
 378 692 l 1,178,-1
 378 691 l 1,179,-1
 378 690 l 1,180,-1
 377 690 l 1,181,-1
 377 689 l 1,182,-1
 377 688 l 1,183,-1
 377 687 l 1,184,-1
 377 686 l 1,185,-1
 377 685 l 1,186,-1
 371 605 l 1,187,-1
 371 584 l 2,188,189
 371 519 371 519 381 462 c 128,-1,190
 391 405 391 405 405 369.5 c 128,-1,191
 419 334 419 334 433.5 308.5 c 128,-1,192
 448 283 448 283 457.5 272 c 128,-1,193
 467 261 467 261 468 261 c 2,37,-1
EndSplineSet
EndChar

StartChar: thorn
Encoding: 254 254 192
Width: 1319
GlyphClass: 2
Flags: W
LayerCount: 2
Fore
SplineSet
780 -16 m 0,0,1
 599 -16 599 -16 507 110 c 1,2,-1
 507 -406 l 1,3,-1
 156 -406 l 1,4,-1
 156 1578 l 1,5,-1
 503 1578 l 1,6,-1
 503 1041 l 1,7,8
 542 1109 542 1109 620 1143.5 c 128,-1,9
 698 1178 698 1178 792 1178 c 0,10,11
 911 1178 911 1178 1003 1132.5 c 128,-1,12
 1095 1087 1095 1087 1152 1005 c 128,-1,13
 1209 923 1209 923 1238 812 c 128,-1,14
 1267 701 1267 701 1267 565 c 0,15,16
 1267 286 1267 286 1133 135 c 128,-1,17
 999 -16 999 -16 780 -16 c 0,0,1
914 589 m 0,18,19
 914 942 914 942 712 942 c 0,20,21
 654 942 654 942 611 929 c 128,-1,22
 568 916 568 916 549 902.5 c 128,-1,23
 530 889 530 889 507 865 c 1,24,-1
 507 314 l 1,25,26
 605 218 605 218 743 218 c 0,27,28
 781 218 781 218 810.5 233 c 128,-1,29
 840 248 840 248 858 277 c 128,-1,30
 876 306 876 306 887.5 338.5 c 128,-1,31
 899 371 899 371 904.5 417.5 c 128,-1,32
 910 464 910 464 912 501.5 c 128,-1,33
 914 539 914 539 914 589 c 0,18,19
EndSplineSet
EndChar

StartChar: dotlessi
Encoding: 305 305 194
Width: 631
GlyphClass: 2
Flags: W
LayerCount: 2
Fore
SplineSet
506 -3 m 1,0,-1
 156 -3 l 1,1,-1
 156 1157 l 1,2,-1
 506 1157 l 1,3,-1
 506 -3 l 1,0,-1
EndSplineSet
EndChar

StartChar: Lslash
Encoding: 321 321 195
Width: 1184
GlyphClass: 2
Flags: W
LayerCount: 2
Fore
SplineSet
1157 0 m 1,0,-1
 106 0 l 1,1,-1
 106 616 l 1,2,-1
 -82 574 l 1,3,-1
 -82 836 l 1,4,-1
 106 878 l 1,5,-1
 106 1578 l 1,6,-1
 474 1578 l 1,7,-1
 474 961 l 1,8,-1
 700 1012 l 1,9,-1
 700 750 l 1,10,-1
 474 699 l 1,11,-1
 474 253 l 1,12,-1
 1157 253 l 1,13,-1
 1157 0 l 1,0,-1
EndSplineSet
EndChar

StartChar: lslash
Encoding: 322 322 196
Width: 684
GlyphClass: 2
Flags: W
LayerCount: 2
Fore
SplineSet
-33 574 m 1,0,-1
 -33 836 l 1,1,-1
 139 881 l 1,2,-1
 139 1678 l 1,3,-1
 490 1726 l 1,4,-1
 490 972 l 1,5,-1
 662 1016 l 1,6,-1
 662 754 l 1,7,-1
 490 710 l 1,8,-1
 490 0 l 1,9,-1
 139 0 l 1,10,-1
 139 619 l 1,11,-1
 -33 574 l 1,0,-1
EndSplineSet
EndChar

StartChar: OE
Encoding: 338 338 197
Width: 2150
GlyphClass: 2
Flags: W
LayerCount: 2
Fore
SplineSet
2223 0 m 1,0,-1
 1143 0 l 1,1,-1
 1143 80 l 1,2,3
 1071 29 1071 29 986.5 0.5 c 128,-1,4
 902 -28 902 -28 802 -28 c 0,5,6
 619 -28 619 -28 485 29 c 128,-1,7
 351 86 351 86 263.5 192.5 c 128,-1,8
 176 299 176 299 134 450 c 128,-1,9
 92 601 92 601 92 789 c 0,10,11
 92 981 92 981 136 1132.5 c 128,-1,12
 180 1284 180 1284 268.5 1389 c 128,-1,13
 357 1494 357 1494 490 1549.5 c 128,-1,14
 623 1605 623 1605 802 1605 c 0,15,16
 1000 1605 1000 1605 1143 1506 c 1,17,-1
 1143 1578 l 1,18,-1
 2213 1578 l 1,19,-1
 2213 1309 l 1,20,-1
 1511 1309 l 1,21,-1
 1511 929 l 1,22,-1
 2123 929 l 1,23,-1
 2123 703 l 1,24,-1
 1511 703 l 1,25,-1
 1511 266 l 1,26,-1
 2223 266 l 1,27,-1
 2223 0 l 1,0,-1
461 789 m 256,28,29
 461 675 461 675 476 574.5 c 128,-1,30
 491 474 491 474 529.5 399 c 128,-1,31
 568 324 568 324 634 281 c 128,-1,32
 700 238 700 238 802 238 c 0,33,34
 914 238 914 238 997.5 269.5 c 128,-1,35
 1081 301 1081 301 1143 356 c 1,36,-1
 1143 1232 l 1,37,38
 1081 1283 1081 1283 997.5 1311 c 128,-1,39
 914 1339 914 1339 802 1339 c 0,40,41
 700 1339 700 1339 634 1296 c 128,-1,42
 568 1253 568 1253 529.5 1178 c 128,-1,43
 491 1103 491 1103 476 1003 c 128,-1,44
 461 903 461 903 461 789 c 256,28,29
EndSplineSet
EndChar

StartChar: oe
Encoding: 339 339 198
Width: 2015
GlyphClass: 2
Flags: W
LayerCount: 2
Fore
SplineSet
1800 304 m 1,0,-1
 1866 70 l 1,1,2
 1773 22 1773 22 1675.5 -2 c 128,-1,3
 1578 -26 1578 -26 1477 -26 c 0,4,5
 1346 -26 1346 -26 1237.5 18.5 c 128,-1,6
 1129 63 1129 63 1050 152 c 1,7,8
 905 -26 905 -26 650 -26 c 0,9,10
 512 -26 512 -26 406 15 c 128,-1,11
 300 56 300 56 227.5 134 c 128,-1,12
 155 212 155 212 117.5 325 c 128,-1,13
 80 438 80 438 80 582 c 0,14,15
 80 727 80 727 118 841.5 c 128,-1,16
 156 956 156 956 228.5 1034.5 c 128,-1,17
 301 1113 301 1113 407 1154.5 c 128,-1,18
 513 1196 513 1196 649 1196 c 0,19,20
 778 1196 778 1196 879.5 1151 c 128,-1,21
 981 1106 981 1106 1053 1021 c 1,22,23
 1209 1196 1209 1196 1445 1196 c 0,24,25
 1562 1196 1562 1196 1651.5 1157 c 128,-1,26
 1741 1118 1741 1118 1801.5 1048 c 128,-1,27
 1862 978 1862 978 1893 880.5 c 128,-1,28
 1924 783 1924 783 1924 666 c 2,29,-1
 1924 502 l 1,30,-1
 1230 502 l 1,31,32
 1232 436 1232 436 1252 382 c 128,-1,33
 1272 328 1272 328 1307 290.5 c 128,-1,34
 1342 253 1342 253 1392 232.5 c 128,-1,35
 1442 212 1442 212 1504 212 c 0,36,37
 1590 212 1590 212 1663.5 235.5 c 128,-1,38
 1737 259 1737 259 1800 304 c 1,0,-1
484 299 m 256,39,40
 538 208 538 208 650 208 c 256,41,42
 762 208 762 208 816 299 c 128,-1,43
 870 390 870 390 870 584 c 0,44,45
 870 777 870 777 816 868.5 c 128,-1,46
 762 960 762 960 650 960 c 0,47,48
 537 960 537 960 483.5 868.5 c 128,-1,49
 430 777 430 777 430 584 c 0,50,51
 430 390 430 390 484 299 c 256,39,40
1640 676 m 1,52,53
 1640 819 1640 819 1591 889.5 c 128,-1,54
 1542 960 1542 960 1439 960 c 0,55,56
 1388 960 1388 960 1349 938.5 c 128,-1,57
 1310 917 1310 917 1283.5 879 c 128,-1,58
 1257 841 1257 841 1243 789 c 128,-1,59
 1229 737 1229 737 1229 676 c 1,60,-1
 1640 676 l 1,52,53
EndSplineSet
EndChar

StartChar: florin
Encoding: 402 402 204
Width: 801
GlyphClass: 2
Flags: W
LayerCount: 2
Fore
SplineSet
574 1436 m 0,0,1
 504 1436 504 1436 470.5 1376.5 c 128,-1,2
 437 1317 437 1317 437 1161 c 1,3,-1
 717 1161 l 1,4,-1
 717 1016 l 1,5,-1
 436 1016 l 1,6,-1
 436 0 l 1,7,-1
 86 0 l 1,8,-1
 86 1016 l 1,9,-1
 -104 1016 l 1,10,-1
 -104 1161 l 1,11,-1
 86 1161 l 1,12,13
 86 1426 86 1426 186 1560.5 c 128,-1,14
 286 1695 286 1695 494 1695 c 0,15,16
 608 1695 608 1695 723 1666 c 1,17,-1
 723 1411 l 1,18,19
 656 1436 656 1436 574 1436 c 0,0,1
EndSplineSet
EndChar

StartChar: circumflex
Encoding: 710 710 233
Width: 922
GlyphClass: 2
Flags: W
LayerCount: 2
Fore
SplineSet
381 1984 m 1,0,-1
 635 1984 l 1,1,-1
 893 1365 l 1,2,-1
 619 1365 l 1,3,-1
 507 1749 l 1,4,-1
 395 1365 l 1,5,-1
 123 1365 l 1,6,-1
 381 1984 l 1,0,-1
EndSplineSet
EndChar

StartChar: caron
Encoding: 711 711 234
Width: 922
GlyphClass: 2
Flags: W
LayerCount: 2
Fore
SplineSet
379 1262 m 1,0,-1
 123 1638 l 1,1,-1
 301 1638 l 1,2,-1
 500 1411 l 1,3,-1
 699 1638 l 1,4,-1
 877 1638 l 1,5,-1
 621 1262 l 1,6,-1
 379 1262 l 1,0,-1
EndSplineSet
EndChar

StartChar: uni02C9
Encoding: 713 713 235
Width: 922
GlyphClass: 2
Flags: W
LayerCount: 2
Fore
SplineSet
858 98 m 1,0,-1
 176 98 l 1,1,-1
 176 225 l 1,2,-1
 858 225 l 1,3,-1
 858 98 l 1,0,-1
EndSplineSet
EndChar

StartChar: breve
Encoding: 728 728 236
Width: 922
GlyphClass: 2
Flags: W
LayerCount: 2
Fore
SplineSet
158 1606 m 1,0,-1
 301 1606 l 1,1,2
 312 1536 312 1536 361.5 1499 c 128,-1,3
 411 1462 411 1462 494 1462 c 256,4,5
 577 1462 577 1462 626.5 1499 c 128,-1,6
 676 1536 676 1536 687 1606 c 1,7,-1
 830 1606 l 1,8,9
 824 1462 824 1462 737 1385.5 c 128,-1,10
 650 1309 650 1309 494 1309 c 256,11,12
 338 1309 338 1309 251 1385.5 c 128,-1,13
 164 1462 164 1462 158 1606 c 1,0,-1
EndSplineSet
EndChar

StartChar: dotaccent
Encoding: 729 729 237
Width: 922
GlyphClass: 2
Flags: W
LayerCount: 2
Fore
SplineSet
338 1585 m 1,0,-1
 612 1585 l 1,1,-1
 612 1339 l 1,2,-1
 338 1339 l 1,3,-1
 338 1585 l 1,0,-1
EndSplineSet
EndChar

StartChar: ring
Encoding: 730 730 238
Width: 922
GlyphClass: 2
Flags: W
LayerCount: 2
Fore
SplineSet
443 1442 m 0,0,1
 390 1392 390 1392 390 1316.5 c 128,-1,2
 390 1241 390 1241 443.5 1190.5 c 128,-1,3
 497 1140 497 1140 570.5 1140 c 128,-1,4
 644 1140 644 1140 697 1190.5 c 128,-1,5
 750 1241 750 1241 750 1316.5 c 128,-1,6
 750 1392 750 1392 697 1442.5 c 128,-1,7
 644 1493 644 1493 570.5 1493 c 128,-1,8
 497 1493 497 1493 443 1442 c 0,0,1
571 1656 m 256,9,10
 667 1656 667 1656 750 1613 c 128,-1,11
 833 1570 833 1570 884 1491.5 c 128,-1,12
 935 1413 935 1413 935 1317 c 128,-1,13
 935 1221 935 1221 884 1142 c 128,-1,14
 833 1063 833 1063 750 1020 c 128,-1,15
 667 977 667 977 571 977 c 256,16,17
 475 977 475 977 391.5 1020 c 128,-1,18
 308 1063 308 1063 256.5 1142 c 128,-1,19
 205 1221 205 1221 205 1316.5 c 128,-1,20
 205 1412 205 1412 256.5 1491 c 128,-1,21
 308 1570 308 1570 391.5 1613 c 128,-1,22
 475 1656 475 1656 571 1656 c 256,9,10
EndSplineSet
EndChar

StartChar: ogonek
Encoding: 731 731 239
Width: 922
GlyphClass: 2
Flags: W
LayerCount: 2
Fore
SplineSet
654 0 m 1,0,-1
 795 0 l 1,1,2
 745 -67 745 -67 726 -103.5 c 128,-1,3
 707 -140 707 -140 707 -166 c 0,4,5
 707 -205 707 -205 736.5 -229.5 c 128,-1,6
 766 -254 766 -254 815 -254 c 0,7,8
 854 -254 854 -254 892.5 -246.5 c 128,-1,9
 931 -239 931 -239 971 -223 c 1,10,-1
 971 -379 l 1,11,12
 916 -390 916 -390 869 -395.5 c 128,-1,13
 822 -401 822 -401 781 -401 c 0,14,15
 666 -401 666 -401 604.5 -355 c 128,-1,16
 543 -309 543 -309 543 -223 c 0,17,18
 543 -170 543 -170 570 -115.5 c 128,-1,19
 597 -61 597 -61 654 0 c 1,0,-1
635 496 m 1,20,21
 436 573 436 573 377 637 c 0,22,23
 307 713 307 713 307 864 c 128,-1,24
 307 1015 307 1015 430.5 1105.5 c 128,-1,25
 554 1196 554 1196 775 1196 c 0,26,27
 892 1196 892 1196 1010 1165.5 c 128,-1,28
 1128 1135 1128 1135 1180 1113 c 1,29,-1
 1204 1104 l 1,30,-1
 1138 882 l 1,31,32
 1065 910 1065 910 968 932.5 c 128,-1,33
 871 955 871 955 803 956.5 c 128,-1,34
 735 958 735 958 695 946.5 c 128,-1,35
 655 935 655 935 640.5 920 c 128,-1,36
 626 905 626 905 623.5 866 c 128,-1,37
 621 827 621 827 640 808 c 128,-1,38
 659 789 659 789 713 768 c 2,39,-1
 1011 654 l 1,40,41
 1074 631 1074 631 1118 599 c 0,42,43
 1226 521 1226 521 1226 348 c 0,44,45
 1226 112 1226 112 1019 26 c 0,46,47
 895 -25 895 -25 754 -25 c 0,48,49
 482 -25 482 -25 310 78 c 1,50,-1
 376 306 l 1,51,52
 451 272 451 272 557 243 c 1,53,54
 656 217 656 217 732 215 c 0,55,56
 819 213 819 213 854 233 c 0,57,58
 900 259 900 259 900 339 c 1,59,60
 899 392 899 392 792 434 c 2,61,-1
 635 496 l 1,20,21
EndSplineSet
EndChar

StartChar: tilde
Encoding: 732 732 240
Width: 922
GlyphClass: 2
Flags: W
LayerCount: 2
Fore
SplineSet
799 1414 m 0,0,1
 752 1414 752 1414 703.5 1429.5 c 128,-1,2
 655 1445 655 1445 615 1468 c 2,3,-1
 539 1512 l 1,4,5
 503 1534 503 1534 470.5 1549.5 c 128,-1,6
 438 1565 438 1565 415 1565 c 0,7,8
 384 1565 384 1565 369.5 1536.5 c 128,-1,9
 355 1508 355 1508 355 1440 c 1,10,-1
 147 1440 l 1,11,12
 147 1606 147 1606 204.5 1692 c 128,-1,13
 262 1778 262 1778 377 1778 c 0,14,15
 425 1778 425 1778 471 1763.5 c 128,-1,16
 517 1749 517 1749 552 1728 c 2,17,-1
 621 1685 l 2,18,19
 654 1664 654 1664 688.5 1649.5 c 128,-1,20
 723 1635 723 1635 753 1635 c 0,21,22
 788 1635 788 1635 799.5 1655.5 c 128,-1,23
 811 1676 811 1676 811 1739 c 1,24,-1
 1031 1739 l 1,25,26
 1031 1591 1031 1591 968.5 1502.5 c 128,-1,27
 906 1414 906 1414 799 1414 c 0,0,1
EndSplineSet
EndChar

StartChar: hungarumlaut
Encoding: 733 733 241
Width: 922
GlyphClass: 2
Flags: W
LayerCount: 2
Fore
SplineSet
368 1638 m 1,0,-1
 585 1638 l 1,1,-1
 337 1262 l 1,2,-1
 174 1262 l 1,3,-1
 368 1638 l 1,0,-1
731 1638 m 1,4,-1
 962 1638 l 1,5,-1
 690 1262 l 1,6,-1
 516 1262 l 1,7,-1
 731 1638 l 1,4,-1
EndSplineSet
EndChar

StartChar: uni030F
Encoding: 783 783 242
Width: 0
GlyphClass: 2
Flags: W
LayerCount: 2
Fore
SplineSet
-105 1262 m 1,0,-1
 -268 1262 l 1,1,-1
 -516 1638 l 1,2,-1
 -299 1638 l 1,3,-1
 -105 1262 l 1,0,-1
-447 1262 m 1,4,-1
 -621 1262 l 1,5,-1
 -893 1638 l 1,6,-1
 -662 1638 l 1,7,-1
 -447 1262 l 1,4,-1
EndSplineSet
EndChar

StartChar: uni0311
Encoding: 785 785 243
Width: 0
GlyphClass: 2
Flags: W
LayerCount: 2
Fore
SplineSet
-754 1309 m 1,0,1
 -748 1453 -748 1453 -661 1529.5 c 128,-1,2
 -574 1606 -574 1606 -418 1606 c 256,3,4
 -262 1606 -262 1606 -175 1529.5 c 128,-1,5
 -88 1453 -88 1453 -82 1309 c 1,6,-1
 -225 1309 l 1,7,8
 -236 1379 -236 1379 -285.5 1416 c 128,-1,9
 -335 1453 -335 1453 -418 1453 c 256,10,11
 -501 1453 -501 1453 -550.5 1416 c 128,-1,12
 -600 1379 -600 1379 -611 1309 c 1,13,-1
 -754 1309 l 1,0,1
EndSplineSet
EndChar

StartChar: uni0326
Encoding: 806 806 244
Width: 0
GlyphClass: 2
Flags: W
LayerCount: 2
Fore
SplineSet
-602 -625 m 1,0,-1
 -602 -210 l 1,1,-1
 -184 -210 l 1,2,-1
 -184 -572 l 2,3,4
 -184 -639 -184 -639 -204.5 -693.5 c 128,-1,5
 -225 -748 -225 -748 -256 -783.5 c 128,-1,6
 -287 -819 -287 -819 -337 -849 c 128,-1,7
 -387 -879 -387 -879 -432.5 -896.5 c 128,-1,8
 -478 -914 -478 -914 -539 -932 c 1,9,-1
 -601 -818 l 1,10,11
 -506 -784 -506 -784 -465 -742 c 128,-1,12
 -424 -700 -424 -700 -424 -625 c 1,13,-1
 -602 -625 l 1,0,-1
EndSplineSet
EndChar

StartChar: mu
Encoding: 956 956 245
Width: 1356
GlyphClass: 2
Flags: W
LayerCount: 2
Fore
SplineSet
639 -15 m 0,0,1
 611 -15 611 -15 578.5 -7.5 c 128,-1,2
 546 0 546 0 527.5 7 c 128,-1,3
 509 14 509 14 508 16 c 1,4,-1
 508 -488 l 1,5,-1
 158 -428 l 1,6,-1
 158 1161 l 1,7,-1
 508 1161 l 1,8,-1
 508 277 l 1,9,-1
 514 274 l 2,10,11
 520 271 520 271 532 265.5 c 128,-1,12
 544 260 544 260 559.5 253.5 c 128,-1,13
 575 247 575 247 594 240.5 c 128,-1,14
 613 234 613 234 631.5 229 c 128,-1,15
 650 224 650 224 670.5 221 c 128,-1,16
 691 218 691 218 707 219 c 0,17,18
 831 225 831 225 893 296 c 1,19,-1
 893 1161 l 1,20,-1
 1245 1161 l 1,21,-1
 1245 1 l 1,22,-1
 997 1 l 1,23,-1
 919 168 l 1,24,25
 910 136 910 136 889.5 105.5 c 128,-1,26
 869 75 869 75 836 47 c 128,-1,27
 803 19 803 19 752 2 c 128,-1,28
 701 -15 701 -15 639 -15 c 0,0,1
EndSplineSet
EndChar

StartChar: pi
Encoding: 960 960 246
Width: 1458
GlyphClass: 2
Flags: W
LayerCount: 2
Fore
SplineSet
1467 1092 m 1,0,-1
 1428 868 l 1,1,-1
 1252 868 l 1,2,-1
 1098 0 l 1,3,-1
 811 0 l 1,4,-1
 963 868 l 1,5,-1
 725 868 l 1,6,-1
 574 0 l 1,7,-1
 287 0 l 1,8,-1
 439 868 l 1,9,-1
 414 868 l 2,10,11
 359 868 359 868 330 837 c 128,-1,12
 301 806 301 806 291 738 c 1,13,-1
 78 737 l 1,14,15
 107 936 107 936 201 1014 c 128,-1,16
 295 1092 295 1092 512 1092 c 2,17,-1
 1467 1092 l 1,0,-1
EndSplineSet
EndChar

StartChar: uni2010
Encoding: 8208 8208 258
Width: 766
GlyphClass: 2
Flags: W
LayerCount: 2
Fore
SplineSet
894 574 m 1,0,-1
 100 574 l 1,1,-1
 100 836 l 1,2,-1
 894 836 l 1,3,-1
 894 574 l 1,0,-1
EndSplineSet
EndChar

StartChar: uni2011
Encoding: 8209 8209 259
Width: 766
GlyphClass: 2
Flags: W
LayerCount: 2
Fore
SplineSet
894 574 m 1,0,-1
 100 574 l 1,1,-1
 100 836 l 1,2,-1
 894 836 l 1,3,-1
 894 574 l 1,0,-1
EndSplineSet
EndChar

StartChar: endash
Encoding: 8211 8211 260
Width: 922
GlyphClass: 2
Flags: W
LayerCount: 2
Fore
SplineSet
98 574 m 1,0,-1
 98 836 l 1,1,-1
 796 836 l 1,2,-1
 796 574 l 1,3,-1
 98 574 l 1,0,-1
EndSplineSet
EndChar

StartChar: emdash
Encoding: 8212 8212 261
Width: 1843
GlyphClass: 2
Flags: W
LayerCount: 2
Fore
SplineSet
98 574 m 1,0,-1
 98 836 l 1,1,-1
 1820 836 l 1,2,-1
 1820 574 l 1,3,-1
 98 574 l 1,0,-1
EndSplineSet
EndChar

StartChar: quoteleft
Encoding: 8216 8216 262
Width: 700
GlyphClass: 2
Flags: W
LayerCount: 2
Fore
SplineSet
608 1271 m 1,0,-1
 608 856 l 1,1,-1
 190 856 l 1,2,-1
 190 1218 l 2,3,4
 190 1285 190 1285 210.5 1339.5 c 128,-1,5
 231 1394 231 1394 262 1429.5 c 128,-1,6
 293 1465 293 1465 343 1495 c 128,-1,7
 393 1525 393 1525 438.5 1542.5 c 128,-1,8
 484 1560 484 1560 545 1578 c 1,9,-1
 607 1464 l 1,10,11
 512 1430 512 1430 471 1388 c 128,-1,12
 430 1346 430 1346 430 1271 c 1,13,-1
 608 1271 l 1,0,-1
EndSplineSet
EndChar

StartChar: quoteright
Encoding: 8217 8217 263
Width: 700
GlyphClass: 2
Flags: W
LayerCount: 2
Fore
SplineSet
117 1163 m 1,0,-1
 117 1578 l 1,1,-1
 535 1578 l 1,2,-1
 535 1216 l 2,3,4
 535 1149 535 1149 514.5 1094.5 c 128,-1,5
 494 1040 494 1040 463 1004.5 c 128,-1,6
 432 969 432 969 382 939 c 128,-1,7
 332 909 332 909 286.5 891.5 c 128,-1,8
 241 874 241 874 180 856 c 1,9,-1
 118 970 l 1,10,11
 213 1004 213 1004 254 1046 c 128,-1,12
 295 1088 295 1088 295 1163 c 1,13,-1
 117 1163 l 1,0,-1
EndSplineSet
EndChar

StartChar: quotesinglbase
Encoding: 8218 8218 264
Width: 700
GlyphClass: 2
Flags: W
LayerCount: 2
Fore
SplineSet
131 0 m 1,0,-1
 131 415 l 1,1,-1
 549 415 l 1,2,-1
 549 53 l 2,3,4
 549 -14 549 -14 528.5 -68.5 c 128,-1,5
 508 -123 508 -123 477 -158.5 c 128,-1,6
 446 -194 446 -194 396 -224 c 128,-1,7
 346 -254 346 -254 300.5 -271.5 c 128,-1,8
 255 -289 255 -289 194 -307 c 1,9,-1
 132 -193 l 1,10,11
 227 -159 227 -159 268 -117 c 128,-1,12
 309 -75 309 -75 309 0 c 1,13,-1
 131 0 l 1,0,-1
EndSplineSet
EndChar

StartChar: quotedblleft
Encoding: 8220 8220 265
Width: 1210
GlyphClass: 2
Flags: W
LayerCount: 2
Fore
SplineSet
608 1271 m 1,0,-1
 608 856 l 1,1,-1
 190 856 l 1,2,-1
 190 1218 l 2,3,4
 190 1285 190 1285 210.5 1339.5 c 128,-1,5
 231 1394 231 1394 262 1429.5 c 128,-1,6
 293 1465 293 1465 343 1495 c 128,-1,7
 393 1525 393 1525 438.5 1542.5 c 128,-1,8
 484 1560 484 1560 545 1578 c 1,9,-1
 607 1464 l 1,10,11
 512 1430 512 1430 471 1388 c 128,-1,12
 430 1346 430 1346 430 1271 c 1,13,-1
 608 1271 l 1,0,-1
1132 1271 m 1,14,-1
 1132 856 l 1,15,-1
 714 856 l 1,16,-1
 714 1218 l 2,17,18
 714 1285 714 1285 734.5 1339.5 c 128,-1,19
 755 1394 755 1394 786 1429.5 c 128,-1,20
 817 1465 817 1465 867 1495 c 128,-1,21
 917 1525 917 1525 962.5 1542.5 c 128,-1,22
 1008 1560 1008 1560 1069 1578 c 1,23,-1
 1131 1464 l 1,24,25
 1036 1430 1036 1430 995 1388 c 128,-1,26
 954 1346 954 1346 954 1271 c 1,27,-1
 1132 1271 l 1,14,-1
EndSplineSet
EndChar

StartChar: quotedblright
Encoding: 8221 8221 266
Width: 1210
GlyphClass: 2
Flags: W
LayerCount: 2
Fore
SplineSet
694 1163 m 1,0,-1
 694 1578 l 1,1,-1
 1112 1578 l 1,2,-1
 1112 1216 l 2,3,4
 1112 1149 1112 1149 1091.5 1094.5 c 128,-1,5
 1071 1040 1071 1040 1040 1004.5 c 128,-1,6
 1009 969 1009 969 959 939 c 128,-1,7
 909 909 909 909 863.5 891.5 c 128,-1,8
 818 874 818 874 757 856 c 1,9,-1
 695 970 l 1,10,11
 790 1004 790 1004 831 1046 c 128,-1,12
 872 1088 872 1088 872 1163 c 1,13,-1
 694 1163 l 1,0,-1
170 1163 m 1,14,-1
 170 1578 l 1,15,-1
 588 1578 l 1,16,-1
 588 1216 l 2,17,18
 588 1149 588 1149 567.5 1094.5 c 128,-1,19
 547 1040 547 1040 516 1004.5 c 128,-1,20
 485 969 485 969 435 939 c 128,-1,21
 385 909 385 909 339.5 891.5 c 128,-1,22
 294 874 294 874 233 856 c 1,23,-1
 171 970 l 1,24,25
 266 1004 266 1004 307 1046 c 128,-1,26
 348 1088 348 1088 348 1163 c 1,27,-1
 170 1163 l 1,14,-1
EndSplineSet
EndChar

StartChar: quotedblbase
Encoding: 8222 8222 267
Width: 1210
GlyphClass: 2
Flags: W
LayerCount: 2
Fore
SplineSet
655 0 m 1,0,-1
 655 415 l 1,1,-1
 1073 415 l 1,2,-1
 1073 53 l 2,3,4
 1073 -14 1073 -14 1052.5 -68.5 c 128,-1,5
 1032 -123 1032 -123 1001 -158.5 c 128,-1,6
 970 -194 970 -194 920 -224 c 128,-1,7
 870 -254 870 -254 824.5 -271.5 c 128,-1,8
 779 -289 779 -289 718 -307 c 1,9,-1
 656 -193 l 1,10,11
 751 -159 751 -159 792 -117 c 128,-1,12
 833 -75 833 -75 833 0 c 1,13,-1
 655 0 l 1,0,-1
131 0 m 1,14,-1
 131 415 l 1,15,-1
 549 415 l 1,16,-1
 549 53 l 2,17,18
 549 -14 549 -14 528.5 -68.5 c 128,-1,19
 508 -123 508 -123 477 -158.5 c 128,-1,20
 446 -194 446 -194 396 -224 c 128,-1,21
 346 -254 346 -254 300.5 -271.5 c 128,-1,22
 255 -289 255 -289 194 -307 c 1,23,-1
 132 -193 l 1,24,25
 227 -159 227 -159 268 -117 c 128,-1,26
 309 -75 309 -75 309 0 c 1,27,-1
 131 0 l 1,14,-1
EndSplineSet
EndChar

StartChar: dagger
Encoding: 8224 8224 268
Width: 922
GlyphClass: 2
Flags: W
LayerCount: 2
Fore
SplineSet
336 1493 m 1,0,-1
 666 1493 l 1,1,-1
 666 1112 l 1,2,-1
 957 1112 l 1,3,-1
 957 874 l 1,4,-1
 666 874 l 1,5,-1
 666 -197 l 1,6,-1
 336 -197 l 1,7,-1
 336 874 l 1,8,-1
 47 874 l 1,9,-1
 47 1112 l 1,10,-1
 336 1112 l 1,11,-1
 336 1493 l 1,0,-1
EndSplineSet
EndChar

StartChar: daggerdbl
Encoding: 8225 8225 269
Width: 922
GlyphClass: 2
Flags: W
LayerCount: 2
Fore
SplineSet
336 1493 m 1,0,-1
 666 1493 l 1,1,-1
 666 1112 l 1,2,-1
 957 1112 l 1,3,-1
 957 874 l 1,4,-1
 666 874 l 1,5,-1
 666 422 l 1,6,-1
 957 422 l 1,7,-1
 957 184 l 1,8,-1
 666 184 l 1,9,-1
 666 -197 l 1,10,-1
 336 -197 l 1,11,-1
 336 184 l 1,12,-1
 45 184 l 1,13,-1
 45 422 l 1,14,-1
 336 422 l 1,15,-1
 336 874 l 1,16,-1
 47 874 l 1,17,-1
 47 1112 l 1,18,-1
 336 1112 l 1,19,-1
 336 1493 l 1,0,-1
EndSplineSet
EndChar

StartChar: bullet
Encoding: 8226 8226 270
Width: 1178
GlyphClass: 2
Flags: W
LayerCount: 2
Fore
SplineSet
849 365 m 0,0,1
 759 317 759 317 657 317 c 128,-1,2
 555 317 555 317 465 365 c 128,-1,3
 375 413 375 413 320.5 497 c 128,-1,4
 266 581 266 581 266 680 c 128,-1,5
 266 779 266 779 320.5 863 c 128,-1,6
 375 947 375 947 465 995.5 c 128,-1,7
 555 1044 555 1044 657 1044 c 128,-1,8
 759 1044 759 1044 849.5 995.5 c 128,-1,9
 940 947 940 947 995 863 c 128,-1,10
 1050 779 1050 779 1050 680.5 c 128,-1,11
 1050 582 1050 582 995 497.5 c 128,-1,12
 940 413 940 413 849 365 c 0,0,1
EndSplineSet
EndChar

StartChar: ellipsis
Encoding: 8230 8230 271
Width: 1843
GlyphClass: 2
Flags: W
LayerCount: 2
Fore
SplineSet
200 55 m 1,0,1
 145 111 145 111 145 194 c 128,-1,2
 145 277 145 277 200.5 332.5 c 128,-1,3
 256 388 256 388 338 388 c 128,-1,4
 420 388 420 388 477 332.5 c 128,-1,5
 534 277 534 277 534 194 c 128,-1,6
 534 111 534 111 477 55.5 c 128,-1,7
 420 0 420 0 338 0 c 128,-1,8
 256 0 256 0 200 55 c 1,0,1
742 55 m 1,9,10
 687 111 687 111 687 194 c 128,-1,11
 687 277 687 277 742.5 332.5 c 128,-1,12
 798 388 798 388 880 388 c 128,-1,13
 962 388 962 388 1019 332.5 c 128,-1,14
 1076 277 1076 277 1076 194 c 128,-1,15
 1076 111 1076 111 1019 55.5 c 128,-1,16
 962 0 962 0 880 0 c 128,-1,17
 798 0 798 0 742 55 c 1,9,10
1302 55 m 1,18,19
 1247 111 1247 111 1247 194 c 128,-1,20
 1247 277 1247 277 1302.5 332.5 c 128,-1,21
 1358 388 1358 388 1440 388 c 128,-1,22
 1522 388 1522 388 1579 332.5 c 128,-1,23
 1636 277 1636 277 1636 194 c 128,-1,24
 1636 111 1636 111 1579 55.5 c 128,-1,25
 1522 0 1522 0 1440 0 c 128,-1,26
 1358 0 1358 0 1302 55 c 1,18,19
EndSplineSet
EndChar

StartChar: perthousand
Encoding: 8240 8240 273
Width: 2654
GlyphClass: 2
Flags: W
LayerCount: 2
Fore
SplineSet
606 1150 m 0,0,1
 606 1216 606 1216 594.5 1262 c 128,-1,2
 583 1308 583 1308 561 1333 c 128,-1,3
 539 1358 539 1358 511.5 1368.5 c 128,-1,4
 484 1379 484 1379 446 1379 c 0,5,6
 370 1379 370 1379 330 1326.5 c 128,-1,7
 290 1274 290 1274 290 1150 c 0,8,9
 290 1081 290 1081 301.5 1034 c 128,-1,10
 313 987 313 987 335.5 962 c 128,-1,11
 358 937 358 937 384 927 c 128,-1,12
 410 917 410 917 446 917 c 0,13,14
 523 917 523 917 564.5 970.5 c 128,-1,15
 606 1024 606 1024 606 1150 c 0,0,1
59 1130 m 0,16,17
 59 1211 59 1211 72 1277 c 128,-1,18
 85 1343 85 1343 106.5 1388.5 c 128,-1,19
 128 1434 128 1434 159 1469 c 128,-1,20
 190 1504 190 1504 222.5 1524.5 c 128,-1,21
 255 1545 255 1545 294 1557.5 c 128,-1,22
 333 1570 333 1570 367 1574.5 c 128,-1,23
 401 1579 401 1579 438 1579 c 0,24,25
 532 1579 532 1579 605.5 1552.5 c 128,-1,26
 679 1526 679 1526 723.5 1484 c 128,-1,27
 768 1442 768 1442 797.5 1384.5 c 128,-1,28
 827 1327 827 1327 838 1270.5 c 128,-1,29
 849 1214 849 1214 849 1152 c 0,30,31
 849 1091 849 1091 838.5 1033.5 c 128,-1,32
 828 976 828 976 799.5 916 c 128,-1,33
 771 856 771 856 727.5 811.5 c 128,-1,34
 684 767 684 767 611 739 c 128,-1,35
 538 711 538 711 446 711 c 0,36,37
 381 711 381 711 326 726 c 128,-1,38
 271 741 271 741 232.5 766.5 c 128,-1,39
 194 792 194 792 163 827 c 128,-1,40
 132 862 132 862 113 899.5 c 128,-1,41
 94 937 94 937 81.5 979 c 128,-1,42
 69 1021 69 1021 64 1058 c 128,-1,43
 59 1095 59 1095 59 1130 c 0,16,17
1664 439 m 0,44,45
 1664 505 1664 505 1653 551 c 128,-1,46
 1642 597 1642 597 1620 622 c 128,-1,47
 1598 647 1598 647 1570 657.5 c 128,-1,48
 1542 668 1542 668 1504 668 c 0,49,50
 1429 668 1429 668 1388.5 615.5 c 128,-1,51
 1348 563 1348 563 1348 439 c 0,52,53
 1348 370 1348 370 1360 323 c 128,-1,54
 1372 276 1372 276 1394 251 c 128,-1,55
 1416 226 1416 226 1442.5 216 c 128,-1,56
 1469 206 1469 206 1504 206 c 0,57,58
 1581 206 1581 206 1622.5 259.5 c 128,-1,59
 1664 313 1664 313 1664 439 c 0,44,45
455 -29 m 1,60,-1
 1222 1674 l 1,61,-1
 1449 1592 l 1,62,-1
 674 -107 l 1,63,-1
 455 -29 l 1,60,-1
1117 419 m 0,64,65
 1117 500 1117 500 1130 566 c 128,-1,66
 1143 632 1143 632 1164.5 677.5 c 128,-1,67
 1186 723 1186 723 1217 758 c 128,-1,68
 1248 793 1248 793 1280.5 813.5 c 128,-1,69
 1313 834 1313 834 1352 846.5 c 128,-1,70
 1391 859 1391 859 1425 863.5 c 128,-1,71
 1459 868 1459 868 1496 868 c 0,72,73
 1590 868 1590 868 1663.5 841.5 c 128,-1,74
 1737 815 1737 815 1782 773 c 128,-1,75
 1827 731 1827 731 1856 673.5 c 128,-1,76
 1885 616 1885 616 1896 559.5 c 128,-1,77
 1907 503 1907 503 1907 441 c 0,78,79
 1907 380 1907 380 1896.5 322.5 c 128,-1,80
 1886 265 1886 265 1857.5 205 c 128,-1,81
 1829 145 1829 145 1785.5 100.5 c 128,-1,82
 1742 56 1742 56 1669.5 28 c 128,-1,83
 1597 0 1597 0 1504 0 c 0,84,85
 1439 0 1439 0 1384.5 15 c 128,-1,86
 1330 30 1330 30 1291 55.5 c 128,-1,87
 1252 81 1252 81 1221 116 c 128,-1,88
 1190 151 1190 151 1171 188.5 c 128,-1,89
 1152 226 1152 226 1139.5 268 c 128,-1,90
 1127 310 1127 310 1122 347 c 128,-1,91
 1117 384 1117 384 1117 419 c 0,64,65
2553 439 m 0,92,93
 2553 505 2553 505 2542 551 c 128,-1,94
 2531 597 2531 597 2509 622 c 128,-1,95
 2487 647 2487 647 2459 657.5 c 128,-1,96
 2431 668 2431 668 2393 668 c 0,97,98
 2318 668 2318 668 2277.5 615.5 c 128,-1,99
 2237 563 2237 563 2237 439 c 0,100,101
 2237 370 2237 370 2249 323 c 128,-1,102
 2261 276 2261 276 2283 251 c 128,-1,103
 2305 226 2305 226 2331.5 216 c 128,-1,104
 2358 206 2358 206 2393 206 c 0,105,106
 2470 206 2470 206 2511.5 259.5 c 128,-1,107
 2553 313 2553 313 2553 439 c 0,92,93
2006 419 m 0,108,109
 2006 500 2006 500 2019 566 c 128,-1,110
 2032 632 2032 632 2053.5 677.5 c 128,-1,111
 2075 723 2075 723 2106 758 c 128,-1,112
 2137 793 2137 793 2169.5 813.5 c 128,-1,113
 2202 834 2202 834 2241 846.5 c 128,-1,114
 2280 859 2280 859 2314 863.5 c 128,-1,115
 2348 868 2348 868 2385 868 c 0,116,117
 2479 868 2479 868 2552.5 841.5 c 128,-1,118
 2626 815 2626 815 2671 773 c 128,-1,119
 2716 731 2716 731 2745 673.5 c 128,-1,120
 2774 616 2774 616 2785 559.5 c 128,-1,121
 2796 503 2796 503 2796 441 c 0,122,123
 2796 380 2796 380 2785.5 322.5 c 128,-1,124
 2775 265 2775 265 2746.5 205 c 128,-1,125
 2718 145 2718 145 2674.5 100.5 c 128,-1,126
 2631 56 2631 56 2558.5 28 c 128,-1,127
 2486 0 2486 0 2393 0 c 0,128,129
 2328 0 2328 0 2273.5 15 c 128,-1,130
 2219 30 2219 30 2180 55.5 c 128,-1,131
 2141 81 2141 81 2110 116 c 128,-1,132
 2079 151 2079 151 2060 188.5 c 128,-1,133
 2041 226 2041 226 2028.5 268 c 128,-1,134
 2016 310 2016 310 2011 347 c 128,-1,135
 2006 384 2006 384 2006 419 c 0,108,109
EndSplineSet
EndChar

StartChar: guilsinglleft
Encoding: 8249 8249 274
Width: 760
GlyphClass: 2
Flags: W
LayerCount: 2
Fore
SplineSet
141 476 m 1,0,-1
 141 712 l 1,1,-1
 981 1225 l 1,2,-1
 982 924 l 1,3,-1
 436 594 l 1,4,-1
 982 264 l 1,5,-1
 981 -37 l 1,6,-1
 141 476 l 1,0,-1
EndSplineSet
EndChar

StartChar: guilsinglright
Encoding: 8250 8250 275
Width: 760
GlyphClass: 2
Flags: W
LayerCount: 2
Fore
SplineSet
1015 476 m 1,0,-1
 175 -37 l 1,1,-1
 174 264 l 1,2,-1
 712 594 l 1,3,-1
 174 924 l 1,4,-1
 175 1225 l 1,5,-1
 1015 712 l 1,6,-1
 1015 476 l 1,0,-1
EndSplineSet
EndChar

StartChar: fraction
Encoding: 8260 8260 276
Width: 307
GlyphClass: 2
Flags: W
LayerCount: 2
Fore
SplineSet
-367 358 m 1,0,-1
 204 2085 l 1,1,-1
 485 1996 l 1,2,-1
 -91 271 l 1,3,-1
 -367 358 l 1,0,-1
EndSplineSet
EndChar

StartChar: foursuperior
Encoding: 8308 8308 278
Width: 1159
GlyphClass: 2
Flags: W
LayerCount: 2
Fore
SplineSet
653 1579 m 1,0,-1
 860 1526 l 1,1,-1
 860 859 l 1,2,-1
 999 859 l 1,3,-1
 999 652 l 1,4,-1
 860 652 l 1,5,-1
 860 431 l 1,6,-1
 616 432 l 1,7,-1
 616 652 l 1,8,-1
 167 652 l 1,9,-1
 134 813 l 1,10,-1
 653 1579 l 1,0,-1
440 857 m 1,11,-1
 616 857 l 1,12,-1
 616 1153 l 1,13,-1
 440 857 l 1,11,-1
EndSplineSet
EndChar

StartChar: Euro
Encoding: 8364 8364 279
Width: 1282
GlyphClass: 2
Flags: W
LayerCount: 2
Fore
SplineSet
580 645 m 1,0,-1
 386 645 l 1,1,2
 385 631 385 631 384.5 618.5 c 128,-1,3
 384 606 384 606 384 592 c 2,4,-1
 384 557 l 1,5,-1
 580 557 l 1,6,-1
 580 413 l 1,7,-1
 404 413 l 1,8,9
 429 319 429 319 487.5 266 c 128,-1,10
 546 213 546 213 648 213 c 0,11,12
 683 213 683 213 712 219.5 c 128,-1,13
 741 226 741 226 765 237 c 1,14,-1
 765 -19 l 1,15,16
 732 -24 732 -24 698 -25.5 c 128,-1,17
 664 -27 664 -27 626 -27 c 0,18,19
 512 -27 512 -27 420 3.5 c 128,-1,20
 328 34 328 34 259.5 91 c 128,-1,21
 191 148 191 148 146 229.5 c 128,-1,22
 101 311 101 311 81 413 c 1,23,-1
 -35 413 l 1,24,-1
 -35 557 l 1,25,-1
 64 557 l 1,26,-1
 64 590 l 2,27,28
 64 604 64 604 64 617.5 c 128,-1,29
 64 631 64 631 65 645 c 1,30,-1
 -35 645 l 1,31,-1
 -35 789 l 1,32,-1
 85 789 l 1,33,34
 107 888 107 888 153 965.5 c 128,-1,35
 199 1043 199 1043 267 1096.5 c 128,-1,36
 335 1150 335 1150 425.5 1178 c 128,-1,37
 516 1206 516 1206 628 1206 c 0,38,39
 663 1206 663 1206 698.5 1204 c 128,-1,40
 734 1202 734 1202 766 1198 c 1,41,-1
 766 942 l 1,42,43
 742 953 742 953 712.5 959.5 c 128,-1,44
 683 966 683 966 648 966 c 0,45,46
 600 966 600 966 562.5 953 c 128,-1,47
 525 940 525 940 496.5 916.5 c 128,-1,48
 468 893 468 893 447.5 860.5 c 128,-1,49
 427 828 427 828 414 789 c 1,50,-1
 580 789 l 1,51,-1
 580 645 l 1,0,-1
EndSplineSet
EndChar

StartChar: trademark
Encoding: 8482 8482 280
Width: 1843
GlyphClass: 2
Flags: W
LayerCount: 2
Fore
SplineSet
1018 1330 m 1,0,-1
 762 1330 l 1,1,-1
 762 486 l 1,2,-1
 527 486 l 1,3,-1
 527 1330 l 1,4,-1
 266 1330 l 1,5,-1
 266 1492 l 1,6,-1
 1018 1492 l 1,7,-1
 1018 1330 l 1,0,-1
1544 486 m 1,8,-1
 1316 1178 l 1,9,-1
 1316 486 l 1,10,-1
 1121 486 l 1,11,-1
 1121 1492 l 1,12,-1
 1398 1492 l 1,13,-1
 1648 746 l 1,14,-1
 1907 1492 l 1,15,-1
 2185 1492 l 1,16,-1
 2185 486 l 1,17,-1
 1990 486 l 1,18,-1
 1990 1178 l 1,19,-1
 1763 486 l 1,20,-1
 1544 486 l 1,8,-1
EndSplineSet
EndChar

StartChar: Delta
Encoding: 8710 8710 281
Width: 1284
GlyphClass: 2
Flags: W
LayerCount: 2
Fore
SplineSet
480 1573 m 1,0,-1
 960 467 l 1,1,-1
 0 467 l 1,2,-1
 480 1573 l 1,0,-1
480 1249 m 1,3,-1
 195 552 l 1,4,-1
 765 552 l 1,5,-1
 480 1249 l 1,3,-1
EndSplineSet
EndChar

StartChar: product
Encoding: 8719 8719 282
Width: 1450
GlyphClass: 2
Flags: W
LayerCount: 2
Fore
SplineSet
135 1473 m 1,0,-1
 1443 1473 l 1,1,-1
 1443 -393 l 1,2,-1
 1099 -393 l 1,3,-1
 1099 1184 l 1,4,-1
 479 1184 l 1,5,-1
 479 -393 l 1,6,-1
 135 -393 l 1,7,-1
 135 1473 l 1,0,-1
EndSplineSet
EndChar

StartChar: summation
Encoding: 8721 8721 283
Width: 1323
GlyphClass: 2
Flags: W
LayerCount: 2
Fore
SplineSet
62 1473 m 1,0,-1
 1370 1473 l 1,1,-1
 1370 1208 l 1,2,-1
 492 1208 l 1,3,-1
 1112 563 l 1,4,-1
 490 -127 l 1,5,-1
 1423 -127 l 1,6,-1
 1423 -393 l 1,7,-1
 37 -393 l 1,8,-1
 37 -221 l 1,9,-1
 735 551 l 1,10,-1
 62 1241 l 1,11,-1
 62 1473 l 1,0,-1
EndSplineSet
EndChar

StartChar: radical
Encoding: 8730 8730 285
Width: 1229
GlyphClass: 2
Flags: W
LayerCount: 2
Fore
SplineSet
1147 1714 m 1,0,-1
 1362 1714 l 1,1,-1
 1362 1565 l 1,2,-1
 1266 1565 l 1,3,-1
 676 -41 l 1,4,-1
 557 -41 l 1,5,-1
 250 805 l 1,6,-1
 105 750 l 1,7,-1
 68 879 l 1,8,-1
 428 1006 l 1,9,-1
 651 371 l 1,10,-1
 1147 1714 l 1,0,-1
EndSplineSet
EndChar

StartChar: infinity
Encoding: 8734 8734 286
Width: 1536
GlyphClass: 2
Flags: W
LayerCount: 2
Fore
SplineSet
931 561 m 1,0,1
 974 494 974 494 1033 460 c 128,-1,2
 1092 426 1092 426 1165 426 c 0,3,4
 1255 426 1255 426 1311.5 476.5 c 128,-1,5
 1368 527 1368 527 1368 606 c 0,6,7
 1368 683 1368 683 1316.5 733.5 c 128,-1,8
 1265 784 1265 784 1189 784 c 0,9,10
 1117 784 1117 784 1057.5 733.5 c 128,-1,11
 998 683 998 683 931 561 c 1,0,1
727 657 m 1,12,13
 684 724 684 724 626 757.5 c 128,-1,14
 568 791 568 791 493 791 c 0,15,16
 403 791 403 791 346.5 741 c 128,-1,17
 290 691 290 691 290 612 c 0,18,19
 290 535 290 535 341 484.5 c 128,-1,20
 392 434 392 434 469 434 c 0,21,22
 540 434 540 434 601 486.5 c 128,-1,23
 662 539 662 539 727 657 c 1,12,13
831 442 m 1,24,25
 763 312 763 312 683.5 249 c 128,-1,26
 604 186 604 186 507 186 c 0,27,28
 368 186 368 186 269 307.5 c 128,-1,29
 170 429 170 429 170 608 c 0,30,31
 170 796 170 796 257.5 913 c 128,-1,32
 345 1030 345 1030 485 1030 c 0,33,34
 575 1030 575 1030 651.5 973.5 c 128,-1,35
 728 917 728 917 827 774 c 1,36,37
 898 906 898 906 977 969 c 128,-1,38
 1056 1032 1056 1032 1151 1032 c 0,39,40
 1291 1032 1291 1032 1389.5 911 c 128,-1,41
 1488 790 1488 790 1488 610 c 0,42,43
 1488 421 1488 421 1400.5 303.5 c 128,-1,44
 1313 186 1313 186 1173 186 c 0,45,46
 1082 186 1082 186 1007 241 c 128,-1,47
 932 296 932 296 831 442 c 1,24,25
EndSplineSet
EndChar

StartChar: integral
Encoding: 8747 8747 287
Width: 1124
GlyphClass: 2
Flags: W
LayerCount: 2
Fore
SplineSet
338 -248 m 0,0,1
 437 -248 437 -248 457 419 c 0,2,3
 460 520 460 520 461 573 c 0,4,5
 478 1096 478 1096 591.5 1326 c 128,-1,6
 705 1556 705 1556 941 1556 c 0,7,8
 1046 1556 1046 1556 1111 1503 c 128,-1,9
 1176 1450 1176 1450 1176 1366 c 0,10,11
 1176 1302 1176 1302 1135 1262.5 c 128,-1,12
 1094 1223 1094 1223 1029 1223 c 0,13,14
 965 1223 965 1223 932.5 1261.5 c 128,-1,15
 900 1300 900 1300 900 1374 c 0,16,17
 900 1412 900 1412 892.5 1423 c 128,-1,18
 885 1434 885 1434 867 1434 c 0,19,20
 766 1434 766 1434 743 767 c 0,21,22
 741 707 741 707 740 676 c 0,23,24
 729 347 729 347 709.5 203.5 c 128,-1,25
 690 60 690 60 652 -41 c 0,26,27
 590 -207 590 -207 492.5 -290 c 128,-1,28
 395 -373 395 -373 263 -373 c 0,29,30
 156 -373 156 -373 91.5 -321 c 128,-1,31
 27 -269 27 -269 27 -182 c 0,32,33
 27 -117 27 -117 69 -78 c 128,-1,34
 111 -39 111 -39 181 -39 c 0,35,36
 241 -39 241 -39 273.5 -75 c 128,-1,37
 306 -111 306 -111 306 -178 c 0,38,39
 306 -190 306 -190 304 -202 c 0,40,41
 304 -204 304 -204 304 -205 c 0,42,43
 304 -229 304 -229 312 -238.5 c 128,-1,44
 320 -248 320 -248 338 -248 c 0,0,1
EndSplineSet
EndChar

StartChar: approxequal
Encoding: 8776 8776 288
Width: 1544
GlyphClass: 2
Flags: W
LayerCount: 2
Fore
SplineSet
1477 1059 m 1,0,-1
 1477 815 l 1,1,2
 1371 735 1371 735 1281.5 700.5 c 128,-1,3
 1192 666 1192 666 1096 666 c 0,4,5
 989 666 989 666 846 724 c 0,6,7
 832 730 832 730 824 733 c 0,8,9
 817 736 817 736 802 742 c 0,10,11
 647 803 647 803 553 803 c 0,12,13
 465 803 465 803 379 764.5 c 128,-1,14
 293 726 293 726 195 643 c 1,15,-1
 195 887 l 1,16,17
 300 965 300 965 389.5 999.5 c 128,-1,18
 479 1034 479 1034 576 1034 c 0,19,20
 686 1034 686 1034 833 975 c 0,21,22
 843 971 843 971 848 969 c 0,23,24
 856 966 856 966 870 960 c 0,25,26
 1025 899 1025 899 1119 899 c 0,27,28
 1205 899 1205 899 1289.5 936.5 c 128,-1,29
 1374 974 1374 974 1477 1059 c 1,0,-1
1477 641 m 1,30,-1
 1477 397 l 1,31,32
 1371 317 1371 317 1281.5 282.5 c 128,-1,33
 1192 248 1192 248 1096 248 c 0,34,35
 989 248 989 248 846 306 c 0,36,37
 832 312 832 312 823 316 c 0,38,39
 817 318 817 318 802 324 c 0,40,41
 647 385 647 385 553 385 c 0,42,43
 465 385 465 385 379 347 c 128,-1,44
 293 309 293 309 195 225 c 1,45,-1
 195 469 l 1,46,47
 302 549 302 549 391 583.5 c 128,-1,48
 480 618 480 618 576 618 c 0,49,50
 683 618 683 618 826 560 c 0,51,52
 841 554 841 554 848 551 c 0,53,54
 856 548 856 548 870 543 c 0,55,56
 1025 481 1025 481 1119 481 c 0,57,58
 1205 481 1205 481 1289.5 518.5 c 128,-1,59
 1374 556 1374 556 1477 641 c 1,30,-1
EndSplineSet
EndChar

StartChar: lessequal
Encoding: 8804 8804 290
Width: 1544
GlyphClass: 2
Flags: W
LayerCount: 2
Fore
SplineSet
195 894 m 1,0,-1
 195 1130 l 1,1,-1
 1035 1643 l 1,2,-1
 1036 1342 l 1,3,-1
 490 1012 l 1,4,-1
 1036 682 l 1,5,-1
 1035 381 l 1,6,-1
 195 894 l 1,0,-1
EndSplineSet
EndChar

StartChar: greaterequal
Encoding: 8805 8805 291
Width: 1544
GlyphClass: 2
Flags: W
LayerCount: 2
Fore
SplineSet
1036 894 m 1,0,-1
 196 381 l 1,1,-1
 195 682 l 1,2,-1
 733 1012 l 1,3,-1
 195 1342 l 1,4,-1
 196 1643 l 1,5,-1
 1036 1130 l 1,6,-1
 1036 894 l 1,0,-1
EndSplineSet
EndChar

StartChar: lozenge
Encoding: 9674 9674 292
Width: 909
GlyphClass: 2
Flags: W
LayerCount: 2
Fore
SplineSet
484 1249 m 1,0,-1
 169 592 l 1,1,-1
 484 -73 l 1,2,-1
 799 592 l 1,3,-1
 484 1249 l 1,0,-1
484 1573 m 1,4,-1
 964 592 l 1,5,-1
 484 -397 l 1,6,-1
 4 592 l 1,7,-1
 484 1573 l 1,4,-1
EndSplineSet
EndChar

StartChar: fi
Encoding: 64257 64257 293
Width: 1366
GlyphClass: 2
Flags: W
LayerCount: 2
Fore
SplineSet
1388 -3 m 1,0,-1
 1038 -3 l 1,1,-1
 1038 1015 l 1,2,-1
 579 1015 l 1,3,-1
 579 0 l 1,4,-1
 229 0 l 1,5,-1
 229 1015 l 1,6,-1
 39 1015 l 1,7,-1
 39 1160 l 1,8,-1
 229 1160 l 1,9,10
 229 1426 229 1426 329 1560.5 c 128,-1,11
 429 1695 429 1695 637 1695 c 0,12,13
 694 1695 694 1695 751 1687.5 c 128,-1,14
 808 1680 808 1680 866 1666 c 1,15,-1
 866 1411 l 1,16,17
 800 1436 800 1436 717 1436 c 0,18,19
 683 1436 683 1436 657.5 1423 c 128,-1,20
 632 1410 632 1410 614.5 1378.5 c 128,-1,21
 597 1347 597 1347 588.5 1294 c 128,-1,22
 580 1241 580 1241 580 1160 c 1,23,-1
 1075 1159 l 1,24,-1
 1388 1159 l 1,25,-1
 1388 -3 l 1,0,-1
1075 1468 m 256,26,27
 1020 1523 1020 1523 1020 1607 c 0,28,29
 1020 1648 1020 1648 1035 1683.5 c 128,-1,30
 1050 1719 1050 1719 1076 1745 c 128,-1,31
 1102 1771 1102 1771 1137 1786 c 128,-1,32
 1172 1801 1172 1801 1213 1801 c 0,33,34
 1253 1801 1253 1801 1289 1786 c 128,-1,35
 1325 1771 1325 1771 1351.5 1745 c 128,-1,36
 1378 1719 1378 1719 1393.5 1683.5 c 128,-1,37
 1409 1648 1409 1648 1409 1607 c 256,38,39
 1409 1566 1409 1566 1393.5 1530.5 c 128,-1,40
 1378 1495 1378 1495 1351.5 1469 c 128,-1,41
 1325 1443 1325 1443 1289.5 1428 c 128,-1,42
 1254 1413 1254 1413 1213 1413 c 0,43,44
 1130 1413 1130 1413 1075 1468 c 256,26,27
EndSplineSet
EndChar

StartChar: fl
Encoding: 64258 64258 294
Width: 1366
GlyphClass: 2
Flags: W
LayerCount: 2
Fore
SplineSet
1367 1695 m 1,0,-1
 1367 0 l 1,1,-1
 1016 0 l 1,2,-1
 1016 1436 l 1,3,-1
 713 1436 l 2,4,5
 679 1436 679 1436 653.5 1423 c 128,-1,6
 628 1410 628 1410 610.5 1378.5 c 128,-1,7
 593 1347 593 1347 584.5 1294 c 128,-1,8
 576 1241 576 1241 576 1160 c 1,9,-1
 856 1160 l 1,10,-1
 856 1015 l 1,11,-1
 575 1015 l 1,12,-1
 575 0 l 1,13,-1
 225 0 l 1,14,-1
 225 1015 l 1,15,-1
 35 1015 l 1,16,-1
 35 1160 l 1,17,-1
 225 1160 l 1,18,19
 225 1426 225 1426 325 1560.5 c 128,-1,20
 425 1695 425 1695 633 1695 c 2,21,-1
 1367 1695 l 1,0,-1
EndSplineSet
EndChar

StartChar: twosuperior
Encoding: 65540 -1 296
Width: 807
GlyphClass: 2
Flags: W
LayerCount: 2
Fore
SplineSet
565 1251 m 0,0,1
 565 1309 565 1309 536 1337.5 c 128,-1,2
 507 1366 507 1366 442 1366 c 0,3,4
 407 1366 407 1366 361.5 1355 c 128,-1,5
 316 1344 316 1344 272 1326 c 2,6,-1
 208 1300 l 2,7,8
 188 1291 188 1291 172 1283 c 1,9,-1
 171 1282 l 1,10,-1
 98 1473 l 1,11,-1
 100 1474 l 2,12,13
 120 1484 120 1484 145 1495 c 128,-1,14
 170 1506 170 1506 224.5 1527 c 128,-1,15
 279 1548 279 1548 341.5 1561.5 c 128,-1,16
 404 1575 404 1575 460 1575 c 0,17,18
 515 1575 515 1575 566 1566 c 128,-1,19
 617 1557 617 1557 666.5 1536 c 128,-1,20
 716 1515 716 1515 752 1483.5 c 128,-1,21
 788 1452 788 1452 810 1402 c 128,-1,22
 832 1352 832 1352 832 1289 c 0,23,24
 832 1195 832 1195 786 1117.5 c 128,-1,25
 740 1040 740 1040 624 939 c 1,26,-1
 509 836 l 1,27,-1
 807 836 l 1,28,-1
 807 622 l 1,29,-1
 120 622 l 1,30,-1
 120 796 l 1,31,-1
 380 1016 l 1,32,33
 384 1018 384 1018 405 1035.5 c 128,-1,34
 426 1053 426 1053 433 1060 c 2,35,-1
 460 1083 l 2,36,37
 480 1100 480 1100 488 1110 c 2,38,-1
 511 1136 l 1,39,40
 527 1152 527 1152 534 1164 c 128,-1,41
 541 1176 541 1176 549.5 1192 c 128,-1,42
 558 1208 558 1208 561.5 1222 c 128,-1,43
 565 1236 565 1236 565 1251 c 0,0,1
EndSplineSet
EndChar

StartChar: threesuperior
Encoding: 65541 -1 297
Width: 807
GlyphClass: 2
Flags: W
LayerCount: 2
Fore
SplineSet
533 1340 m 0,0,1
 533 1385 533 1385 496.5 1407 c 128,-1,2
 460 1429 460 1429 401 1429 c 0,3,4
 380 1429 380 1429 357 1426 c 128,-1,5
 334 1423 334 1423 312.5 1418 c 128,-1,6
 291 1413 291 1413 269.5 1407 c 128,-1,7
 248 1401 248 1401 231 1395 c 128,-1,8
 214 1389 214 1389 201 1384 c 128,-1,9
 188 1379 188 1379 180 1376 c 2,10,-1
 173 1373 l 1,11,-1
 82 1556 l 1,12,-1
 96 1564 l 2,13,14
 112 1572 112 1572 140 1584.5 c 128,-1,15
 168 1597 168 1597 202.5 1609 c 128,-1,16
 237 1621 237 1621 285 1630 c 128,-1,17
 333 1639 333 1639 381 1639 c 0,18,19
 454 1639 454 1639 513 1629 c 128,-1,20
 572 1619 572 1619 622 1597 c 128,-1,21
 672 1575 672 1575 706 1540 c 128,-1,22
 740 1505 740 1505 760 1453.5 c 128,-1,23
 780 1402 780 1402 781 1335 c 0,24,25
 783 1260 783 1260 739 1196.5 c 128,-1,26
 695 1133 695 1133 620 1115 c 1,27,28
 702 1095 702 1095 756 1024 c 128,-1,29
 810 953 810 953 810 868 c 256,30,31
 810 783 810 783 779 718.5 c 128,-1,32
 748 654 748 654 691.5 614.5 c 128,-1,33
 635 575 635 575 560.5 555.5 c 128,-1,34
 486 536 486 536 396 536 c 0,35,36
 344 536 344 536 294.5 541.5 c 128,-1,37
 245 547 245 547 210.5 555 c 128,-1,38
 176 563 176 563 149.5 571 c 128,-1,39
 123 579 123 579 110 585 c 2,40,-1
 96 591 l 1,41,-1
 163 792 l 1,42,-1
 164 792 l 1,43,44
 181 785 181 785 205 776.5 c 128,-1,45
 229 768 229 768 286 755.5 c 128,-1,46
 343 743 343 743 388 743 c 0,47,48
 468 743 468 743 509.5 771 c 128,-1,49
 551 799 551 799 551 866 c 0,50,51
 551 914 551 914 516 949.5 c 128,-1,52
 481 985 481 985 428 1001.5 c 128,-1,53
 375 1018 375 1018 314 1016 c 1,54,-1
 314 1213 l 1,55,56
 358 1213 358 1213 395.5 1220 c 128,-1,57
 433 1227 433 1227 464.5 1241 c 128,-1,58
 496 1255 496 1255 514.5 1281 c 128,-1,59
 533 1307 533 1307 533 1340 c 0,0,1
EndSplineSet
EndChar

StartChar: onesuperior
Encoding: 65542 -1 298
Width: 807
GlyphClass: 2
Flags: W
LayerCount: 2
Fore
SplineSet
311 702 m 1,0,-1
 311 1416 l 1,1,-1
 186 1362 l 1,2,-1
 111 1552 l 1,3,-1
 325 1639 l 1,4,-1
 589 1637 l 1,5,-1
 589 702 l 1,6,-1
 311 702 l 1,0,-1
EndSplineSet
EndChar

StartChar: dotaccentcmb
Encoding: 775 775 342
Width: 1024
Flags: W
LayerCount: 2
Fore
SplineSet
375 1585 m 1,0,-1
 649 1585 l 1,1,-1
 649 1339 l 1,2,-1
 375 1339 l 1,3,-1
 375 1585 l 1,0,-1
EndSplineSet
EndChar

StartChar: commaaccent
Encoding: 65549 -1 343
Width: 713
Flags: W
LayerCount: 2
Fore
SplineSet
147 418 m 1,0,-1
 147 833 l 1,1,-1
 565 833 l 1,2,-1
 565 471 l 2,3,4
 565 404 565 404 544.5 349.5 c 128,-1,5
 524 295 524 295 493 259.5 c 128,-1,6
 462 224 462 224 412 194 c 128,-1,7
 362 164 362 164 316.5 146.5 c 128,-1,8
 271 129 271 129 210 111 c 1,9,-1
 148 225 l 1,10,11
 243 259 243 259 284 301 c 128,-1,12
 325 343 325 343 325 418 c 1,13,-1
 147 418 l 1,0,-1
EndSplineSet
EndChar

StartChar: grave.cap
Encoding: 65550 -1 344
Width: 974
Flags: W
LayerCount: 2
Fore
SplineSet
452 1321 m 1,0,-1
 94 1863 l 1,1,-1
 406 2008 l 1,2,-1
 609 1395 l 1,3,-1
 452 1321 l 1,0,-1
EndSplineSet
EndChar

StartChar: acute.cap
Encoding: 65551 -1 345
Width: 974
Flags: W
LayerCount: 2
Fore
SplineSet
522 1321 m 1,0,-1
 365 1395 l 1,1,-1
 568 2008 l 1,2,-1
 880 1863 l 1,3,-1
 522 1321 l 1,0,-1
EndSplineSet
EndChar

StartChar: circumflex.cap
Encoding: 65552 -1 346
Width: 1024
Flags: W
LayerCount: 2
Fore
SplineSet
393 1984 m 1,0,-1
 647 1984 l 1,1,-1
 905 1365 l 1,2,-1
 631 1365 l 1,3,-1
 519 1749 l 1,4,-1
 407 1365 l 1,5,-1
 135 1365 l 1,6,-1
 393 1984 l 1,0,-1
EndSplineSet
EndChar

StartChar: dieresis.cap
Encoding: 65553 -1 347
Width: 1453
Flags: W
LayerCount: 2
Fore
SplineSet
922 1352 m 1,0,1
 867 1408 867 1408 867 1491 c 128,-1,2
 867 1574 867 1574 922.5 1629.5 c 128,-1,3
 978 1685 978 1685 1060 1685 c 128,-1,4
 1142 1685 1142 1685 1199 1629.5 c 128,-1,5
 1256 1574 1256 1574 1256 1491 c 128,-1,6
 1256 1408 1256 1408 1199 1352.5 c 128,-1,7
 1142 1297 1142 1297 1060 1297 c 128,-1,8
 978 1297 978 1297 922 1352 c 1,0,1
252 1352 m 1,9,10
 197 1408 197 1408 197 1491 c 128,-1,11
 197 1574 197 1574 252.5 1629.5 c 128,-1,12
 308 1685 308 1685 390 1685 c 128,-1,13
 472 1685 472 1685 529 1629.5 c 128,-1,14
 586 1574 586 1574 586 1491 c 128,-1,15
 586 1408 586 1408 529 1352.5 c 128,-1,16
 472 1297 472 1297 390 1297 c 128,-1,17
 308 1297 308 1297 252 1352 c 1,9,10
EndSplineSet
EndChar

StartChar: caron.cap
Encoding: 65554 -1 348
Width: 1024
Flags: W
LayerCount: 2
Fore
SplineSet
391 1262 m 1,0,-1
 135 1638 l 1,1,-1
 313 1638 l 1,2,-1
 512 1411 l 1,3,-1
 711 1638 l 1,4,-1
 889 1638 l 1,5,-1
 633 1262 l 1,6,-1
 391 1262 l 1,0,-1
EndSplineSet
EndChar

StartChar: ring.cap
Encoding: 65555 -1 349
Width: 1024
Flags: W
LayerCount: 2
Fore
SplineSet
465 1442 m 0,0,1
 412 1392 412 1392 412 1316.5 c 128,-1,2
 412 1241 412 1241 465.5 1190.5 c 128,-1,3
 519 1140 519 1140 592.5 1140 c 128,-1,4
 666 1140 666 1140 719 1190.5 c 128,-1,5
 772 1241 772 1241 772 1316.5 c 128,-1,6
 772 1392 772 1392 719 1442.5 c 128,-1,7
 666 1493 666 1493 592.5 1493 c 128,-1,8
 519 1493 519 1493 465 1442 c 0,0,1
593 1656 m 256,9,10
 689 1656 689 1656 772 1613 c 128,-1,11
 855 1570 855 1570 906 1491.5 c 128,-1,12
 957 1413 957 1413 957 1317 c 128,-1,13
 957 1221 957 1221 906 1142 c 128,-1,14
 855 1063 855 1063 772 1020 c 128,-1,15
 689 977 689 977 593 977 c 256,16,17
 497 977 497 977 413.5 1020 c 128,-1,18
 330 1063 330 1063 278.5 1142 c 128,-1,19
 227 1221 227 1221 227 1316.5 c 128,-1,20
 227 1412 227 1412 278.5 1491 c 128,-1,21
 330 1570 330 1570 413.5 1613 c 128,-1,22
 497 1656 497 1656 593 1656 c 256,9,10
EndSplineSet
EndChar

StartChar: tilde.cap
Encoding: 65556 -1 350
Width: 1024
Flags: W
LayerCount: 2
Fore
SplineSet
816 1414 m 0,0,1
 769 1414 769 1414 720.5 1429.5 c 128,-1,2
 672 1445 672 1445 632 1468 c 2,3,-1
 556 1512 l 1,4,5
 520 1534 520 1534 487.5 1549.5 c 128,-1,6
 455 1565 455 1565 432 1565 c 0,7,8
 401 1565 401 1565 386.5 1536.5 c 128,-1,9
 372 1508 372 1508 372 1440 c 1,10,-1
 164 1440 l 1,11,12
 164 1606 164 1606 221.5 1692 c 128,-1,13
 279 1778 279 1778 394 1778 c 0,14,15
 442 1778 442 1778 488 1763.5 c 128,-1,16
 534 1749 534 1749 569 1728 c 2,17,-1
 638 1685 l 2,18,19
 671 1664 671 1664 705.5 1649.5 c 128,-1,20
 740 1635 740 1635 770 1635 c 0,21,22
 805 1635 805 1635 816.5 1655.5 c 128,-1,23
 828 1676 828 1676 828 1739 c 1,24,-1
 1048 1739 l 1,25,26
 1048 1591 1048 1591 985.5 1502.5 c 128,-1,27
 923 1414 923 1414 816 1414 c 0,0,1
EndSplineSet
EndChar

StartChar: dotaccentcmb.cap
Encoding: 65557 -1 351
Width: 1024
Flags: W
LayerCount: 2
Fore
SplineSet
375 1585 m 1,0,-1
 649 1585 l 1,1,-1
 649 1339 l 1,2,-1
 375 1339 l 1,3,-1
 375 1585 l 1,0,-1
EndSplineSet
EndChar

StartChar: dotlessj
Encoding: 567 567 352
Width: 631
Flags: W
LayerCount: 2
Fore
SplineSet
-59 -113 m 1,0,1
 -7 -84 -7 -84 27 -57.5 c 128,-1,2
 61 -31 61 -31 91 8 c 128,-1,3
 121 47 121 47 135.5 100 c 128,-1,4
 150 153 150 153 150 223 c 2,5,-1
 150 1160 l 1,6,-1
 501 1160 l 1,7,-1
 501 203 l 2,8,9
 501 97 501 97 465 2 c 128,-1,10
 429 -93 429 -93 366.5 -162.5 c 128,-1,11
 304 -232 304 -232 223.5 -279.5 c 128,-1,12
 143 -327 143 -327 52 -348 c 1,13,-1
 -59 -113 l 1,0,1
188 1465 m 1,14,15
 135 1521 135 1521 135 1604.5 c 128,-1,16
 135 1688 135 1688 188.5 1743 c 128,-1,17
 242 1798 242 1798 324 1798 c 128,-1,18
 406 1798 406 1798 459.5 1743 c 128,-1,19
 513 1688 513 1688 513 1604.5 c 128,-1,20
 513 1521 513 1521 459.5 1465.5 c 128,-1,21
 406 1410 406 1410 324 1410 c 128,-1,22
 242 1410 242 1410 188 1465 c 1,14,15
EndSplineSet
EndChar
